<?xml version="1.0" encoding="UTF-8"?>
<svg id="Layer_2" data-name="Layer 2" xmlns="http://www.w3.org/2000/svg" xmlns:xlink="http://www.w3.org/1999/xlink" viewBox="0 0 1703.99 1809.85">
  <defs>
    <style>
      .cls-1, .cls-2 {
        opacity: .6;
      }

      .cls-3 {
        clip-path: url(#clippath-6);
      }

      .cls-4 {
        fill: #d48933;
      }

      .cls-5 {
        clip-path: url(#clippath-4);
      }

      .cls-6 {
        fill: url(#linear-gradient-2);
      }

      .cls-7, .cls-2 {
        fill: #fff;
      }

      .cls-8 {
        fill: #eba95f;
      }

      .cls-9, .cls-10 {
        fill: none;
      }

      .cls-11 {
        fill: url(#linear-gradient-4);
      }

      .cls-12 {
        fill: #5f4791;
      }

      .cls-13 {
        fill: #7e5ec2;
      }

      .cls-14 {
        fill: url(#linear-gradient-3);
      }

      .cls-15 {
        clip-path: url(#clippath-1);
      }

      .cls-16 {
        fill: url(#linear-gradient-5);
      }

      .cls-17 {
        fill: #a67cff;
      }

      .cls-18 {
        clip-path: url(#clippath-5);
      }

      .cls-19 {
        fill: #f8b365;
      }

      .cls-20 {
        clip-path: url(#clippath-3);
      }

      .cls-10 {
        stroke: #2b2f5c;
        stroke-dasharray: 13.31;
        stroke-miterlimit: 10;
        stroke-width: 6.66px;
      }

      .cls-21 {
        clip-path: url(#clippath-2);
      }

      .cls-22 {
        fill: #2b2f5c;
      }

      .cls-23 {
        fill: url(#linear-gradient);
      }

      .cls-24 {
        fill: #a1a5e6;
      }

      .cls-25 {
        clip-path: url(#clippath);
      }
    </style>
    <clipPath id="clippath">
      <circle class="cls-9" cx="146.71" cy="146.18" r="138.48" transform="translate(-60.39 146.56) rotate(-45)"/>
    </clipPath>
    <clipPath id="clippath-1">
      <circle class="cls-9" cx="633.51" cy="399.54" r="138.47"/>
    </clipPath>
    <clipPath id="clippath-2">
      <circle class="cls-9" cx="1124.95" cy="146.27" r="138.47"/>
    </clipPath>
    <clipPath id="clippath-3">
      <circle class="cls-9" cx="145.86" cy="654.8" r="138.47"/>
    </clipPath>
    <linearGradient id="linear-gradient" x1="1095.4" y1="-287.42" x2="795.4" y2="1688.57" gradientUnits="userSpaceOnUse">
      <stop offset="0" stop-color="#292f5c"/>
      <stop offset="1" stop-color="#292f5c"/>
    </linearGradient>
    <linearGradient id="linear-gradient-2" x1="842.85" y1="1746.22" x2="872.85" y2="693.12" gradientUnits="userSpaceOnUse">
      <stop offset="0" stop-color="#6075b0"/>
      <stop offset="1" stop-color="#7f65cd"/>
    </linearGradient>
    <linearGradient id="linear-gradient-3" x1="902.11" y1="665.29" x2="886.11" y2="1205.3" xlink:href="#linear-gradient"/>
    <clipPath id="clippath-4">
      <path class="cls-9" d="M1155.29,1157.25l452.29-376.68c7.05-5.87,3.49-17.29-5.63-18.2-3.18-.32-6.43-296.6-9.73-296.42l-887.74,49.48c-10.58.59-20.42,300-28.92,305.16-5.78,3.51-6.46,11.66-1.51,16.27l340.75,316.9c37.96,35.31,100.41,36.85,140.49,3.48Z"/>
    </clipPath>
    <linearGradient id="linear-gradient-4" x1="849.61" y1="885.63" x2="1440.03" y2="885.63" xlink:href="#linear-gradient-2"/>
    <linearGradient id="linear-gradient-5" x1="1043.4" y1="757.12" x2="1260.25" y2="757.12" xlink:href="#linear-gradient-2"/>
    <clipPath id="clippath-5">
      <circle class="cls-9" cx="1152.39" cy="757.95" r="103.46"/>
    </clipPath>
    <clipPath id="clippath-6">
      <path class="cls-9" d="M1148.15,782.66s17.42-3.84,20.89,1.79c1.51,9.21,2.13,18.32,2.13,18.32l-20.02,3.03-13.04-3.49-3.06-1.93-.84-13s6.86-3.66,13.95-4.73Z"/>
    </clipPath>
  </defs>
  <g id="Layer_1-2" data-name="Layer 1">
    <g id="_27" data-name="27">
      <g>
        <g>
          <path class="cls-7" d="M234.08,34.11c31.77,25.26,51.23,62.99,53.39,103.49,2.01,37.82-10.83,74.17-36.15,102.33-25.32,28.17-60.1,44.79-97.92,46.8-34.63,1.84-68.63-9.02-95.75-30.58-31.77-25.26-51.23-62.99-53.39-103.49-2.01-37.82,10.83-74.17,36.15-102.33C65.73,22.17,100.51,5.55,138.33,3.53c34.63-1.84,68.63,9.02,95.75,30.58Z"/>
          <path class="cls-22" d="M59.72,253.56c-29.95-23.81-49.94-59.85-52.13-101.06C3.52,76.12,62.14,10.92,138.51,6.86c35.16-1.87,67.95,9.55,93.5,29.86,29.95,23.81,49.94,59.85,52.13,101.06,4.06,76.37-54.55,141.57-130.92,145.64-35.16,1.87-67.95-9.55-93.5-29.86M55.57,258.76h0c27.76,22.07,62.56,33.19,98,31.3,38.71-2.06,74.3-19.07,100.22-47.9,25.92-28.83,39.06-66.03,37-104.74-2.21-41.46-22.12-80.06-54.64-105.92C208.4,9.44,173.59-1.68,138.15.21,99.44,2.27,63.85,19.28,37.93,48.11,12.02,76.94-1.12,114.13.94,152.85c2.21,41.46,22.12,80.06,54.63,105.91h0Z"/>
        </g>
        <g class="cls-25">
          <g>
            <path class="cls-17" d="M246.89,293.73c7.71-.41,13.61-7.02,13.15-14.73-1.32-22.07-2.8-41.45-4.4-52.1-4.08-27.19-19.05-35.09-19.05-35.09l-1.95,102.57,12.25-.65Z"/>
            <path class="cls-17" d="M211.21,295.63c-4.12-57.18-7.7-104.46-7.7-104.46-26.77-14.57-122.36-7.48-122.36-7.48,0,0-3.71,55.57-7.92,119.28l137.98-7.34Z"/>
            <path class="cls-17" d="M53.16,304.03l89.06-4.74c-4.33-27.52-32.78-128.67-32.78-128.67l-70.27,25.66s9.04,63.53,10.1,83.47c.24,4.57,2,13.36,3.89,24.28Z"/>
            <path class="cls-17" d="M55.84,303.89c-1.48-33.75-5.39-95.95-16.66-107.53,0,0-13.39,7.81-24.9,54.41-3.32,13.45-6.31,26.21-9.08,38.35-2.02,8.86,5,17.19,14.08,16.71l36.57-1.95Z"/>
            <path class="cls-17" d="M239.34,294.13c-.01-48.66-.52-100.48-2.76-102.5-4.2-3.78-52.94-16.87-52.94-16.87,0,0-26.14,97.11-31.97,124.03l87.67-4.66Z"/>
            <path class="cls-19" d="M113.34,187.4l9.73-42.5,43.86-2.33,8.53,47.53s-37.35,11.98-62.12-2.69Z"/>
            <g>
              <path class="cls-19" d="M108.21,91.15s6.25,39.83,14.04,55.1c7.78,15.27,25.16,14.35,26.9,14.25s17.19-4.4,25.14-18.76c7.95-14.36,9.02-59.73,9.02-59.73,0,0-16.56-16.55-37.51-17.17-20.95-.63-38.05,17.63-37.59,26.31Z"/>
              <path class="cls-19" d="M176.77,102.05s7.34-12.39,11.54-8.61c4.2,3.78-2.4,30.12-10.37,30.54-7.97.42-1.17-21.93-1.17-21.93Z"/>
              <path class="cls-19" d="M117.07,107.23s-10.71-13.43-14.49-9.23c-3.78,4.2,7.57,29.59,15.55,29.16l-1.06-19.94Z"/>
              <path class="cls-22" d="M195.97,77.23c1.81-5.6,1.36-11.66,1.04-17.57-2.12-39.84-79.84-25.97-93.27-11.28-5.61,6.14-9.15,15.34-7.18,23.66,1.43,6.07,10.91,12.05,5.59,17.99-3.76,4.2,8.66,10.82,11.21,22.03.18.81.37,1.64.65,2.4-.48-5.78-3.04-11.88-3.19-17.51-.33-11.56,17.06-13.16,25.51-14.52,25.69-4.13,40.61,9.4,40.83,10.45,1.32,6.13,2.84,12.71,2.13,19.02l2.75-.15c.4-7.38-.7-14.36,4.41-19.99,2.47-2.72,4.95-5.46,6.84-8.61,1.12-1.88,2.01-3.87,2.68-5.94Z"/>
            </g>
            <path class="cls-17" d="M121.34,152.45c-1.03,9.25-1.26,13.7-3.71,22.68-2.21,8.1.32,19.1.92,27.46.84,11.68,10.61,23.98,9.23,35.58-5.85-14.02-21.96-24.32-30.62-37.24-8.46-12.62-14.56-22.85-6.34-35.63,5.1-7.92,30.61-13.57,30.53-12.85Z"/>
            <path class="cls-17" d="M170.33,188.29c2.39,24.28-2.12,29.48-4.68,54.28,4.31-16.9,15.56-26.25,23.99-41.55,8.31-15.09,10.28-33.45-5.11-42.39-1.05-.61-15.79-6.51-15.66-5.22.37,3.54.42,24.37,1.46,34.89Z"/>
          </g>
        </g>
      </g>
      <g>
        <g>
          <path class="cls-7" d="M774.59,398.27c0,2.88-.09,5.81-.26,8.7-4.73,78.05-72.07,137.7-150.11,132.97-74.71-4.52-133.24-66.64-133.24-141.41,0-2.88.09-5.81.26-8.7,4.73-78.05,72.07-137.7,150.11-132.97,74.71,4.52,133.24,66.64,133.24,141.41Z"/>
          <path class="cls-22" d="M494.3,398.53c0-2.82.08-5.65.26-8.5,4.62-76.34,70.25-134.47,146.59-129.85,73.49,4.45,130.11,65.44,130.11,138.09,0,2.82-.08,5.65-.26,8.5-4.62,76.34-70.25,134.47-146.59,129.85-73.49-4.45-130.11-65.44-130.11-138.09M487.65,398.52h6.66s-6.66,0-6.66,0c0,76.54,59.9,140.11,136.36,144.74,38.69,2.34,75.99-10.52,105-36.23,29.02-25.7,46.29-61.17,48.63-99.87.18-2.96.27-5.95.27-8.9,0-76.53-59.9-140.11-136.36-144.73-38.69-2.34-75.99,10.52-105,36.23-29.02,25.7-46.29,61.17-48.63,99.87-.18,2.96-.27,5.95-.27,8.89h0Z"/>
        </g>
        <g class="cls-15">
          <g>
            <path class="cls-22" d="M604.96,366.58c-8.75-.53-17.9.04-20.68-10.71-5.25-20.24,7.38-49.27,25.8-59,6.16-3.26,13.19-4.42,20.09-5.37,8.12-1.12,15.07-1.11,22.07,3.22,6.45,3.99,13.28-1.38,19.92,3.64,5.64,4.27,9.77,10.71,12.54,17.13,3.61,8.38,5.2,17.49,6.45,26.53.28,2.05.54,4.17-.03,6.15-.48,1.66-1.51,3.11-2.54,4.5-7.85,10.68-17.87,17.88-31.67,17.05,0,0-51.71-3.13-51.94-3.14Z"/>
            <path class="cls-22" d="M605.32,331.53s1.38,3.41-9.24,7.96c-5.92,2.54-17.36,6.13-19.59,18.51-1.15,6.39-4.63,22.13-10.81,22.74-15.4,1.52-36.56,9.8-39.6,28.18-3.49,21.11,1.94,32.62,12.59,36.06,7.82,2.52,9.7,4.78,7.59,13.07-2.03,7.96,2.33,37.22,15.21,45.38,28.86,18.3,59.41-55.27,59.41-55.27l11.98-96.65-27.55-19.98Z"/>
            <path class="cls-22" d="M674.16,327.19s-1.82,3.41,8.33,9.53c5.66,3.41,16.77,8.62,17.47,21.92.36,6.87,1.6,16.56,7.77,17.97,15.37,3.53,32.45,19.75,34.5,49.35,1.56,22.59-6.27,46.25-17.46,48.53-8.22,1.67-7.35-2.58-6.25,6.42,1.05,8.62-2.43,5.11-16.46,12.09-31.45,15.63-58.24-45.07-58.24-45.07v-103.17s30.34-17.57,30.34-17.57Z"/>
            <path class="cls-12" d="M627,432.45s23.43-4.55,27.89,3.1c1.71,12.37,2.23,24.59,2.23,24.59l-26.89,3.38-17.34-5.11-4.04-2.68-.69-17.42s9.31-4.67,18.82-5.86Z"/>
            <path class="cls-19" d="M603.06,369.12s-3.04-11.35-8.83-7.98c-5.79,3.37,6.69,27.89,6.69,27.89l2.13-19.91Z"/>
            <path class="cls-19" d="M658.71,372.49s1.01-16.69,9.72-6.86c8.71,9.84-10.62,21.7-10.62,21.7l.9-14.84Z"/>
            <path class="cls-17" d="M736.89,529.38c-5.5-37.95-14.87-67.93-18.29-69.83l-24.21,50.82s-5.19,15.27-6.02,34.56l32.39,1.96c9.71.59,17.53-7.89,16.13-17.51Z"/>
            <path class="cls-17" d="M573.67,537.99c1.98-16.69,2.2-27.26,2.2-27.26l-26.76-49.98s-4.6,14.55-10.67,53.27c-.28,1.8-.56,3.63-.83,5.49-1.26,8.69,5.19,16.6,13.96,17.13l22.11,1.34Z"/>
            <path class="cls-19" d="M614.75,540.58l32.32,1.96,14.34-91.58s-7.3-2.36-10.23-15.57c-2.92-13.21-3.21-39.32-3.21-39.32l-33.84,5.38s1.57,35.57-6.86,51.82l7.47,87.31Z"/>
            <path class="cls-22" d="M664.51,543.59l8.17-57.86c-35.08,18.2-69.83,15.11-104.48,2.24l7.02,50.22,89.29,5.41Z"/>
            <path class="cls-17" d="M622.69,540.96c-7.1-48.99-14.51-102.59-14.51-102.59l-6.24,10.76-52.84,11.74c1.82,12.02,7.61,45.15,13.55,76.45l60.03,3.63Z"/>
            <path class="cls-17" d="M696.9,545.45c3.66-14.65,6.8-26.07,6.8-26.07l14.89-59.83c-3.32-3.75-58.31-14.71-58.31-14.71l-5.4-9.22s-10.66,53.38-20.21,106.07l62.22,3.77Z"/>
            <path class="cls-19" d="M600.92,342.92s-4.55,44.41.57,52.16c5.12,7.76,11.52,24.9,24.4,27.54,12.87,2.64,35.52-33.22,35.63-35.08.11-1.85,1.18-50.2,1.18-50.2,0,0-37.04-33.89-61.77,5.57Z"/>
            <path class="cls-22" d="M593.95,335.05s-8.77,21.81,13.94,15.74l22.71-6.07s23.05-11.64,26.42-5.85c3.37,5.79,6.25,19.72,6.25,19.72,0,0,8.59-18.82,1.84-30.4-6.75-11.58-52.56-23.66-71.16,6.86Z"/>
          </g>
        </g>
      </g>
      <g>
        <g>
          <path class="cls-7" d="M1023.99,245.44c-28.7-28.7-43.76-68.39-41.31-108.88,4.73-78.05,72.07-137.7,150.11-132.97,34.61,2.1,67.17,16.74,91.66,41.24,28.7,28.7,43.76,68.39,41.31,108.88-2.29,37.81-19.16,72.46-47.52,97.58-28.35,25.11-64.79,37.69-102.6,35.4-34.61-2.1-67.17-16.74-91.66-41.24Z"/>
          <path class="cls-22" d="M1222.1,47.18c27.06,27.05,42.83,65.13,40.34,106.32-4.62,76.34-70.25,134.47-146.59,129.85-35.14-2.13-66.43-17.19-89.51-40.27-27.06-27.06-42.83-65.12-40.34-106.32,4.62-76.34,70.25-134.47,146.59-129.85,35.14,2.13,66.43,17.19,89.51,40.27M1226.82,42.48h0c-25.08-25.08-58.39-40.07-93.82-42.21-38.69-2.34-75.99,10.52-105,36.23-29.02,25.7-46.29,61.17-48.63,99.87-2.51,41.44,12.9,82.05,42.28,111.43,25.07,25.07,58.39,40.06,93.82,42.2,38.69,2.34,75.99-10.52,105-36.23,29.02-25.7,46.29-61.17,48.63-99.87,2.51-41.44-12.9-82.05-42.27-111.42h0Z"/>
        </g>
        <g class="cls-21">
          <g>
            <circle class="cls-22" cx="1131.64" cy="85.78" r="45.16" transform="translate(33.9 373.77) rotate(-19.04)"/>
            <path class="cls-22" d="M1089.11,70.57c-23.98,67.37-41.24,128.89-40.11,146.55l58.18-2.6,14.38-126.42-32.45-17.52Z"/>
            <path class="cls-22" d="M1153.53,67.36l-17.32,154.55,63.3,38.79c1.84-53.07-16.99-190.85-27.85-195.17l-18.13,1.82Z"/>
            <polygon class="cls-19" points="1148.46 151.32 1147.81 193.66 1106.48 197.35 1106.58 152.87 1148.46 151.32"/>
            <path class="cls-19" d="M1169.42,127.07s-12.47,43.24-39.34,46.9c-26.88,3.66-32.24-38.12-33.46-41.17,0,0-6.11,2.44-7.08-3.54-.98-5.99-7.08-21.26,6.11-20.15,0,0-1.71-14.9,3.3-21.87,5.01-6.96,15.27-23.82,33.96-17.83,18.69,5.99,48.06,23.8,36.51,57.66Z"/>
            <path class="cls-19" d="M1148.02,179.51l25.14,15.34-36.27,35.26-60.48-43.36c9.79-3,19.5-7.23,28.19-8.14l43.43.89Z"/>
            <path class="cls-22" d="M1099.5,69.98c-9.63,11.88-3.31,23.31-6.24,32.08,8.79-2.6,38.1-5.52,46.78-4.13,2.17-5.83-.78-15.92-2.13-23.82,2.39,7.57,8.18,19.28,7.14,25.08,11.7,1.25,9.29,1.27,22.16,7.35l-8.1-36.42c-22.22-12.07-42.05-11.9-59.61-.13Z"/>
            <path class="cls-22" d="M1145.76,30.54c-.52,8.61-9.21,17.78-15.05,17.43-4.81-.29-13.35-10.51-12.83-19.11.52-8.61,7.18-15.21,14.88-14.74,7.7.47,13.52,7.82,13,16.43Z"/>
            <path class="cls-17" d="M1186.14,289.42l19.11-78.67c-18.65-14.41-36.3-21.8-57.23-31.22-7.48,13.41-37.73,10.2-43.42-.91-20.48,3.9-40.26,12.21-59.57,23.35l14.81,79.79,126.31,7.65Z"/>
            <path class="cls-17" d="M1226.21,277.73c-8.58-50.22-20.96-66.98-20.96-66.98l-25.33,63.81s2.26,5.35,5.09,14.8l29.18,1.77c7.38.45,13.27-6.1,12.02-13.39Z"/>
            <path class="cls-17" d="M1061.25,281.86c2.88-8.36,6.58-17.09,11.23-25.99l-27.46-53.87s-16.69,25.31-24.08,64.51c-1.28,6.78,3.71,13.13,10.59,13.55l29.71,1.8Z"/>
            <path class="cls-22" d="M1157.72,70.82c12.85,39.27,13.87,147.9,1.14,204.55,17.53-49.06,39.43-111.31,16.98-198.16l-18.12-6.39Z"/>
          </g>
        </g>
      </g>
      <g>
        <g>
          <path class="cls-7" d="M245.44,753.9c-28.7,28.7-68.39,43.76-108.88,41.31-37.81-2.29-72.46-19.16-97.58-47.52-25.11-28.35-37.69-64.79-35.4-102.6,2.1-34.61,16.74-67.17,41.24-91.66,28.7-28.7,68.39-43.76,108.88-41.31,37.81,2.29,72.46,19.16,97.58,47.52,25.11,28.35,37.69,64.79,35.4,102.6-2.1,34.61-16.74,67.17-41.24,91.66Z"/>
          <path class="cls-22" d="M47.18,555.78c27.05-27.06,65.12-42.83,106.32-40.34,76.34,4.62,134.47,70.25,129.85,146.59-2.13,35.14-17.19,66.43-40.27,89.51-27.06,27.06-65.12,42.83-106.32,40.34-76.34-4.62-134.47-70.25-129.85-146.59,2.13-35.14,17.19-66.43,40.27-89.51M42.48,551.07h0c-25.07,25.08-40.06,58.4-42.2,93.82-2.34,38.69,10.52,75.99,36.23,105,25.7,29.02,61.17,46.29,99.87,48.63,41.44,2.51,82.05-12.9,111.43-42.28,25.07-25.07,40.06-58.39,42.2-93.82,2.34-38.69-10.52-75.99-36.23-105-25.7-29.02-61.17-46.29-99.87-48.63-41.44-2.51-82.05,12.9-111.42,42.27h0Z"/>
        </g>
        <g class="cls-20">
          <g>
            <circle class="cls-22" cx="152.56" cy="594.31" r="45.16" transform="translate(-185.49 82.25) rotate(-19.04)"/>
            <path class="cls-22" d="M110.02,579.1c-23.98,67.37-41.24,128.89-40.11,146.55l58.18-2.6,14.38-126.42-32.45-17.52Z"/>
            <path class="cls-22" d="M174.44,575.89l-17.32,154.55,63.3,38.79c1.84-53.07-16.99-190.85-27.85-195.17l-18.13,1.82Z"/>
            <polygon class="cls-4" points="169.37 659.85 168.72 702.19 127.4 705.88 127.5 661.4 169.37 659.85"/>
            <path class="cls-4" d="M190.34,635.6s-12.47,43.24-39.34,46.9c-26.88,3.66-32.24-38.12-33.46-41.17,0,0-6.11,2.44-7.08-3.54-.98-5.99-7.08-21.26,6.11-20.15,0,0-1.71-14.9,3.3-21.87,5.01-6.96,15.27-23.82,33.96-17.83,18.69,5.99,48.06,23.8,36.51,57.66Z"/>
            <path class="cls-4" d="M168.94,688.04l25.14,15.34-36.27,35.26-60.48-43.36c9.79-3,19.5-7.23,28.19-8.14l43.43.89Z"/>
            <path class="cls-22" d="M120.42,578.51c-9.63,11.88-3.31,23.31-6.24,32.08,8.79-2.6,38.1-5.52,46.78-4.13,2.17-5.83-.78-15.92-2.13-23.82,2.39,7.57,8.18,19.28,7.14,25.08,11.7,1.25,9.29,1.27,22.16,7.35l-8.1-36.42c-22.22-12.07-42.05-11.9-59.61-.13Z"/>
            <path class="cls-17" d="M207.05,797.95l19.11-78.67c-18.65-14.41-36.3-21.8-57.23-31.22-7.48,13.41-37.73,10.2-43.42-.91-20.48,3.9-40.26,12.21-59.57,23.35l14.81,79.79,126.31,7.65Z"/>
            <path class="cls-17" d="M247.13,786.26c-8.58-50.22-20.96-66.98-20.96-66.98l-25.33,63.81s2.26,5.35,5.09,14.8l29.18,1.77c7.38.45,13.27-6.1,12.02-13.39Z"/>
            <path class="cls-17" d="M82.17,790.39c2.88-8.36,6.58-17.09,11.23-25.99l-27.46-53.87s-16.69,25.31-24.08,64.51c-1.28,6.78,3.71,13.13,10.59,13.55l29.71,1.8Z"/>
          </g>
        </g>
      </g>
      <g>
        <g>
          <path class="cls-23" d="M1589.11,1742.15c0,14.39-11.78,26.16-26.19,26.16H146.88c-14.4,0-26.19-11.77-26.19-26.16l-11.78-813.76c0-14.39,16.95-42.48,48.02-40.37l1383.92-35.81c18.07-.47,35.54,6.49,48.34,19.24,12.8,12.76,19.8,30.19,19.37,48.25l-19.45,822.45Z"/>
          <path class="cls-6" d="M1563.26,1717.06c0,13.63-11.15,24.77-24.77,24.77H181.03c-13.63,0-24.77-11.15-24.77-24.77l-11.12-738.74c1.31-44.46,40.28-60.43,63.91-59.49l1326.36-35.58c12.7-.34,24.97,4.55,33.96,13.52,8.99,8.97,13.94,21.24,13.62,33.94l-19.73,786.36Z"/>
          <g>
            <path class="cls-24" d="M170.93,1364.44c-1.07,0-1.95-.86-1.96-1.94l-.88-59.91c-.02-1.09.85-1.98,1.94-1.99,1.01.03,1.98.85,1.99,1.94l.88,59.91c.02,1.09-.85,1.98-1.94,1.99h-.03Z"/>
            <path class="cls-24" d="M168.77,1217.62c-1.07,0-1.95-.86-1.96-1.94l-3.37-229.46c.07-15.31,4.79-27.55,14.02-36.4,16.8-16.1,43.1-15.29,44.21-15.25l423.57-11.37c1.08-.03,1.99.83,2.02,1.91.03,1.09-.83,1.99-1.91,2.02l-423.68,11.37c-1.18-.04-25.87-.8-41.48,14.16-8.44,8.08-12.75,19.37-12.81,33.54l3.37,229.42c.02,1.09-.85,1.98-1.94,1.99h-.03Z"/>
          </g>
          <g class="cls-1">
            <path class="cls-7" d="M216.06,1676.07c1.42-61.06.89-601.74-2.61-648.44-3.5-46.7,69.22-55.45,180.88-60.71,111.66-5.26,1053.74-26.06,1078-28.03,54.52-4.42,65.81,77.08,60.35,254-4.1,132.92-10.89,351.88-14.02,452.58-.93,29.98-25.44,53.77-55.43,53.85-226.7.62-1095.59,3.11-1153.44,4.84-66.56,1.98-94.3-3.88-93.73-28.09Z"/>
          </g>
        </g>
        <rect class="cls-14" x="34.53" y="1738.35" width="1669.46" height="71.5" rx="7.51" ry="7.51"/>
      </g>
      <g>
        <path class="cls-8" d="M1131.03,444.1l-468.64,387.43c9.1,4.38,19.41,6.63,30.29,6.07l887.91-46.27c15.27-.8,29.02-7.04,39.42-16.77l-348.51-326.48c-37.83-35.44-100.28-37.21-140.47-3.99Z"/>
        <path class="cls-19" d="M1562.71,1493.1h-854.76c-34.51,0-62.48-27.98-62.48-62.48v-556.58c0-33.16,25.9-60.54,59.01-62.39l887.74-49.48c37.17-2.07,67.89,28.61,65.87,65.78l-32.98,606.06c-1.8,33.14-29.2,59.09-62.39,59.09Z"/>
        <path class="cls-8" d="M1155.29,1157.25l467.24-389.13c-9.12-4.35-19.43-6.56-30.31-5.96l-887.74,49.48c-15.27.85-28.99,7.14-39.36,16.91l349.69,325.21c37.96,35.31,100.41,36.85,140.49,3.48Z"/>
        <g class="cls-5">
          <path class="cls-11" d="M1440.03,1259.46h-590.41v-670.77c0-25.67,20.03-46.88,45.65-48.36l493.53-28.44c27.8-1.6,51.23,20.51,51.23,48.36v699.22Z"/>
          <path class="cls-2" d="M1419.82,1259.46h-550.01v-624.87c0-23.91,18.66-43.67,42.53-45.05l459.76-26.49c25.9-1.49,47.72,19.11,47.72,45.05v651.36Z"/>
          <path class="cls-7" d="M951.69,978.62v5.36c0,15.92,13.37,28.58,29.27,27.72l346.36-18.85c15.08-.82,26.74-13.55,26.23-28.65l-.59-17.63c-.54-15.93-14.35-28.14-30.23-26.71l-345.77,31.12c-14.31,1.29-25.27,13.28-25.27,27.65Z"/>
          <path class="cls-7" d="M962.44,1079.7h0c-.81,15.79,11.71,29.07,27.52,29.18l306.11,2.27c15.38.11,27.92-12.3,27.96-27.68l.07-25.8c.05-16.2-13.73-29-29.89-27.76l-306.18,23.53c-13.92,1.07-24.88,12.31-25.6,26.25Z"/>
        </g>
      </g>
      <g>
        <g>
          <path class="cls-7" d="M1075.03,684.14c20.9-21.98,50.26-33.96,80.54-32.89,58.38,2.07,104.19,51.25,102.12,109.63-.92,25.89-11.25,50.48-29.08,69.23-20.9,21.98-50.26,33.96-80.54,32.89-28.28-1-54.48-12.96-73.77-33.66-19.29-20.71-29.36-47.68-28.36-75.96.92-25.89,11.25-50.48,29.08-69.23Z"/>
          <path class="cls-16" d="M1226.82,828.39c-19.7,20.72-47.84,33.21-78.65,32.12-57.1-2.02-101.75-49.95-99.73-107.05.93-26.29,11.6-49.94,28.4-67.61,19.7-20.71,47.84-33.21,78.65-32.12,57.1,2.02,101.75,49.95,99.73,107.05-.93,26.29-11.6,49.94-28.4,67.61M1230.41,831.83h0c18.26-19.2,28.83-44.37,29.77-70.87,1.03-28.94-9.28-56.55-29.02-77.75-19.74-21.19-46.55-33.43-75.5-34.45-31-1.1-61.04,11.17-82.43,33.66-18.26,19.19-28.83,44.36-29.77,70.86-1.03,28.94,9.28,56.55,29.02,77.75,19.74,21.19,46.55,33.43,75.5,34.45,31,1.1,61.04-11.17,82.43-33.65h0Z"/>
        </g>
        <g class="cls-18">
          <g>
            <path class="cls-22" d="M1130.45,733.88c-6.55-.23-13.36.36-15.65-7.61-4.3-15.02,4.59-36.93,18.17-44.55,4.54-2.55,9.77-3.55,14.9-4.39,6.04-.99,11.24-1.11,16.54,1.99,4.9,2.86,9.89-1.28,14.94,2.35,4.29,3.08,7.5,7.82,9.69,12.56,2.85,6.19,4.21,12.96,5.31,19.69.25,1.52.48,3.1.09,4.6-.33,1.25-1.07,2.35-1.81,3.41-5.66,8.12-13.01,13.69-23.34,13.33,0,0-38.68-1.37-38.85-1.38Z"/>
            <path class="cls-22" d="M1130.06,707.69s1.1,2.52-6.75,6.12c-4.37,2.01-7.72-10.9-9.15-1.62-.74,4.79-23.4,118.85-13.63,124.71,21.89,13.13,43.34-42.39,43.34-42.39l7.14-72.41-20.95-14.41Z"/>
            <path class="cls-22" d="M1181.4,703.16s10.19-.03,12.58,8.5c1.32,4.72,22.44,98.79,23.43,105.48.95,6.42-1.72,3.86-12.07,9.34-23.2,12.26-44.34-32.58-44.34-32.58l-1.93-77.05,22.33-13.69Z"/>
            <g class="cls-3">
              <rect class="cls-13" x="1134.46" y="780" width="35.95" height="25.65" transform="translate(-63.51 101.34) rotate(-4.9)"/>
            </g>
            <path class="cls-19" d="M1129.08,735.8s-2.48-8.42-6.74-5.8c-4.26,2.63,5.52,20.71,5.52,20.71l1.22-14.91Z"/>
            <path class="cls-19" d="M1170.71,737.28s.44-12.49,7.13-5.3c6.69,7.18-7.53,16.4-7.53,16.4l.39-11.1Z"/>
            <path class="cls-17" d="M1232.03,852.99c-4.81-28.24-12.38-50.45-14.97-51.82l-17.13,38.41s-3.59,11.5-3.85,25.93l24.23.86c7.26.26,12.94-6.22,11.72-13.38Z"/>
            <path class="cls-17" d="M1110.29,862.48c1.17-12.5,1.13-20.4,1.13-20.4l-20.92-36.83s-3.17,10.95-6.97,39.99c-.18,1.35-.35,2.72-.52,4.12-.78,6.52,4.19,12.3,10.74,12.53l16.54.59Z"/>
            <path class="cls-19" d="M1141.02,863.65l24.17.86,9-68.67s-5.5-1.63-7.93-11.44c-2.43-9.81-3.13-29.31-3.13-29.31l-25.17,4.65s1.84,26.54-4.15,38.83l7.22,65.07Z"/>
            <path class="cls-22" d="M1178.24,864.96l5.02-43.37c-25.86,14.25-51.87,12.59-77.99,3.62l6.18,37.38,66.79,2.37Z"/>
            <path class="cls-17" d="M1146.95,863.78c-6.22-36.46-12.76-76.35-12.76-76.35l-4.46,8.16-39.24,9.76c1.59,8.94,6.53,33.58,11.55,56.84l44.9,1.59Z"/>
            <path class="cls-17" d="M1202.47,865.74c2.46-11.01,4.59-19.6,4.59-19.6l10-44.96c-2.55-2.74-43.83-9.89-43.83-9.89l-4.21-6.78s-6.97,40.07-13.11,79.6l46.54,1.65Z"/>
            <path class="cls-19" d="M1126.99,716.28s-2.57,33.25,1.4,38.95c3.97,5.7,9.07,18.38,18.74,20.11,9.66,1.73,25.91-25.48,25.96-26.86s-.06-37.51-.06-37.51c0,0-28.3-24.62-46.03,5.32Z"/>
            <path class="cls-22" d="M1121.64,710.53s-3.6,21.68,10.71,11.49c22.37-15.93,33.84-14.08,36.47-9.82,2.63,4.26,5.04,14.61,5.04,14.61,0,0,6.06-14.22.81-22.74-5.25-8.52-39.7-16.69-53.02,6.46Z"/>
          </g>
        </g>
      </g>
      <line class="cls-10" x1="304.07" y1="635.59" x2="500.74" y2="476.81"/>
      <line class="cls-10" x1="304.07" y1="146.27" x2="503.52" y2="308.06"/>
      <line class="cls-10" x1="965.18" y1="156.92" x2="762.96" y2="308.06"/>
      <line class="cls-10" x1="771.26" y1="476.81" x2="1043.4" y2="675.59"/>
      <line class="cls-10" x1="1143.82" y1="308.06" x2="1143.82" y2="635.59"/>
      <line class="cls-10" x1="304.07" y1="666.43" x2="1019.69" y2="749.87"/>
    </g>
  </g>
</svg>