<?xml version="1.0" encoding="UTF-8"?>
<svg id="Layer_2" data-name="Layer 2" xmlns="http://www.w3.org/2000/svg" xmlns:xlink="http://www.w3.org/1999/xlink" viewBox="0 0 1508.01 1807.15">
  <defs>
    <style>
      .cls-1 {
        clip-path: url(#clippath-6);
      }

      .cls-2 {
        clip-path: url(#clippath-7);
      }

      .cls-3 {
        fill: #d48933;
      }

      .cls-4 {
        clip-path: url(#clippath-4);
      }

      .cls-5 {
        fill: #fff;
      }

      .cls-6 {
        fill: none;
      }

      .cls-7 {
        fill: #5f4791;
      }

      .cls-8 {
        clip-path: url(#clippath-1);
      }

      .cls-9 {
        fill: #a67cff;
      }

      .cls-10 {
        clip-path: url(#clippath-5);
      }

      .cls-11 {
        fill: #f8b365;
      }

      .cls-12 {
        clip-path: url(#clippath-3);
      }

      .cls-13 {
        fill: #c1c7e1;
      }

      .cls-14 {
        fill: #e6eef9;
      }

      .cls-15 {
        clip-path: url(#clippath-2);
      }

      .cls-16 {
        fill: #2b2f5c;
      }

      .cls-17 {
        clip-path: url(#clippath);
      }
    </style>
    <clipPath id="clippath">
      <circle class="cls-6" cx="773.98" cy="630.24" r="68.5" transform="translate(-218.95 731.88) rotate(-45)"/>
    </clipPath>
    <clipPath id="clippath-1">
      <circle class="cls-6" cx="1117.35" cy="962.06" r="68.5"/>
    </clipPath>
    <clipPath id="clippath-2">
      <path class="cls-6" d="M1114.37,978.39s11.56-2.42,13.82,1.33c.94,6.11,1.28,12.15,1.28,12.15l-13.27,1.87-8.61-2.4-2.02-1.3-.47-8.61s4.57-2.38,9.27-3.03Z"/>
    </clipPath>
    <clipPath id="clippath-3">
      <circle class="cls-6" cx="1012.89" cy="1191.62" r="68.5" transform="translate(-545.93 1065.24) rotate(-45)"/>
    </clipPath>
    <clipPath id="clippath-4">
      <circle class="cls-6" cx="560.11" cy="730.16" r="68.5"/>
    </clipPath>
    <clipPath id="clippath-5">
      <circle class="cls-6" cx="775.27" cy="1284.64" r="68.5"/>
    </clipPath>
    <clipPath id="clippath-6">
      <circle class="cls-6" cx="1017.67" cy="734.16" r="68.5" transform="translate(-221.06 934.63) rotate(-45)"/>
    </clipPath>
    <clipPath id="clippath-7">
      <circle class="cls-6" cx="470.81" cy="956.42" r="68.5"/>
    </clipPath>
  </defs>
  <g id="Layer_1-2" data-name="Layer 1">
    <g id="_44" data-name="44">
      <g>
        <g>
          <path class="cls-13" d="M1345.21,1416.48v-206.67h-74.8v-78.5h-98.77v285.17h-246.82v-224.09h-19.28v243.4h285.39v-285.17h60.19v78.47h74.8v206.7h175.55c.03-1.18.16-2.34.16-3.55v-15.76h-156.41Z"/>
          <polygon class="cls-13" points="1501.62 853.08 1311.89 853.08 1311.89 1006.04 1153.54 1006.04 1153.54 621.99 119.73 621.99 119.73 851.93 25.96 851.93 25.96 871.24 139.03 871.24 139.03 641.31 1134.24 641.31 1134.24 1025.35 1331.19 1025.35 1331.19 872.4 1501.62 872.4 1501.62 853.08"/>
          <rect class="cls-13" x="378.56" y="1219.45" width="19.3" height="130.22"/>
          <path class="cls-13" d="M51.92,1065.72c0,14.31-11.62,25.94-25.95,25.94s-25.96-11.62-25.96-25.94,11.62-25.96,25.96-25.96,25.95,11.62,25.95,25.96Z"/>
          <path class="cls-13" d="M51.92,860.55c0,14.31-11.62,25.94-25.95,25.94s-25.96-11.62-25.96-25.94,11.62-25.96,25.96-25.96,25.95,11.62,25.95,25.96Z"/>
          <path class="cls-13" d="M51.92,1450.98c0,14.34-11.62,25.97-25.95,25.97s-25.96-11.62-25.96-25.97,11.62-25.94,25.96-25.94,25.95,11.62,25.95,25.94Z"/>
          <path class="cls-13" d="M1508,1425.26c0,14.34-11.62,25.97-25.97,25.97s-25.94-11.62-25.94-25.97,11.62-25.95,25.94-25.95,25.97,11.62,25.97,25.95Z"/>
          <path class="cls-13" d="M482.07,1451c0,14.33-11.61,25.97-25.95,25.97s-25.95-11.64-25.95-25.97,11.62-25.96,25.95-25.96,25.95,11.62,25.95,25.96Z"/>
          <path class="cls-13" d="M1508,860.53c0,14.34-11.62,25.97-25.97,25.97s-25.94-11.62-25.94-25.97,11.62-25.95,25.94-25.95,25.97,11.62,25.97,25.95Z"/>
          <rect class="cls-13" x="491.29" y="1219.45" width="19.28" height="130.22"/>
          <path class="cls-13" d="M526.91,1359.42c0,14.33-11.64,25.95-25.97,25.95s-25.96-11.62-25.96-25.95,11.62-25.95,25.96-25.95,25.97,11.61,25.97,25.95Z"/>
          <polygon class="cls-13" points="313.67 1229.03 595.2 1229.03 595.2 1209.75 294.37 1209.75 294.37 1441.55 129.69 1441.55 129.69 1056.51 25.96 1056.51 25.96 1075.82 110.39 1075.82 110.39 1441.55 25.96 1441.55 25.96 1460.84 313.67 1460.84 313.67 1229.03"/>
          <path class="cls-13" d="M119.8,781.3c6.43.05,12.87.03,19.3-.05v-360.26H35.37v19.31h84.43v340.99Z"/>
          <polygon class="cls-13" points="203.9 1121.98 386.49 1121.98 386.49 1102.7 223.2 1102.7 223.2 972.96 1041.98 972.96 1041.98 1333.46 1061.28 1333.46 1061.28 953.66 203.9 953.66 203.9 1121.98"/>
          <polygon class="cls-13" points="213.55 781.33 213.55 800.61 1061.75 800.61 1061.75 1103.87 1415.04 1103.87 1415.04 1084.57 1081.06 1084.57 1081.06 781.33 213.55 781.33"/>
        </g>
        <path class="cls-13" d="M1444.79,1093.09c0,14.33-11.62,25.97-25.97,25.97s-25.94-11.64-25.94-25.97,11.62-25.97,25.94-25.97,25.97,11.62,25.97,25.97Z"/>
        <path class="cls-13" d="M1361.04,1219.45c0,14.33-11.62,25.95-25.95,25.95s-25.95-11.62-25.95-25.95,11.61-25.95,25.95-25.95,25.95,11.61,25.95,25.95Z"/>
        <path class="cls-13" d="M1078.59,1349.68c0,14.34-11.62,25.95-25.95,25.95s-25.97-11.61-25.97-25.95,11.62-25.97,25.97-25.97,25.95,11.62,25.95,25.97Z"/>
        <path class="cls-13" d="M1203.57,1417.15c0,14.33-11.62,25.95-25.95,25.95s-25.95-11.62-25.95-25.95,11.62-25.95,25.95-25.95,25.95,11.62,25.95,25.95Z"/>
        <path class="cls-13" d="M239.5,1039.74c0,14.34-11.62,25.97-25.95,25.97s-25.96-11.62-25.96-25.97,11.62-25.95,25.96-25.95,25.95,11.62,25.95,25.95Z"/>
        <path class="cls-13" d="M140.99,1067.12c0,14.34-11.62,25.97-25.95,25.97s-25.94-11.62-25.94-25.97,11.6-25.95,25.94-25.95,25.95,11.62,25.95,25.95Z"/>
        <path class="cls-13" d="M190.09,764.54c-14.34,0-25.97,11.64-25.97,25.98s11.62,25.94,25.97,25.94,25.95-11.62,25.95-25.94-11.62-25.98-25.95-25.98Z"/>
      </g>
      <g>
        <g>
          <path class="cls-13" d="M1133.23,182.36l-206.67-.48-.17,74.8-78.5-.18-.23,98.77,285.17.66-.57,246.82-224.09-.52-.04,19.28,243.4.56.66-285.39-285.17-.66.14-60.19,78.47.18.17-74.8,206.7.48.41-175.54c-1.18-.03-2.34-.17-3.55-.17l-15.76-.04-.36,156.41Z"/>
          <path class="cls-13" d="M338.31,372.19l-.85,369.42c5.61-4.8,12.11-8.39,19.34-10.53l.79-339.54,384.05.89.46-196.95-152.96-.35.39-170.43-19.32-.04-.44,189.73,152.96.35-.37,158.35-384.04-.89Z"/>
          <path class="cls-13" d="M1142.76,0c14.34.03,25.94,11.68,25.91,26.03-.03,14.31-11.68,25.91-26.03,25.88-14.33-.03-25.92-11.68-25.89-26,.03-14.34,11.68-25.94,26.01-25.91Z"/>
          <path class="cls-13" d="M578.86,0c14.34.03,25.94,11.68,25.91,26.03-.03,14.31-11.68,25.91-26.03,25.88-14.33-.03-25.92-11.68-25.89-26C552.88,11.56,564.54-.03,578.86,0Z"/>
          <path class="cls-13" d="M348.04,252.2c14.34.03,25.94,11.68,25.91,26.03-.03,14.31-11.68,25.91-26.03,25.88-14.33-.03-25.92-11.68-25.89-26,.03-14.34,11.68-25.94,26.01-25.91Z"/>
          <path class="cls-13" d="M35.42,405.78c14.34.03,25.94,11.68,25.91,26.03-.03,14.31-11.68,25.91-26.03,25.88-14.33-.03-25.92-11.68-25.89-26,.03-14.34,11.68-25.94,26.01-25.91Z"/>
          <path class="cls-13" d="M684.01,740.54c1.51,1.33,2.97,2.7,4.4,4.09l.6-260.07,360.51.83.04-19.3-379.81-.88-.61,264.02c5.22,3.44,10.21,7.2,14.86,11.3Z"/>
          <path class="cls-13" d="M516.14,711.53l.57-247.14,303.25.7.82-353.29-19.3-.04-.77,333.97-303.24-.7-.63,270.95c6.4-1.6,12.83-3.09,19.3-4.45Z"/>
        </g>
        <path class="cls-13" d="M810.08,82.03c14.33.03,25.94,11.68,25.91,26.03-.03,14.31-11.7,25.91-26.03,25.88-14.34-.03-25.94-11.68-25.91-26,.03-14.34,11.68-25.94,26.03-25.91Z"/>
        <path class="cls-13" d="M936.25,166.07c14.33.03,25.92,11.68,25.89,26.01s-11.68,25.92-26.01,25.89c-14.34-.03-25.92-11.67-25.89-26.01s11.67-25.92,26.01-25.89Z"/>
        <path class="cls-13" d="M1065.82,448.82c14.34.03,25.92,11.68,25.89,26.01s-11.67,25.94-26.01,25.91c-14.34-.03-25.94-11.68-25.91-26.03s11.68-25.92,26.03-25.89Z"/>
        <path class="cls-13" d="M1133.58,324c14.33.03,25.92,11.68,25.89,26.01-.03,14.33-11.68,25.92-26.01,25.89-14.33-.03-25.92-11.68-25.89-26.01.03-14.33,11.68-25.92,26.01-25.89Z"/>
      </g>
      <g>
        <g>
          <rect class="cls-13" x="1306.23" y="334.12" width="19.3" height="130.22" transform="translate(913.6 1714.19) rotate(-89.87)"/>
          <path class="cls-13" d="M1390.79,373.44c14.33.03,25.92,11.68,25.89,26.03-.03,14.34-11.68,25.94-26.01,25.91-14.34-.03-25.92-11.68-25.89-26.03.03-14.34,11.67-25.94,26.01-25.91Z"/>
          <rect class="cls-13" x="1306.43" y="250.01" width="19.28" height="130.22" transform="translate(997.91 1630.46) rotate(-89.87)"/>
          <path class="cls-13" d="M1390.98,289.32c14.33.03,25.92,11.7,25.89,26.03-.03,14.34-11.68,25.94-26.01,25.9-14.34-.03-25.92-11.68-25.89-26.02s11.67-25.94,26.01-25.91Z"/>
          <path class="cls-13" d="M1251,194.72c14.33.03,25.92,11.7,25.89,26.03-.03,14.34-11.68,25.94-26.01,25.9-14.34-.03-25.92-11.68-25.89-26.02s11.67-25.94,26.01-25.91Z"/>
          <polygon class="cls-13" points="1260.11 502.25 1260.76 220.73 1241.47 220.68 1240.78 521.51 1472.58 522.04 1472.2 686.73 1087.16 685.84 1086.92 789.57 1106.23 789.61 1106.43 705.18 1491.48 706.07 1491.91 502.79 1260.11 502.25"/>
        </g>
        <path class="cls-13" d="M1482.11,486.45c14.33.03,25.94,11.68,25.91,26.03-.03,14.33-11.7,25.92-26.03,25.89s-25.94-11.68-25.9-26.01,11.68-25.94,26.02-25.91Z"/>
        <path class="cls-13" d="M1097.8,674.56c14.34.03,25.94,11.68,25.91,26.01-.03,14.34-11.68,25.91-26.03,25.88-14.33-.03-25.92-11.66-25.89-26,.03-14.33,11.68-25.92,26.01-25.89Z"/>
      </g>
      <g>
        <rect class="cls-13" x="1112.77" y="1492.78" width="19.3" height="193.41" transform="translate(-469.66 2708.22) rotate(-89.87)"/>
        <path class="cls-13" d="M1228.92,1563.69c14.33.03,25.92,11.68,25.89,26.03-.03,14.34-11.68,25.94-26.01,25.91-14.34-.03-25.92-11.68-25.89-26.03.03-14.34,11.67-25.94,26.01-25.91Z"/>
        <polygon class="cls-13" points="1326.16 1495.88 1326.12 1515.16 1025.88 1514.86 1025.93 1495.58 1326.16 1495.88"/>
        <path class="cls-13" d="M1335.94,1479.57c14.33.03,25.92,11.7,25.89,26.03-.03,14.34-11.68,25.94-26.01,25.9-14.34-.03-25.92-11.68-25.89-26.02s11.67-25.94,26.01-25.91Z"/>
      </g>
      <g>
        <rect class="cls-13" x="294.31" y="1325.95" width="19.3" height="193.41"/>
        <path class="cls-13" d="M330,1529.09c0,14.33-11.62,25.95-25.97,25.95s-25.97-11.62-25.97-25.95c0-14.34,11.62-25.95,25.97-25.95,14.34,0,25.97,11.61,25.97,25.95Z"/>
        <polygon class="cls-13" points="398.04 1626.18 378.76 1626.18 378.37 1325.95 397.65 1325.95 398.04 1626.18"/>
        <path class="cls-13" d="M414.37,1635.92c0,14.33-11.64,25.95-25.97,25.95s-25.96-11.62-25.96-25.95c0-14.34,11.62-25.95,25.96-25.95,14.33,0,25.97,11.61,25.97,25.95Z"/>
      </g>
      <g>
        <g>
          <rect class="cls-13" x="783.32" y="1644.58" width="130.22" height="19.3" transform="translate(-807.75 2498.83) rotate(-89.87)"/>
          <path class="cls-13" d="M874.23,1729.14c-.03,14.33-11.68,25.92-26.03,25.89-14.34-.03-25.94-11.68-25.91-26.01.03-14.34,11.68-25.92,26.03-25.89,14.34.03,25.94,11.67,25.91,26.01Z"/>
          <path class="cls-13" d="M671.15,1639.22c-.03,14.31-11.68,25.91-26.01,25.88s-25.94-11.68-25.9-26c.03-14.34,11.68-25.94,26.02-25.9,14.33.03,25.92,11.68,25.89,26.02Z"/>
          <path class="cls-13" d="M578.81,1781.25c-.03,14.33-11.67,25.94-26.01,25.91-14.33-.03-25.92-11.7-25.89-26.03s11.68-25.94,26.01-25.9c14.34.03,25.92,11.68,25.89,26.02Z"/>
          <rect class="cls-13" x="867.44" y="1644.78" width="130.22" height="19.28" transform="translate(-724.02 2583.14) rotate(-89.87)"/>
          <path class="cls-13" d="M958.35,1729.33c-.03,14.33-11.7,25.92-26.03,25.89-14.34-.03-25.94-11.68-25.9-26.01.03-14.34,11.68-25.92,26.02-25.89,14.33.03,25.94,11.67,25.91,26.01Z"/>
          <polygon class="cls-13" points="1044.97 1719.36 1025.69 1719.32 1025.99 1420.51 1045.28 1420.55 1044.97 1719.36"/>
          <path class="cls-13" d="M1061.28,1729.14c-.03,14.33-11.7,25.92-26.03,25.89-14.34-.03-25.94-11.68-25.9-26.01.03-14.34,11.68-25.92,26.02-25.89,14.33.03,25.94,11.67,25.91,26.01Z"/>
          <polygon class="cls-13" points="745.41 1598.46 1026.94 1599.11 1026.99 1579.82 726.16 1579.13 725.63 1771.72 560.94 1771.34 561.83 1425.51 458.1 1425.27 458.06 1444.58 542.49 1444.78 541.64 1771.3 541.42 1790.58 744.88 1791.05 745.41 1598.46"/>
        </g>
        <path class="cls-13" d="M761.22,1781.25c-.03,14.33-11.68,25.94-26.03,25.91-14.33-.03-25.92-11.7-25.89-26.03s11.68-25.94,26.01-25.9c14.34.03,25.94,11.68,25.91,26.02Z"/>
        <path class="cls-13" d="M568.49,1450.86c-.05-7.1,1.19-14.22,3.86-20.93-2.76-11.33-12.94-19.77-25.13-19.8-14.34-.03-25.96,11.56-26,25.89-.03,14.34,11.53,25.99,25.88,26.03,8.86.02,16.69-4.42,21.39-11.19Z"/>
      </g>
      <g>
        <path class="cls-9" d="M1343.04,571.89l.11,44.57c.44,172.76-36.94,759.94-536.33,1062.59l-27.26,15.92-32.45-19.13C251.51,1371.66,215.26,788.4,215.98,616.39l.19-44.5,560.48-216.15,566.39,216.15Z"/>
        <path class="cls-16" d="M776.65,355.74l-560.49,216.15-.18,44.5c-.72,172.01,35.53,755.27,531.13,1059.44l32.45,19.13V356.85l-2.91-1.11Z"/>
        <path class="cls-14" d="M776.71,428.91l498.07,190.07c.07,165.65-36.48,712.43-495.25,996.65-460.12-284.08-495.68-831.76-495.31-996.79l492.5-189.93M776.68,414.27l-4.89,1.89-492.5,189.93-8.73,3.36-.02,9.35c-.09,41.19,2.03,107.12,12.65,187.25,12.53,94.51,33.75,185.68,63.06,270.97,37.47,109.02,88.15,208.01,150.64,294.23,35.86,49.48,76.18,95.47,119.84,136.68,47.23,44.58,99.58,84.73,155.6,119.32l7.19,4.44,7.18-4.45c55.86-34.61,108.08-74.75,155.19-119.32,43.56-41.2,83.8-87.17,119.61-136.62,62.41-86.17,113.08-185.09,150.6-294.01,29.37-85.25,50.69-176.38,63.34-270.85,10.74-80.17,12.98-146.19,12.96-187.46v-9.41s-8.79-3.35-8.79-3.35l-498.07-190.07-4.9-1.87h0Z"/>
      </g>
      <rect class="cls-13" x="548.08" y="1628.91" width="104.33" height="19.38"/>
      <rect class="cls-13" x="295.83" y="319.01" width="104.33" height="19.38" transform="translate(676.69 -19.29) rotate(90)"/>
      <g>
        <path class="cls-16" d="M793.68,419.83c0-.17-.02-.34-.05-.51l-4.88-30.63.09-.09c.11-.11.21-.21.32-.32.18-.18.35-.37.52-.57.1-.11.19-.22.29-.34.18-.22.34-.44.5-.67.07-.1.14-.2.21-.3.22-.33.43-.67.62-1.03l.06-.13c.17-.31.32-.63.46-.96.05-.12.1-.25.15-.38.1-.25.2-.51.28-.77.05-.15.09-.29.13-.44.07-.25.14-.51.2-.77.03-.15.07-.3.1-.45.05-.28.09-.56.13-.85.02-.13.04-.27.05-.4.04-.42.06-.85.06-1.28,0-.76-.07-1.5-.19-2.22-.12-.72-.31-1.43-.54-2.11-.23-.66-.5-1.3-.82-1.91-.32-.61-.69-1.19-1.1-1.75-.2-.28-.42-.54-.64-.8-2.24-2.59-5.45-4.32-9.06-4.61-.36-.03-.73-.05-1.1-.05-.42,0-.84.03-1.25.06-.13.01-.25.03-.38.05-.29.03-.57.08-.86.13-.14.03-.28.05-.41.08-.29.06-.57.14-.84.22-.11.03-.23.06-.34.1-.38.12-.76.26-1.12.41l-.16.07c-.31.14-.62.28-.92.44-.12.06-.23.13-.34.19-.24.13-.47.27-.69.42-.11.08-.23.15-.34.23l-.21.14c-3.39,2.44-5.57,6.4-5.57,10.9,0,3.83,1.61,7.28,4.19,9.73l-4.88,30.63c-.01.08-.02.16-.03.24h0v.14c-.01.08-.02.17-.02.25,0,.08,0,.17,0,.25,0,.08,0,.16.01.24,0,.08.02.16.03.24.01.08.02.16.04.24.02.08.03.16.05.24.02.08.04.15.06.23.02.08.05.15.08.23.03.07.06.15.09.22.03.07.07.15.1.22l.11.21.13.21.12.19.15.19.14.18.17.18.16.16.19.16.17.14.21.14.18.12c.07.05.15.08.23.12l.19.1c.08.04.17.07.25.1l.2.08c.09.03.18.05.27.08l.2.05c.1.02.21.04.31.05l.18.03c.16.02.32.03.48.03h.03s19.31,0,19.31,0c2.45,0,4.4-1.93,4.53-4.27,0-.16,0-.31,0-.47Z"/>
        <path class="cls-11" d="M876,361.9c0-1.39-.03-2.77-.09-4.15-.37-8.27-1.81-16.28-5.46-23.44-2.22-4.37-5.19-8.17-8.64-11.39-4.53-4.23-9.89-7.45-15.49-9.61-1.71-.66-3.44-1.22-5.18-1.7l-.08-.02c-.54-.15-1.08-.29-1.62-.42l-.18-.05c-.52-.13-1.05-.25-1.58-.36-.08-.02-.16-.04-.24-.05-.52-.11-1.04-.22-1.57-.31-.08-.02-.17-.03-.25-.05-.53-.1-1.07-.19-1.6-.28l-.19-.03c-.18-.03-.35-.06-.53-.08v-33.23c0-28.06-24.58-50.9-54.8-50.9s-54.79,22.83-54.79,50.9v33.55c-3.68.66-7.31,1.62-10.85,2.97-2.3.88-4.55,1.94-6.73,3.17-7.03,3.97-13.22,9.76-17.24,17.24-.21.39-.43.78-.62,1.18-3.55,7.18-4.9,15.2-5.21,23.44-.28,7.27.24,14.73.75,21.95,1.69,23.89,3.26,49.25,15.74,68.72.65,1.01,1.33,1.99,2.03,2.96.06.09.13.17.19.26.61.84,1.25,1.66,1.9,2.46.15.18.29.36.44.53.58.7,1.17,1.38,1.77,2.05.19.21.38.43.57.64.59.64,1.18,1.26,1.79,1.87.15.15.28.3.43.44l.2.2c.32.31.64.61.97.92.32.3.63.59.95.89.43.39.87.77,1.31,1.15.08.07.17.15.25.22.07.06.15.12.22.18.64.54,1.28,1.07,1.93,1.58.19.15.39.31.58.46.6.47,1.21.92,1.82,1.37.24.18.48.35.72.52.58.41,1.17.81,1.76,1.21.27.18.54.37.82.55.58.38,1.16.74,1.75,1.1.28.18.57.35.85.52.61.36,1.22.72,1.84,1.06.27.15.53.31.8.45.7.38,1.41.75,2.11,1.12.18.09.36.19.54.28,1.82.92,3.67,1.77,5.54,2.55h0s.02,0,.02,0c.91.38,1.81.75,2.72,1.1,1.09.42,2.18.81,3.28,1.2.3.1.59.2.89.31.83.28,1.65.56,2.48.82.32.1.63.2.94.3,1.08.34,2.16.66,3.24.97.15.04.3.08.44.12.94.26,1.89.51,2.83.75.37.09.75.18,1.12.27.77.19,1.54.36,2.31.53.36.08.71.16,1.07.24,1.07.23,2.13.44,3.2.64.24.04.49.08.73.13.87.15,1.73.3,2.6.43.38.06.77.12,1.15.17.79.11,1.57.22,2.36.32.34.04.67.09,1.01.13,1.09.12,2.17.24,3.26.33.24.02.48.04.72.06.89.07,1.78.13,2.67.19.35.02.69.04,1.04.05.88.04,1.76.08,2.64.1.25,0,.49.02.74.02,1.13.02,2.27.03,3.4.02.18,0,.35,0,.52,0,.98-.01,1.96-.04,2.94-.08.26,0,.52-.02.78-.03,1.05-.05,2.1-.11,3.16-.18.08,0,.16,0,.24-.02,1.2-.09,2.41-.2,3.61-.32l.18-.02c1.13-.12,2.25-.26,3.37-.41.07,0,.14-.02.21-.03l.17-.03c2.54-.35,5.08-.79,7.6-1.31.23-.05.46-.1.7-.15,2.51-.53,5.02-1.15,7.52-1.85l.18-.05c.1-.03.2-.06.3-.09.73-.21,1.45-.42,2.17-.64.39-.12.78-.24,1.17-.36.5-.16,1-.32,1.51-.49.5-.17,1.01-.33,1.51-.5.4-.14.81-.29,1.21-.43.55-.2,1.1-.39,1.65-.59.68-.25,1.36-.52,2.03-.78.24-.09.48-.18.72-.28,8.55-3.41,16.78-8.2,23.85-14.51,4.27-3.81,8.11-8.18,11.33-13.13.81-1.25,1.58-2.52,2.3-3.82.05-.09.09-.17.14-.26.31-.55.61-1.11.9-1.67.09-.18.18-.36.28-.55.24-.47.47-.94.7-1.41.12-.25.23-.49.35-.74.19-.41.38-.82.57-1.24.13-.3.26-.61.39-.91.16-.37.32-.73.47-1.1.14-.34.28-.69.42-1.04.13-.33.26-.66.39-.99.15-.38.29-.77.43-1.16.11-.3.22-.59.33-.89.15-.42.29-.84.43-1.26.09-.27.19-.54.28-.82.15-.44.29-.89.42-1.34.08-.25.16-.51.24-.76.14-.47.28-.94.41-1.41.07-.24.14-.48.2-.72.14-.48.27-.97.39-1.46.06-.23.12-.46.18-.69.13-.49.25-.99.37-1.48.06-.23.11-.47.17-.7.12-.49.23-.98.34-1.47.06-.25.11-.51.17-.76.1-.47.2-.93.3-1.4.06-.3.12-.59.18-.89.08-.42.17-.84.25-1.26.07-.37.14-.74.21-1.12.04-.21.08-.42.12-.63.01-.08.03-.17.04-.25.19-1.1.38-2.21.55-3.32.01-.1.03-.19.04-.29.12-.75.22-1.51.33-2.26.09-.66.19-1.32.28-1.98.08-.63.16-1.26.24-1.89.1-.77.19-1.53.28-2.3.07-.61.14-1.22.2-1.83.08-.75.16-1.5.23-2.25.07-.69.14-1.37.2-2.06.05-.58.11-1.17.16-1.76.08-.9.16-1.8.23-2.69.01-.15.02-.29.04-.44.31-3.8.58-7.59.86-11.35.45-6.21.9-12.6.86-18.9ZM792.95,419c-.13,2.22-1.97,4.05-4.3,4.05h-18.35c-.15,0-.3,0-.45-.03l-.17-.03c-.1-.01-.2-.03-.3-.05l-.19-.05c-.09-.02-.18-.05-.26-.07l-.19-.07c-.08-.03-.16-.06-.24-.1l-.18-.1c-.07-.04-.15-.07-.22-.12l-.17-.12-.2-.14-.16-.14-.18-.15-.15-.15-.16-.17-.14-.17-.14-.18-.12-.18-.12-.2-.1-.2c-.03-.07-.07-.14-.1-.21-.03-.07-.06-.14-.08-.21-.03-.07-.05-.14-.08-.22-.02-.07-.04-.14-.06-.22-.02-.07-.04-.15-.05-.22-.02-.07-.03-.15-.04-.23-.01-.08-.02-.15-.03-.23,0-.08,0-.15-.01-.23,0-.08,0-.16,0-.24,0-.08,0-.16.01-.24v-.13h.01c0-.08.01-.15.02-.23l4.63-29.06c-2.44-2.32-3.97-5.6-3.97-9.23,0-4.27,2.07-8.02,5.28-10.34l.2-.13c.11-.07.22-.15.33-.22.22-.14.43-.27.66-.4.11-.06.22-.12.33-.18.28-.15.57-.29.87-.42l.15-.07c.35-.15.7-.27,1.06-.39.11-.03.21-.06.32-.09.26-.08.53-.15.8-.21.13-.03.26-.05.39-.08.27-.05.54-.09.81-.12.12-.01.24-.03.36-.04.39-.04.79-.06,1.19-.06.35,0,.7.01,1.04.04,3.43.28,6.47,1.91,8.59,4.37.21.25.42.5.61.76.39.52.73,1.08,1.04,1.66.3.58.57,1.19.78,1.81.22.64.39,1.31.51,2,.12.68.18,1.39.18,2.11,0,.41-.02.81-.06,1.21-.01.13-.03.25-.05.38-.03.27-.07.54-.12.8-.03.14-.06.29-.09.43-.06.25-.12.49-.19.73-.04.14-.08.28-.13.42-.08.25-.17.49-.27.73-.05.12-.09.24-.14.36-.13.31-.28.61-.44.91l-.06.12c-.18.33-.38.66-.59.97-.07.1-.14.19-.2.28-.15.22-.31.43-.48.64-.09.11-.18.22-.27.32-.16.18-.32.36-.49.54-.1.1-.2.21-.31.31l-.09.09,4.63,29.05c.03.16.04.33.05.49,0,.15,0,.3,0,.45ZM813.61,309.07c-8.15.3-16.29,1.2-24.33,2.72-.39.07-.78.15-1.17.22-2.73.52-5.46,1.04-8.22,1.07-.09,0-.18,0-.27,0-.4,0-.8,0-1.2-.03-.1,0-.21-.02-.31-.02-2.22-.14-4.43-.54-6.63-.95-.47-.09-.94-.18-1.4-.27-1.96-.36-3.92-.69-5.89-.99-6.55-.98-13.14-1.59-19.75-1.8-.34,0-.69-.02-1.03-.03v-32.3c0-17.87,15.75-32.42,35.1-32.42s35.1,14.54,35.1,32.42v32.36ZM832.06,309.76s.02,0,.03,0h.01c.09.04.18.07.27.11l-.31-.12Z"/>
      </g>
      <g>
        <g>
          <path class="cls-9" d="M486.12,1076.7l-3.07,1.19c.8,2.05,1.63,4.12,2.46,6.15l3.04-1.26c-.83-2.01-1.65-4.06-2.44-6.09Z"/>
          <path class="cls-9" d="M481.62,1064.39l-3.11,1.07c.71,2.08,1.46,4.19,2.21,6.24l3.09-1.13c-.74-2.04-1.48-4.12-2.19-6.18Z"/>
          <path class="cls-9" d="M477.63,1051.9l-3.16.94c.63,2.1,1.28,4.23,1.95,6.33l3.14-1c-.66-2.07-1.31-4.18-1.93-6.27Z"/>
          <path class="cls-9" d="M474.16,1039.26l-3.19.81c.54,2.13,1.11,4.28,1.69,6.4l3.17-.87c-.58-2.1-1.14-4.23-1.67-6.34Z"/>
          <path class="cls-9" d="M491.12,1088.83l-3.02,1.32c.88,2.02,1.8,4.05,2.71,6.04l2.99-1.38c-.91-1.97-1.81-3.98-2.69-5.98Z"/>
          <path class="cls-9" d="M471.2,1026.49l-3.22.68c.45,2.16.93,4.33,1.43,6.47l3.21-.74c-.49-2.11-.97-4.27-1.41-6.4Z"/>
          <path class="cls-9" d="M495.13,814.66l2.95,1.47c.97-1.95,1.98-3.91,2.98-5.82l-2.91-1.53c-1.01,1.93-2.03,3.91-3.01,5.88Z"/>
          <path class="cls-9" d="M493.66,1102.18c.96,1.98,1.96,3.98,2.96,5.93l2.93-1.5c-.99-1.93-1.98-3.91-2.93-5.87l-2.96,1.44Z"/>
          <path class="cls-9" d="M499.7,1113.98c1.04,1.94,2.12,3.89,3.2,5.8l2.87-1.62c-1.07-1.89-2.14-3.83-3.17-5.75l-2.9,1.56Z"/>
          <path class="cls-9" d="M584.2,1214.82c1.72,1.37,3.47,2.73,5.21,4.05l1.99-2.62c-1.72-1.31-3.45-2.66-5.16-4.01l-2.05,2.58Z"/>
          <path class="cls-9" d="M465.21,935.26l-3.28-.25c-.17,2.19-.31,4.41-.44,6.6l3.29.18c.12-2.17.27-4.37.43-6.54Z"/>
          <path class="cls-9" d="M464.28,961.44l-3.29.02c.01,2.2.04,4.42.1,6.62l3.29-.08c-.05-2.17-.09-4.38-.1-6.55Z"/>
          <path class="cls-9" d="M466.47,922.23l-3.27-.38c-.26,2.18-.49,4.39-.7,6.58l3.28.32c.21-2.17.44-4.36.7-6.51Z"/>
          <path class="cls-9" d="M466.85,1000.64l-3.27.41c.28,2.18.58,4.38.9,6.56l3.26-.48c-.32-2.15-.62-4.34-.89-6.49Z"/>
          <path class="cls-9" d="M468.76,1013.61l-3.25.55c.36,2.17.76,4.36,1.16,6.52l3.23-.61c-.4-2.13-.79-4.3-1.15-6.45Z"/>
          <path class="cls-9" d="M464.61,974.54l-3.29.15c.1,2.19.22,4.42.37,6.61l3.28-.22c-.14-2.17-.26-4.37-.36-6.54Z"/>
          <path class="cls-9" d="M465.46,987.61l-3.28.28c.19,2.19.4,4.4.63,6.59l3.27-.35c-.23-2.16-.44-4.36-.63-6.52Z"/>
          <path class="cls-9" d="M501.28,802.96l2.88,1.59c1.05-1.9,2.13-3.82,3.22-5.69l-2.85-1.65c-1.1,1.89-2.19,3.83-3.25,5.75Z"/>
          <path class="cls-9" d="M538.82,748.8l2.5,2.14c1.41-1.65,2.86-3.31,4.31-4.93l-2.46-2.19c-1.46,1.64-2.92,3.31-4.35,4.98Z"/>
          <path class="cls-9" d="M506.22,1125.52c1.13,1.9,2.29,3.81,3.44,5.67l2.8-1.74c-1.14-1.84-2.29-3.73-3.4-5.61l-2.83,1.68Z"/>
          <path class="cls-9" d="M554.72,1188.34c1.54,1.56,3.12,3.13,4.69,4.66l2.3-2.36c-1.55-1.51-3.12-3.07-4.65-4.61l-2.34,2.31Z"/>
          <path class="cls-9" d="M545.61,1178.73c1.48,1.63,3,3.26,4.5,4.85l2.39-2.27c-1.49-1.57-2.99-3.19-4.46-4.8l-2.43,2.22Z"/>
          <path class="cls-9" d="M564.18,1197.55c1.6,1.5,3.24,3,4.88,4.47l2.2-2.45c-1.62-1.45-3.24-2.94-4.83-4.43l-2.25,2.4Z"/>
          <path class="cls-9" d="M574.03,1206.4c1.66,1.43,3.36,2.87,5.05,4.27l2.1-2.54c-1.68-1.39-3.36-2.81-5-4.23l-2.15,2.49Z"/>
          <path class="cls-9" d="M530.45,758.99l2.59,2.04c1.34-1.7,2.72-3.41,4.09-5.09l-2.54-2.09c-1.39,1.69-2.78,3.42-4.14,5.14Z"/>
          <path class="cls-9" d="M566.38,720.26l2.23,2.43c1.6-1.47,3.24-2.94,4.87-4.38l-2.18-2.47c-1.65,1.45-3.3,2.94-4.92,4.43Z"/>
          <path class="cls-9" d="M558.66,727.58c-.62.61-1.24,1.21-1.85,1.82l2.32,2.33c.61-.6,1.22-1.21,1.83-1.81.95-.93,1.9-1.85,2.86-2.77l-2.27-2.38c-.97.92-1.93,1.86-2.89,2.79Z"/>
          <path class="cls-9" d="M547.62,738.92l2.41,2.24c1.47-1.59,2.99-3.19,4.5-4.76l-2.37-2.29c-1.53,1.58-3.06,3.2-4.55,4.8Z"/>
          <path class="cls-9" d="M520.67,1147.76c1.28,1.8,2.59,3.61,3.89,5.37l2.65-1.96c-1.29-1.75-2.59-3.54-3.85-5.32l-2.68,1.91Z"/>
          <path class="cls-9" d="M507.89,791.53l2.82,1.71c1.12-1.85,2.28-3.72,3.45-5.55l-2.78-1.76c-1.18,1.86-2.35,3.74-3.48,5.61Z"/>
          <path class="cls-9" d="M513.22,1136.79c1.2,1.85,2.44,3.71,3.67,5.52l2.72-1.85c-1.22-1.8-2.44-3.64-3.63-5.47l-2.76,1.79Z"/>
          <path class="cls-9" d="M468.26,909.25l-3.25-.51c-.34,2.17-.67,4.37-.97,6.54l3.26.45c.3-2.15.62-4.33.96-6.48Z"/>
          <path class="cls-9" d="M528.56,1158.42c1.35,1.74,2.73,3.49,4.11,5.21l2.56-2.07c-1.37-1.7-2.74-3.43-4.07-5.16l-2.61,2.01Z"/>
          <path class="cls-9" d="M514.97,780.38l2.74,1.82c1.2-1.8,2.43-3.62,3.67-5.41l-2.71-1.88c-1.25,1.8-2.5,3.64-3.71,5.46Z"/>
          <path class="cls-9" d="M522.49,769.53l2.67,1.93c1.27-1.76,2.58-3.52,3.88-5.25l-2.63-1.98c-1.32,1.75-2.64,3.53-3.93,5.31Z"/>
          <path class="cls-9" d="M536.89,1168.76c1.42,1.69,2.87,3.38,4.32,5.04l2.48-2.17c-1.43-1.64-2.87-3.32-4.28-4.99l-2.52,2.12Z"/>
          <path class="cls-9" d="M464.48,948.34l-3.29-.12c-.08,2.19-.14,4.42-.17,6.61l3.29.05c.03-2.17.09-4.37.17-6.55Z"/>
          <path class="cls-16" d="M1080.13,828.66l3.01-1.34c-.9-2.01-1.83-4.04-2.76-6.02l-2.98,1.4c.93,1.96,1.85,3.97,2.73,5.96Z"/>
          <path class="cls-16" d="M1077.49,815.33c-.98-1.97-1.99-3.96-3.01-5.91l-2.92,1.52c1.01,1.93,2.01,3.9,2.98,5.85l2.95-1.46Z"/>
          <path class="cls-16" d="M1085.23,840.75l3.06-1.22c-.81-2.04-1.66-4.1-2.51-6.13l-3.03,1.28c.85,2.01,1.68,4.05,2.49,6.07Z"/>
          <path class="cls-16" d="M1071.35,803.58c-1.06-1.93-2.15-3.87-3.25-5.78l-2.85,1.64c1.09,1.89,2.17,3.81,3.22,5.72l2.89-1.58Z"/>
          <path class="cls-16" d="M1089.83,853.03l3.11-1.09c-.73-2.07-1.49-4.17-2.26-6.23l-3.08,1.15c.76,2.04,1.51,4.11,2.24,6.16Z"/>
          <path class="cls-16" d="M1064.73,792.09c-1.14-1.89-2.31-3.79-3.48-5.64l-2.78,1.76c1.16,1.84,2.32,3.72,3.45,5.58l2.82-1.7Z"/>
          <path class="cls-16" d="M1050.11,769.97c-1.29-1.78-2.61-3.58-3.94-5.34l-2.63,1.98c1.31,1.74,2.62,3.52,3.9,5.29l2.67-1.93Z"/>
          <path class="cls-16" d="M1042.13,759.37c-1.36-1.73-2.75-3.47-4.15-5.18l-2.55,2.09c1.38,1.69,2.77,3.41,4.11,5.12l2.59-2.03Z"/>
          <path class="cls-9" d="M473.41,883.58l-3.2-.78c-.52,2.13-1.02,4.3-1.5,6.44l3.21.71c.47-2.12.97-4.27,1.48-6.38Z"/>
          <path class="cls-16" d="M1107.56,942.74l3.29-.18c-.12-2.2-.26-4.42-.42-6.6l-3.28.24c.16,2.16.3,4.36.41,6.54Z"/>
          <path class="cls-16" d="M1106.6,929.67l3.28-.31c-.21-2.18-.44-4.4-.69-6.58l-3.27.37c.25,2.16.48,4.35.68,6.52Z"/>
          <path class="cls-16" d="M1093.92,865.48l3.15-.96c-.64-2.1-1.32-4.22-2-6.31l-3.13,1.03c.68,2.07,1.35,4.17,1.98,6.25Z"/>
          <path class="cls-16" d="M1105.11,916.65l3.26-.44c-.29-2.18-.61-4.38-.95-6.55l-3.25.51c.33,2.15.65,4.33.94,6.48Z"/>
          <path class="cls-16" d="M1107.99,955.84l3.29-.04c-.03-2.19-.08-4.42-.15-6.62l-3.29.11c.07,2.18.12,4.38.15,6.55Z"/>
          <path class="cls-16" d="M1097.5,878.1l3.18-.83c-.56-2.13-1.14-4.28-1.74-6.39l-3.17.9c.59,2.09,1.17,4.22,1.72,6.32Z"/>
          <path class="cls-16" d="M1103.1,903.7l3.24-.57c-.38-2.16-.79-4.35-1.22-6.51l-3.23.64c.42,2.13.83,4.3,1.2,6.44Z"/>
          <path class="cls-16" d="M1100.56,890.84l3.22-.7c-.47-2.14-.97-4.32-1.48-6.45l-3.2.77c.51,2.12,1,4.27,1.47,6.39Z"/>
          <path class="cls-16" d="M1057.65,780.88c-1.21-1.83-2.46-3.68-3.71-5.5l-2.71,1.87c1.24,1.79,2.48,3.62,3.68,5.44l2.75-1.82Z"/>
          <path class="cls-9" d="M495.22,822.01l-2.97-1.41c-.94,1.98-1.87,4-2.77,6l3,1.35c.89-1.98,1.81-3.98,2.74-5.94Z"/>
          <path class="cls-9" d="M489.86,833.94l-3.03-1.29c-.86,2.02-1.71,4.07-2.52,6.11l3.06,1.22c.81-2.01,1.65-4.05,2.5-6.05Z"/>
          <path class="cls-9" d="M476.76,870.93l-3.16-.91c-.6,2.11-1.2,4.25-1.76,6.37l3.18.84c.56-2.1,1.14-4.22,1.74-6.31Z"/>
          <path class="cls-16" d="M1033.72,749.1c-1.42-1.67-2.89-3.35-4.35-4.99l-2.46,2.19c1.44,1.63,2.89,3.29,4.3,4.94l2.5-2.14Z"/>
          <path class="cls-9" d="M480.62,858.42l-3.13-1.04c-.69,2.08-1.37,4.2-2.02,6.3l3.15.97c.64-2.08,1.31-4.17,1.99-6.23Z"/>
          <path class="cls-9" d="M484.99,846.09l-3.08-1.16c-.77,2.05-1.54,4.14-2.27,6.21l3.1,1.1c.72-2.05,1.48-4.11,2.25-6.14Z"/>
          <path class="cls-16" d="M1006.21,720.53c-1.61-1.48-3.26-2.97-4.91-4.43l-2.18,2.47c1.63,1.44,3.27,2.92,4.86,4.39l2.23-2.42Z"/>
          <path class="cls-16" d="M1015.75,729.68c-1.55-1.55-3.14-3.1-4.72-4.62l-2.28,2.38c1.57,1.5,3.14,3.04,4.68,4.57l2.33-2.33Z"/>
          <path class="cls-16" d="M1024.93,739.21c-1.49-1.61-3.02-3.23-4.54-4.81l-2.37,2.28c1.51,1.57,3.02,3.17,4.5,4.76l2.42-2.24Z"/>
          <path class="cls-9" d="M470.57,896.37l-3.23-.65c-.43,2.15-.85,4.33-1.23,6.5l3.24.58c.38-2.14.8-4.31,1.22-6.43Z"/>
          <path class="cls-16" d="M978.85,702.05c1.73,1.3,3.48,2.63,5.19,3.97l2.03-2.59c-1.73-1.35-3.49-2.7-5.24-4.01l-1.97,2.63Z"/>
          <path class="cls-16" d="M986.79,1211.64l2.05,2.57c1.72-1.38,3.45-2.79,5.14-4.19l-2.11-2.53c-1.67,1.39-3.38,2.79-5.09,4.15Z"/>
          <path class="cls-16" d="M1028.37,1171.92l2.47,2.17c1.45-1.65,2.9-3.34,4.31-5.02l-2.52-2.12c-1.4,1.66-2.83,3.33-4.27,4.97Z"/>
          <path class="cls-16" d="M976.36,1219.63l1.95,2.65c1.77-1.3,3.55-2.64,5.31-3.98l-2-2.61c-1.74,1.33-3.5,2.66-5.25,3.94Z"/>
          <path class="cls-16" d="M968.23,694.43c1.78,1.22,3.58,2.49,5.35,3.76l1.92-2.67c-1.79-1.28-3.6-2.56-5.4-3.79l-1.87,2.71Z"/>
          <path class="cls-16" d="M1011.33,1189.92c-1.56,1.53-3.15,3.05-4.73,4.54l2.26,2.4c1.59-1.5,3.2-3.04,4.77-4.58,1.23-1.2,2.47-2.44,3.69-3.67l-2.34-2.32c-1.2,1.22-2.43,2.44-3.65,3.63Z"/>
          <path class="cls-16" d="M1019.53,1181.59l2.39,2.27c1.52-1.6,3.04-3.22,4.51-4.84l-2.43-2.22c-1.46,1.6-2.96,3.21-4.47,4.79Z"/>
          <path class="cls-16" d="M989.14,710.09c1.68,1.37,3.37,2.77,5.02,4.18l2.13-2.51c-1.67-1.42-3.38-2.84-5.07-4.22l-2.08,2.55Z"/>
          <path class="cls-16" d="M996.88,1203.24l2.16,2.49c1.66-1.44,3.32-2.91,4.95-4.39l-2.21-2.44c-1.61,1.46-3.26,2.92-4.9,4.34Z"/>
          <path class="cls-16" d="M957.31,687.25c1.84,1.16,3.69,2.34,5.5,3.54l1.81-2.75c-1.83-1.2-3.7-2.41-5.55-3.57l-1.75,2.79Z"/>
          <path class="cls-16" d="M922.91,668.45c1.96.92,3.95,1.88,5.89,2.84l1.46-2.95c-1.97-.97-3.97-1.94-5.95-2.87l-1.4,2.98Z"/>
          <path class="cls-16" d="M931.69,1247.11l1.49,2.94c1.97-1,3.94-2.03,5.88-3.06l-1.55-2.9c-1.92,1.02-3.87,2.04-5.82,3.03Z"/>
          <path class="cls-16" d="M919.87,1252.8l1.37,2.99c2-.91,4.02-1.86,6-2.81l-1.43-2.97c-1.96.94-3.96,1.88-5.94,2.78Z"/>
          <path class="cls-16" d="M910.95,663.14c1.99.83,4.01,1.71,6.01,2.59l1.34-3.01c-2.02-.9-4.06-1.78-6.07-2.62l-1.28,3.04Z"/>
          <path class="cls-16" d="M965.62,1227.18l1.84,2.73c1.83-1.23,3.66-2.49,5.46-3.76l-1.89-2.69c-1.78,1.25-3.6,2.5-5.41,3.72Z"/>
          <path class="cls-16" d="M946.11,680.51c1.89,1.08,3.79,2.2,5.64,3.31l1.7-2.82c-1.87-1.12-3.78-2.25-5.7-3.34l-1.64,2.86Z"/>
          <path class="cls-16" d="M934.63,674.24c1.92,1,3.87,2.04,5.77,3.08l1.58-2.89c-1.92-1.05-3.88-2.1-5.83-3.11l-1.52,2.92Z"/>
          <path class="cls-16" d="M954.58,1234.29l1.72,2.8c1.87-1.15,3.76-2.34,5.61-3.53l-1.78-2.77c-1.84,1.18-3.7,2.36-5.55,3.5Z"/>
          <path class="cls-16" d="M943.27,1240.93l1.61,2.87c1.92-1.07,3.85-2.18,5.75-3.3l-1.67-2.84c-1.88,1.1-3.79,2.2-5.69,3.26Z"/>
          <path class="cls-16" d="M1099.49,1033.76l3.21.75c.5-2.14.99-4.31,1.45-6.45l-3.22-.69c-.45,2.12-.93,4.27-1.43,6.39Z"/>
          <path class="cls-16" d="M1102.22,1020.96l3.23.62c.41-2.15.81-4.34,1.18-6.51l-3.24-.56c-.37,2.14-.76,4.31-1.17,6.44Z"/>
          <path class="cls-16" d="M1092.47,1058.98l3.13,1.01c.67-2.09,1.33-4.21,1.96-6.31l-3.15-.95c-.63,2.08-1.28,4.18-1.94,6.25Z"/>
          <path class="cls-16" d="M1104.43,1008.05l3.26.49c.33-2.17.63-4.37.92-6.55l-3.26-.42c-.28,2.15-.58,4.34-.91,6.48Z"/>
          <path class="cls-16" d="M1096.24,1046.44l3.17.88c.59-2.11,1.16-4.26,1.71-6.39l-3.19-.82c-.54,2.11-1.11,4.23-1.69,6.32Z"/>
          <path class="cls-16" d="M1106.11,995.07l3.27.36c.24-2.18.46-4.39.65-6.58l-3.28-.29c-.19,2.17-.41,4.36-.64,6.52Z"/>
          <path class="cls-16" d="M1108,963.33c-.02,1.86-.06,3.75-.11,5.61l3.29.09c.05-1.88.09-3.79.11-5.67v-.95s-3.28-.02-3.28-.02v.94Z"/>
          <path class="cls-16" d="M1107.27,982.02l3.28.22c.15-2.19.28-4.41.38-6.61l-3.29-.16c-.1,2.17-.23,4.37-.38,6.54Z"/>
          <path class="cls-16" d="M1066.2,1118.76l2.86,1.63c1.08-1.91,2.16-3.85,3.2-5.78l-2.9-1.57c-1.03,1.91-2.1,3.83-3.17,5.72Z"/>
          <path class="cls-16" d="M1059.51,1130l2.79,1.74c1.16-1.86,2.32-3.76,3.44-5.64l-2.83-1.68c-1.11,1.86-2.25,3.74-3.4,5.58Z"/>
          <path class="cls-16" d="M1052.37,1140.94l2.72,1.85c1.24-1.81,2.47-3.66,3.66-5.49l-2.76-1.8c-1.18,1.81-2.4,3.64-3.63,5.44Z"/>
          <path class="cls-16" d="M1036.79,1161.92l2.56,2.07c1.37-1.7,2.75-3.44,4.1-5.17l-2.6-2.02c-1.33,1.72-2.69,3.44-4.05,5.12Z"/>
          <path class="cls-16" d="M1044.79,1151.59l2.64,1.96c1.31-1.76,2.61-3.55,3.88-5.34l-2.68-1.91c-1.26,1.76-2.55,3.54-3.84,5.28Z"/>
          <path class="cls-16" d="M1078.17,1095.51l2.99,1.39c.92-1.99,1.84-4.01,2.72-6.02l-3.01-1.33c-.87,1.99-1.78,3.99-2.69,5.96Z"/>
          <path class="cls-16" d="M1083.43,1083.54l3.04,1.26c.84-2.02,1.67-4.09,2.47-6.13l-3.07-1.2c-.79,2.02-1.62,4.06-2.45,6.07Z"/>
          <path class="cls-16" d="M1088.21,1071.35l3.09,1.14c.76-2.06,1.5-4.15,2.22-6.23l-3.11-1.07c-.71,2.05-1.45,4.13-2.2,6.16Z"/>
          <path class="cls-16" d="M1072.42,1107.26l2.93,1.51c1-1.95,2-3.94,2.96-5.91l-2.96-1.45c-.95,1.95-1.94,3.92-2.93,5.84Z"/>
          <path class="cls-16" d="M857.86,1273.75l.73,3.21c2.16-.49,4.33-1.01,6.44-1.53l-.8-3.19c-2.09.52-4.24,1.03-6.38,1.52Z"/>
          <path class="cls-9" d="M663.79,1261.28c2.03.82,4.09,1.64,6.15,2.42l1.17-3.08c-2.04-.78-4.08-1.58-6.09-2.4l-1.24,3.05Z"/>
          <path class="cls-9" d="M679.4,652.71l1.08,3.11c2.05-.71,4.14-1.41,6.22-2.08l-1.01-3.13c-2.1.68-4.21,1.39-6.28,2.11Z"/>
          <path class="cls-9" d="M639.72,1250.36c1.96.99,3.96,1.97,5.93,2.91l1.42-2.97c-1.95-.93-3.93-1.91-5.87-2.89l-1.48,2.94Z"/>
          <path class="cls-9" d="M630.95,674.09l1.57,2.89c1.92-1.04,3.87-2.08,5.8-3.07l-1.51-2.92c-1.95,1.01-3.92,2.05-5.86,3.11Z"/>
          <path class="cls-9" d="M651.64,1256.07c2,.91,4.03,1.8,6.05,2.67l1.3-3.03c-1.99-.86-4.01-1.75-5.98-2.64l-1.36,3Z"/>
          <path class="cls-9" d="M654.74,662.4l1.33,3.01c1.98-.87,4-1.74,6.03-2.59l-1.27-3.04c-2.04.85-4.09,1.73-6.09,2.61Z"/>
          <path class="cls-9" d="M688.67,1270.21c2.08.65,4.21,1.3,6.33,1.91l.92-3.16c-2.1-.61-4.21-1.25-6.26-1.89l-.99,3.14Z"/>
          <path class="cls-16" d="M898.79,658.32c2.04.76,4.1,1.55,6.11,2.35l1.21-3.06c-2.03-.8-4.11-1.6-6.17-2.37l-1.15,3.08Z"/>
          <path class="cls-9" d="M676.14,1266c2.06.74,4.16,1.47,6.25,2.17l1.05-3.12c-2.06-.69-4.14-1.41-6.18-2.15l-1.11,3.1Z"/>
          <path class="cls-9" d="M642.73,668l1.45,2.95c1.95-.96,3.94-1.91,5.92-2.83l-1.39-2.98c-2,.93-4.01,1.9-5.98,2.86Z"/>
          <path class="cls-9" d="M597.25,695.2l1.92,2.68c1.77-1.27,3.58-2.53,5.38-3.77l-1.86-2.72c-1.82,1.24-3.64,2.52-5.43,3.8Z"/>
          <path class="cls-9" d="M605.52,1230.39c1.82,1.22,3.68,2.43,5.52,3.62l1.78-2.77c-1.83-1.17-3.67-2.38-5.47-3.58l-1.83,2.74Z"/>
          <path class="cls-9" d="M586.62,703.13l2.02,2.6c1.73-1.34,3.48-2.68,5.22-3.98l-1.97-2.64c-1.76,1.31-3.53,2.67-5.28,4.02Z"/>
          <path class="cls-9" d="M594.7,1222.82c1.76,1.29,3.57,2.58,5.37,3.84l1.89-2.7c-1.78-1.24-3.57-2.52-5.32-3.8l-1.94,2.66Z"/>
          <path class="cls-9" d="M628.05,1244.17c1.91,1.06,3.86,2.12,5.8,3.15l1.54-2.91c-1.92-1.02-3.86-2.07-5.74-3.12l-1.6,2.88Z"/>
          <path class="cls-9" d="M619.44,680.66l1.69,2.83c1.86-1.11,3.77-2.23,5.67-3.31l-1.63-2.86c-1.92,1.09-3.84,2.22-5.72,3.34Z"/>
          <path class="cls-9" d="M616.65,1237.51c1.87,1.15,3.78,2.29,5.67,3.39l1.66-2.84c-1.87-1.09-3.76-2.22-5.61-3.35l-1.72,2.81Z"/>
          <path class="cls-9" d="M608.2,687.7l1.8,2.75c1.81-1.19,3.67-2.38,5.53-3.54l-1.75-2.79c-1.88,1.18-3.75,2.38-5.58,3.58Z"/>
          <path class="cls-9" d="M666.97,657.3l1.2,3.06c2.02-.8,4.09-1.58,6.13-2.34l-1.14-3.09c-2.06.76-4.15,1.56-6.19,2.36Z"/>
          <path class="cls-16" d="M883.16,1266.9l.99,3.14c2.09-.66,4.21-1.35,6.3-2.05l-1.05-3.12c-2.07.7-4.16,1.38-6.23,2.03Z"/>
          <path class="cls-16" d="M861.25,646.88c2.11.51,4.25,1.04,6.35,1.59l.83-3.19c-2.12-.55-4.28-1.09-6.42-1.6l-.77,3.2Z"/>
          <path class="cls-16" d="M873.91,650.18c2.08.59,4.2,1.21,6.28,1.84l.96-3.15c-2.11-.64-4.24-1.27-6.34-1.86l-.89,3.17Z"/>
          <path class="cls-16" d="M870.58,1270.58l.86,3.18c2.13-.58,4.27-1.18,6.37-1.8l-.93-3.16c-2.08.61-4.2,1.21-6.31,1.78Z"/>
          <path class="cls-16" d="M907.83,1258l1.24,3.05c2.03-.83,4.08-1.69,6.11-2.56l-1.3-3.02c-2,.87-4.04,1.72-6.05,2.54Z"/>
          <path class="cls-16" d="M848.45,644.1c2.12.42,4.28.86,6.41,1.33l.7-3.22c-2.15-.47-4.33-.92-6.48-1.34l-.63,3.23Z"/>
          <path class="cls-16" d="M886.43,654c2.06.67,4.14,1.38,6.2,2.1l1.09-3.11c-2.08-.73-4.18-1.44-6.26-2.12l-1.02,3.13Z"/>
          <path class="cls-16" d="M895.58,1262.7l1.12,3.1c2.07-.75,4.16-1.52,6.21-2.31l-1.18-3.07c-2.03.78-4.1,1.55-6.15,2.29Z"/>
          <path class="cls-16" d="M832.4,1278.47c.26,1.06.51,2.13.72,3.22,2-.29,4.01-.6,5.98-.92l-.53-3.25c-2.04.33-4.11.65-6.17.95Z"/>
          <path class="cls-9" d="M576.32,711.5l2.13,2.51c1.66-1.4,3.36-2.81,5.06-4.19l-2.08-2.55c-1.71,1.39-3.43,2.82-5.11,4.24Z"/>
          <path class="cls-9" d="M704.75,645.06l.82,3.19c2.11-.54,4.25-1.07,6.36-1.57l-.76-3.2c-2.13.5-4.29,1.04-6.43,1.59Z"/>
          <path class="cls-9" d="M692,648.63l.95,3.15c2.08-.63,4.2-1.24,6.3-1.83l-.89-3.17c-2.12.59-4.26,1.21-6.36,1.85Z"/>
          <path class="cls-9" d="M701.37,1273.9c2.12.57,4.27,1.13,6.4,1.65l.79-3.2c-2.11-.52-4.24-1.07-6.34-1.64l-.86,3.18Z"/>
          <path class="cls-9" d="M714.2,1277.08c2.14.48,4.32.95,6.47,1.39l.66-3.23c-2.13-.44-4.28-.9-6.4-1.38l-.73,3.21Z"/>
          <path class="cls-16" d="M835.56,641.84c2.15.33,4.32.69,6.46,1.06l.57-3.24c-2.16-.38-4.36-.74-6.53-1.08l-.5,3.25Z"/>
          <path class="cls-16" d="M845.02,1276.4l.6,3.24c2.16-.4,4.35-.83,6.5-1.27l-.67-3.22c-2.13.44-4.29.86-6.43,1.26Z"/>
        </g>
        <g>
          <g>
            <path class="cls-5" d="M817.77,575.25c15.59,12.66,25.02,31.42,25.88,51.46.8,18.72-5.74,36.63-18.41,50.43-12.67,13.8-29.96,21.85-48.68,22.65-17.14.73-33.9-4.81-47.2-15.62-15.59-12.66-25.02-31.42-25.88-51.46-.8-18.72,5.74-36.63,18.41-50.43s29.96-21.85,48.68-22.65c17.14-.73,33.9,4.81,47.2,15.62Z"/>
            <path class="cls-16" d="M730.4,682.9c-14.69-11.93-24.4-29.86-25.27-50.26-1.62-37.8,27.71-69.75,65.51-71.36,17.4-.74,33.56,5.07,46.1,15.25,14.69,11.93,24.4,29.86,25.27,50.26,1.62,37.8-27.71,69.75-65.51,71.36-17.4.74-33.56-5.07-46.1-15.25M728.32,685.45h0c13.62,11.06,30.77,16.74,48.31,15.99,19.16-.82,36.85-9.05,49.82-23.18,12.97-14.13,19.66-32.46,18.84-51.62-.88-20.52-10.53-39.72-26.48-52.67-13.61-11.06-30.77-16.73-48.31-15.98-19.16.82-36.85,9.05-49.82,23.18-12.97,14.13-19.66,32.46-18.84,51.62.88,20.52,10.53,39.71,26.48,52.67h0Z"/>
          </g>
          <g class="cls-17">
            <g>
              <path class="cls-9" d="M822.77,703.73c3.82-.16,6.77-3.4,6.58-7.22-.54-10.92-1.17-20.52-1.91-25.79-1.88-13.47-9.24-17.45-9.24-17.45l-1.49,50.72,6.06-.26Z"/>
              <path class="cls-9" d="M805.11,704.49c-1.75-28.31-3.27-51.71-3.27-51.71-13.16-7.34-60.48-4.33-60.48-4.33,0,0-2.12,27.47-4.53,58.96l68.29-2.92Z"/>
              <path class="cls-9" d="M726.9,707.84l44.08-1.89c-2-13.63-15.55-63.81-15.55-63.81l-34.89,12.33s4.14,31.47,4.57,41.34c.1,2.26.92,6.62,1.8,12.03Z"/>
              <path class="cls-9" d="M728.22,707.78c-.56-16.7-2.17-47.49-7.69-53.27,0,0-6.66,3.8-12.6,26.79-1.71,6.63-3.26,12.93-4.69,18.92-1.04,4.37,2.39,8.53,6.88,8.34l18.1-.77Z"/>
              <path class="cls-9" d="M819.03,703.89c.24-24.07.26-49.7-.84-50.71-2.06-1.89-26.1-8.61-26.1-8.61,0,0-13.43,47.9-16.45,61.18l43.39-1.86Z"/>
              <path class="cls-11" d="M757.26,650.45l5.03-20.97,21.71-.93,3.97,23.55s-18.54,5.74-30.71-1.65Z"/>
              <g>
                <path class="cls-11" d="M755.22,602.82s2.89,19.73,6.66,27.33c3.77,7.59,12.37,7.22,13.23,7.19s8.53-2.09,12.53-9.15c4.01-7.06,4.77-29.5,4.77-29.5,0,0-8.11-8.27-18.47-8.69-10.36-.42-18.91,8.52-18.73,12.82Z"/>
                <path class="cls-11" d="M789.07,608.56s3.69-6.09,5.75-4.2c2.06,1.89-1.34,14.88-5.29,15.05s-.46-10.85-.46-10.85Z"/>
                <path class="cls-11" d="M759.52,610.82s-5.23-6.7-7.12-4.64c-1.89,2.06,3.59,14.67,7.54,14.5l-.42-9.87Z"/>
                <path class="cls-16" d="M798.7,596.38c.93-2.76.73-5.76.61-8.68-.84-19.71-39.36-13.26-46.08-6.06-2.81,3.01-4.6,7.54-3.67,11.67.68,3.01,5.33,6.02,2.67,8.93-1.88,2.06,4.23,5.39,5.43,10.95.09.4.17.81.31,1.19-.21-2.86-1.44-5.89-1.49-8.68-.1-5.72,8.5-6.42,12.69-7.05,12.73-1.91,20.04,4.86,20.14,5.38.62,3.04,1.34,6.3.96,9.42l1.36-.06c.24-3.65-.27-7.11,2.28-9.86,1.23-1.33,2.48-2.67,3.43-4.22.57-.92,1.01-1.9,1.36-2.92Z"/>
              </g>
              <path class="cls-9" d="M761.4,633.21c-.56,4.57-.7,6.77-1.95,11.2-1.13,4,.06,9.45.31,13.59.36,5.78,5.12,11.92,4.38,17.65-2.82-6.97-10.74-12.14-14.96-18.58-4.12-6.29-7.08-11.38-2.95-17.66,2.56-3.89,15.21-6.55,15.17-6.2Z"/>
              <path class="cls-9" d="M785.45,651.18c1.06,12.02-1.2,14.57-2.59,26.82,2.22-8.33,7.83-12.9,12.08-20.43,4.19-7.42,5.26-16.49-2.31-20.99-.52-.31-7.78-3.3-7.72-2.66.17,1.75.08,12.05.54,17.26Z"/>
            </g>
          </g>
        </g>
        <g>
          <g>
            <path class="cls-5" d="M1066.64,912.66c13.99-14.41,33.51-22.14,53.55-21.22,38.64,1.77,68.63,34.65,66.86,73.28-.79,17.14-7.79,33.34-19.73,45.64-13.99,14.41-33.51,22.14-53.55,21.22-18.72-.86-35.98-8.95-48.61-22.79-12.63-13.84-19.11-31.77-18.25-50.49.79-17.14,7.79-33.34,19.73-45.64Z"/>
            <path class="cls-16" d="M1166.14,1009.21c-13.18,13.58-31.9,21.66-52.29,20.72-37.79-1.73-67.02-33.77-65.29-71.56.8-17.4,8.02-32.98,19.27-44.57,13.19-13.58,31.9-21.66,52.29-20.72,37.79,1.73,67.02,33.77,65.29,71.56-.8,17.4-8.02,32.98-19.27,44.57M1168.5,1011.51h0c12.22-12.59,19.39-29.18,20.19-46.71.88-19.16-5.76-37.51-18.68-51.67-12.92-14.17-30.59-22.45-49.75-23.33-20.51-.94-40.49,6.98-54.81,21.72-12.22,12.58-19.39,29.17-20.19,46.71-.88,19.16,5.76,37.51,18.68,51.67,12.92,14.17,30.59,22.45,49.75,23.33,20.51.94,40.49-6.97,54.8-21.71h0Z"/>
          </g>
          <g class="cls-8">
            <g>
              <path class="cls-16" d="M1102.99,945.97c-4.33-.2-8.85.15-10.31-5.15-2.74-9.97,3.29-24.42,12.33-29.37,3.02-1.65,6.49-2.28,9.9-2.8,4.01-.62,7.45-.66,10.94,1.43,3.22,1.93,6.56-.78,9.88,1.66,2.82,2.07,4.91,5.23,6.33,8.38,1.85,4.12,2.7,8.61,3.38,13.07.15,1.01.3,2.06.03,3.04-.23.83-.73,1.55-1.22,2.25-3.8,5.34-8.71,8.97-15.54,8.66,0,0-25.6-1.17-25.71-1.18Z"/>
              <path class="cls-16" d="M1102.91,928.63s.71,1.68-4.51,4.01c-2.91,1.3-5.04-7.27-6.05-1.13-.52,3.17-16.31,78.53-9.88,82.47,14.41,8.84,28.98-27.77,28.98-27.77l5.23-47.89-13.77-9.68Z"/>
              <path class="cls-16" d="M1136.93,925.99s6.75.05,8.27,5.71c.84,3.14,14.18,65.56,14.79,70,.58,4.26-1.16,2.54-8.06,6.1-15.44,7.96-29.13-21.87-29.13-21.87l-.75-51.03,14.88-8.91Z"/>
              <g class="cls-15">
                <rect class="cls-9" x="1105.23" y="976.66" width="23.8" height="16.98" transform="translate(-70.8 86.64) rotate(-4.31)"/>
              </g>
              <path class="cls-11" d="M1102.07,947.24s-1.58-5.59-4.42-3.88c-2.84,1.71,3.51,13.75,3.51,13.75l.91-9.86Z"/>
              <path class="cls-11" d="M1129.62,948.5s.38-8.26,4.76-3.46c4.38,4.8-5.1,10.81-5.1,10.81l.34-7.35Z"/>
              <path class="cls-9" d="M1169.42,1025.54c-2.99-18.73-7.85-33.49-9.55-34.41l-11.61,25.31s-2.46,7.59-2.72,17.14l16.03.73c4.81.22,8.61-4.03,7.85-8.78Z"/>
              <path class="cls-9" d="M1088.76,1030.98c.86-8.27.89-13.5.89-13.5l-13.6-24.53s-2.17,7.23-4.89,26.43c-.13.89-.25,1.8-.37,2.72-.56,4.31,2.69,8.17,7.03,8.37l10.94.5Z"/>
              <path class="cls-11" d="M1109.09,1031.96l16,.73,6.43-45.4s-3.63-1.11-5.17-7.63c-1.54-6.51-1.87-19.42-1.87-19.42l-16.7,2.91s1.03,17.58-3.02,25.68l4.33,43.13Z"/>
              <path class="cls-16" d="M1133.73,1033.09l3.62-28.68c-17.22,9.26-34.43,7.98-51.66,1.86l3.83,24.79,44.2,2.03Z"/>
              <path class="cls-9" d="M1113.02,1032.09c-3.87-24.18-7.92-50.63-7.92-50.63l-3.01,5.37-26.05,6.19c.99,5.93,4.09,22.28,7.26,37.71l29.72,1.36Z"/>
              <path class="cls-9" d="M1149.76,1033.77c1.71-7.27,3.18-12.95,3.18-12.95l6.93-29.7c-1.67-1.83-28.95-6.85-28.95-6.85l-2.74-4.52s-4.89,26.48-9.22,52.61l30.8,1.41Z"/>
              <path class="cls-11" d="M1100.82,934.3s-1.93,22,.66,25.8c2.59,3.8,5.88,12.23,12.27,13.44,6.39,1.21,17.33-16.69,17.37-17.61s.22-24.84.22-24.84c0,0-18.57-16.49-30.51,3.2Z"/>
              <path class="cls-16" d="M1097.32,930.46s-2.53,14.33,7.01,7.68c14.92-10.39,22.5-9.09,24.21-6.25,1.71,2.84,3.24,9.71,3.24,9.71,0,0,4.11-9.37.69-15.05-3.42-5.68-26.17-11.32-35.15,3.91Z"/>
            </g>
          </g>
        </g>
        <g>
          <g>
            <path class="cls-5" d="M942.36,1197.53c-.13-1.43-.22-2.88-.26-4.31-1.17-38.81,29.45-71.33,68.26-72.5,37.15-1.12,68.88,26.97,72.24,63.95.13,1.43.22,2.88.26,4.31,1.17,38.81-29.45,71.33-68.26,72.5-37.15,1.12-68.88-26.97-72.24-63.94Z"/>
            <path class="cls-16" d="M1080.69,1184.83c.13,1.39.21,2.79.25,4.2,1.14,37.81-28.59,69.39-66.4,70.53-36.4,1.1-67.03-26.42-70.28-62.2-.13-1.39-.21-2.79-.25-4.2-1.14-37.81,28.59-69.39,66.4-70.53,36.4-1.1,67.02,26.42,70.28,62.2M1084.51,1184.49h0c-3.45-37.99-36.05-66.84-74.2-65.69-19.31.58-37.24,8.65-50.48,22.71-13.24,14.07-20.22,32.45-19.63,51.76.04,1.47.13,2.97.27,4.43,3.45,37.98,36.05,66.83,74.2,65.68,19.31-.58,37.24-8.65,50.48-22.71,13.24-14.07,20.22-32.45,19.63-51.76-.04-1.47-.13-2.96-.27-4.43h0Z"/>
          </g>
          <g class="cls-12">
            <g>
              <path class="cls-9" d="M977.19,1259.44c.93-5.04,1.68-8.34,1.68-8.34l-20-31.66s-5.97,6.42-8.85,33.7c-.4,3.78,2.63,7.04,6.42,6.93l20.74-.63Z"/>
              <path class="cls-9" d="M1079.9,1249.11c-6-23.39-15.73-34.08-15.73-34.08l-10.72,39.82s.38.77.98,2.25l19.91-.6c3.79-.11,6.5-3.72,5.56-7.4Z"/>
              <path class="cls-9" d="M977.04,1259.44c19.78,6.61,46.34,4.8,77.17-2.33.64-3.03,1.53-6.29,2.73-10.05l7.23-32.04c-11.78-9.94-28.01-12.85-34.25-13.63-14.52-3.14-31.28.54-31.28.54-22.8,2.28-39.78,17.47-39.78,17.47l15.13,31.79c1.2,2.68,2.22,5.43,3.05,8.25Z"/>
              <path class="cls-3" d="M1001.1,1186.31v16.07c0,1.59,1.03,2.99,2.54,3.47,4.15,1.32,12.72,3.27,20.68.14,1.61-.63,2.54-2.32,2.23-4.02l-2.91-16.35-22.55.68Z"/>
              <g>
                <path class="cls-3" d="M994.34,1159.53s1.6,21.66,5.63,30.04c4.03,8.38,13.46,8.09,14.4,8.06s9.38-2.17,13.86-9.86c4.49-7.69,5.64-32.27,5.64-32.27,0,0-8.77-9.18-20.12-9.78-11.35-.6-19.55,9.09-19.41,13.8Z"/>
                <path class="cls-3" d="M1030.07,1166.29s4.13-6.62,6.36-4.52c2.23,2.1-1.67,16.3-6,16.43-4.33.13-.36-11.9-.36-11.9Z"/>
                <path class="cls-3" d="M997.64,1168.35s-5.64-7.41-7.74-5.18c-2.1,2.23,3.74,16.13,8.06,16l-.33-10.82Z"/>
                <path class="cls-16" d="M1036.47,1152.95c-.02-1.47-.15-2.98-.27-4.71-.13-1.73-.02-3.46.11-5.19.38-4.98-4.91-8.75-9.56-7.36-.36.11-.74.24-1.1.11-.44-.16-.65-.65-.83-1.07-1.16-2.67-4.15-6.07-6.91-7.13-2.37-.91-4.98-1.24-7.5-.88-5.08.74-9.65,4.28-11.64,9-.11.27-.23.55-.47.71-.22.15-.49.16-.75.17-2.55.11-5.51-.36-7.62,1.28-1.79,1.39-3.06,3.5-3.12,5.8-.07,2.51,1.08,4.87,2.26,7.09.71,1.34,1.47,2.88.97,4.31-.15.44-.41.83-.61,1.26-2.19,4.68,4.06,9.04,5.31,13.14.95,3.11,1.9,6.23,2.85,9.34.32-2.02.37-4.08.14-6.11-.32-2.79-1.16-5.54-1.14-8.35.01-2.02.42-4.03,1.29-5.86.84-1.76,2.45-2.57,3.62-4.12,1.16,1.02,2.42,2.08,3.95,2.26.96.11,1.93-.15,2.85-.47,1.39-.48,3.33-2.12,4.69-2.27,1.35-.15,1.87,1.26,2.79,1.99,2.56,2.02,6.82,2.47,9.77,1.13-.68.31,3.59,7.74,3.74,8.42.89,4,1.48,8.06,1.76,12.14.33.23.68-.27.77-.66.65-2.75.8-5.58,1.19-8.38.44-3.16,1.63-6.16,2.56-9.19.73-2.37.92-4.35.9-6.43Z"/>
              </g>
            </g>
          </g>
        </g>
        <g>
          <g>
            <path class="cls-5" d="M629.9,730.26c-.01,1.43-.07,2.87-.18,4.3-2.74,38.58-36.35,67.74-74.93,65-36.93-2.62-65.56-33.65-65.18-70.63.01-1.43.07-2.87.18-4.3,2.74-38.58,36.35-67.74,74.93-65,36.93,2.62,65.56,33.65,65.18,70.63Z"/>
            <path class="cls-16" d="M491.26,728.95c.01-1.39.07-2.79.17-4.2,2.68-37.74,35.44-66.15,73.17-63.48,36.33,2.58,64.02,33.04,63.65,68.97-.01,1.39-.07,2.79-.17,4.2-2.68,37.74-35.44,66.15-73.17,63.48-36.33-2.58-64.02-33.04-63.65-68.97M487.97,728.91l3.29.03-3.29-.03c-.39,37.86,28.91,69.61,66.71,72.29,19.13,1.36,37.64-4.81,52.12-17.38,14.49-12.57,23.21-30.02,24.57-49.15.1-1.46.16-2.94.18-4.4.39-37.85-28.91-69.61-66.71-72.29-19.13-1.36-37.64,4.81-52.12,17.38-14.49,12.57-23.21,30.02-24.57,49.15-.1,1.46-.16,2.94-.18,4.4h0Z"/>
          </g>
          <g class="cls-4">
            <g>
              <path class="cls-16" d="M546.16,713.71c-4.33-.31-8.85-.07-10.18-5.4-2.49-10.04,3.91-24.33,13.07-29.05,3.06-1.58,6.54-2.12,9.96-2.55,4.02-.51,7.46-.47,10.9,1.71,3.17,2.01,6.58-.62,9.83,1.9,2.77,2.14,4.78,5.35,6.11,8.54,1.74,4.17,2.48,8.68,3.05,13.15.13,1.01.25,2.06-.05,3.04-.25.82-.77,1.53-1.28,2.21-3.94,5.24-8.93,8.75-15.75,8.27,0,0-25.56-1.81-25.67-1.82Z"/>
              <path class="cls-16" d="M546.52,696.38s.67,1.69-4.61,3.89c-2.94,1.23-8.62,2.94-9.78,9.05-.6,3.15-2.4,10.92-5.46,11.19-7.62.67-18.13,4.66-19.73,13.74-1.83,10.42.79,16.15,6.04,17.9,3.85,1.29,4.77,2.41,3.69,6.51-1.04,3.93.96,18.42,7.29,22.53,14.18,9.2,29.67-27.03,29.67-27.03l6.42-47.75-13.52-10.03Z"/>
              <path class="cls-16" d="M580.59,694.58s-.92,1.68,4.07,4.76c2.78,1.72,8.25,4.35,8.53,10.93.14,3.4.7,8.2,3.75,8.93,7.58,1.83,15.95,9.94,16.81,24.59.66,11.18-3.34,22.84-8.88,23.91-4.07.78-3.62-1.31-3.12,3.14.48,4.27-1.23,2.51-8.21,5.89-15.64,7.57-28.58-22.59-28.58-22.59l.53-51.03,15.1-8.53Z"/>
              <path class="cls-7" d="M556.72,746.4s11.61-2.13,13.78,1.68c.78,6.13.98,12.17.98,12.17l-13.32,1.54-8.55-2.62-1.98-1.35-.25-8.62s4.63-2.26,9.34-2.8Z"/>
              <path class="cls-11" d="M545.21,714.95s-1.44-5.63-4.32-3.99c-2.88,1.64,3.17,13.83,3.17,13.83l1.16-9.84Z"/>
              <path class="cls-11" d="M572.71,716.91s.59-8.25,4.84-3.34c4.26,4.91-5.37,10.68-5.37,10.68l.52-7.34Z"/>
              <path class="cls-9" d="M610.58,794.91c-2.52-18.8-7.01-33.67-8.69-34.64l-12.24,25.01s-2.65,7.53-3.15,17.07l16.01,1.14c4.8.34,8.71-3.81,8.07-8.58Z"/>
              <path class="cls-9" d="M529.8,798.33c1.07-8.24,1.23-13.47,1.23-13.47l-12.98-24.86s-2.35,7.17-5.55,26.3c-.15.89-.29,1.79-.44,2.71-.67,4.29,2.48,8.24,6.82,8.55l10.93.78Z"/>
              <path class="cls-11" d="M550.11,799.82l15.97,1.13,7.56-45.23s-3.6-1.2-4.98-7.75c-1.38-6.55-1.38-19.46-1.38-19.46l-16.76,2.49s.59,17.6-3.66,25.6l3.25,43.23Z"/>
              <path class="cls-16" d="M574.7,801.57l4.34-28.58c-17.44,8.82-34.62,7.12-51.69.57l3.21,24.88,44.14,3.13Z"/>
              <path class="cls-9" d="M554.03,800.05c-3.26-24.27-6.65-50.82-6.65-50.82l-3.14,5.29-26.2,5.53c.84,5.96,3.53,22.37,6.31,37.88l29.68,2.11Z"/>
              <path class="cls-9" d="M590.72,802.65c1.89-7.23,3.5-12.86,3.5-12.86l7.67-29.52c-1.62-1.87-28.77-7.58-28.77-7.58l-2.62-4.59s-5.55,26.35-10.54,52.36l30.76,2.18Z"/>
              <path class="cls-11" d="M544.28,701.99s-2.48,21.94.01,25.8c2.49,3.86,5.57,12.38,11.93,13.75,6.35,1.37,17.74-16.25,17.81-17.17.07-.92.84-24.82.84-24.82,0,0-18.15-16.95-30.58,2.44Z"/>
              <path class="cls-16" d="M540.88,698.06s-4.45,10.74,6.81,7.86l11.26-2.89s11.46-5.64,13.1-2.76c1.64,2.88,2.99,9.79,2.99,9.79,0,0,4.34-9.26,1.07-15.03-3.28-5.76-25.87-11.97-35.23,3.03Z"/>
            </g>
          </g>
        </g>
        <g>
          <g>
            <path class="cls-5" d="M724.82,1333.18c-14.05-14.35-21.29-34.05-19.87-54.07,2.74-38.58,36.35-67.74,74.93-65,17.11,1.21,33.14,8.63,45.13,20.87,14.05,14.35,21.29,34.05,19.87,54.07-1.33,18.69-9.85,35.74-24,48.02-14.15,12.28-32.24,18.31-50.93,16.98-17.11-1.21-33.14-8.63-45.13-20.87Z"/>
            <path class="cls-16" d="M823.84,1236.13c13.25,13.52,20.85,32.43,19.41,52.8-2.68,37.74-35.44,66.15-73.17,63.48-17.37-1.23-32.77-8.84-44.07-20.38-13.24-13.52-20.85-32.43-19.41-52.8,2.68-37.74,35.44-66.15,73.17-63.48,17.37,1.23,32.77,8.84,44.07,20.38M826.19,1233.83h0c-12.27-12.53-28.68-20.12-46.19-21.36-19.13-1.36-37.64,4.81-52.12,17.38-14.49,12.57-23.21,30.02-24.57,49.15-1.45,20.48,5.96,40.65,20.34,55.33,12.27,12.53,28.68,20.11,46.19,21.36,19.13,1.36,37.64-4.81,52.12-17.38,14.49-12.57,23.21-30.02,24.57-49.15,1.45-20.48-5.96-40.65-20.34-55.33h0Z"/>
          </g>
          <g class="cls-10">
            <g>
              <circle class="cls-16" cx="778.89" cy="1254.75" r="22.34" transform="translate(-356.91 310.8) rotate(-18.44)"/>
              <path class="cls-16" d="M757.93,1247.01c-12.21,33.2-21.06,63.54-20.59,72.28l28.79-.99,7.76-62.46-15.96-8.83Z"/>
              <path class="cls-16" d="M789.81,1245.76l-9.36,76.36,31.11,19.51c1.18-26.24-7.42-94.49-12.77-96.68l-8.98.81Z"/>
              <polygon class="cls-11" points="786.88 1287.26 786.34 1308.2 765.88 1309.81 766.16 1287.81 786.88 1287.26"/>
              <path class="cls-11" d="M797.37,1275.37s-6.39,21.32-19.7,23c-13.31,1.67-15.75-19.02-16.34-20.54,0,0-3.03,1.18-3.49-1.79-.45-2.97-3.39-10.55,3.13-9.94,0,0-.77-7.38,1.75-10.8,2.51-3.42,7.68-11.7,16.89-8.64,9.21,3.06,23.65,12.02,17.76,28.71Z"/>
              <path class="cls-11" d="M786.52,1301.2l12.35,7.72-18.12,17.25-29.69-21.76c4.86-1.43,9.68-3.48,13.99-3.88l21.48.66Z"/>
              <path class="cls-16" d="M763.08,1246.77c-4.82,5.82-1.76,11.51-3.25,15.83,4.36-1.24,18.87-2.53,23.16-1.8,1.1-2.87-.3-7.88-.93-11.79,1.14,3.76,3.95,9.58,3.4,12.44,5.78.68,4.59.67,10.92,3.75l-3.82-18.06c-10.93-6.08-20.74-6.1-29.49-.37Z"/>
              <path class="cls-16" d="M786.16,1227.51c-.3,4.26-4.65,8.75-7.53,8.54-2.38-.17-6.55-5.26-6.25-9.52.3-4.26,3.63-7.49,7.44-7.22s6.65,3.94,6.34,8.19Z"/>
              <path class="cls-9" d="M804.8,1355.76l9.86-38.81c-9.15-7.22-17.84-10.97-28.15-15.73-3.77,6.59-18.71,4.85-21.47-.67-10.15,1.82-19.98,5.83-29.59,11.24l6.91,39.54,62.44,4.43Z"/>
              <path class="cls-9" d="M824.69,1350.19c-3.99-24.88-10.02-33.24-10.02-33.24l-12.86,31.43s1.09,2.66,2.44,7.34l14.42,1.02c3.65.26,6.6-2.95,6.02-6.56Z"/>
              <path class="cls-9" d="M743.07,1351.38c1.47-4.12,3.34-8.42,5.69-12.8l-13.31-26.79s-8.38,12.44-12.24,31.79c-.67,3.34,1.77,6.51,5.17,6.75l14.69,1.04Z"/>
              <path class="cls-16" d="M791.87,1247.49c6.15,19.49,6.1,73.23-.48,101.18,8.92-24.18,20.07-54.86,9.42-97.93l-8.93-3.25Z"/>
            </g>
          </g>
        </g>
        <g>
          <g>
            <path class="cls-5" d="M1017.98,663.18c1.43.01,2.88.07,4.32.18,18.76,1.33,35.88,9.89,48.2,24.1,12.32,14.21,18.38,32.36,17.05,51.12-2.63,37.07-33.77,65.81-70.9,65.43-1.43-.01-2.88-.07-4.32-.18-18.76-1.33-35.88-9.89-48.2-24.1-12.32-14.21-18.38-32.36-17.05-51.12,2.63-37.07,33.77-65.81,70.9-65.43Z"/>
            <path class="cls-16" d="M1016.67,802.09c-1.39-.01-2.79-.07-4.2-.17-37.74-2.68-66.15-35.44-63.48-73.17,2.58-36.33,33.04-64.02,68.97-63.65,1.39.01,2.79.07,4.2.17,37.74,2.68,66.15,35.44,63.48,73.17-2.58,36.33-33.04,64.02-68.97,63.65M1016.62,805.92h0c38.14.39,70.13-29.13,72.83-67.2,1.37-19.27-4.85-37.92-17.51-52.51-12.66-14.59-30.24-23.38-49.51-24.75-1.47-.1-2.96-.17-4.43-.18-38.14-.4-70.13,29.12-72.83,67.2-1.37,19.27,4.85,37.92,17.51,52.51,12.66,14.59,30.24,23.38,49.51,24.75,1.47.1,2.96.17,4.43.18h0Z"/>
          </g>
          <g class="cls-1">
            <g>
              <path class="cls-9" d="M975.31,798.03c1.43-4.92,2.51-8.13,2.51-8.13l-16.71-33.51s-6.59,5.79-12.2,32.64c-.78,3.72,1.9,7.27,5.69,7.54l20.7,1.47Z"/>
              <path class="cls-9" d="M1078.54,798.12c-3.61-23.88-12.22-35.49-12.22-35.49l-14.68,38.53s.3.8.75,2.34l19.87,1.41c3.79.27,6.85-3.04,6.28-6.8Z"/>
              <path class="cls-9" d="M975.16,798.02c19.01,8.57,45.62,9.45,77.01,5.47.94-2.95,2.15-6.1,3.73-9.72l10.42-31.15c-10.72-11.08-26.57-15.61-32.7-17.01-14.13-4.59-31.18-2.62-31.18-2.62-22.91-.03-41.34,13.37-41.34,13.37l11.85,33.15c.92,2.78,1.66,5.63,2.2,8.51Z"/>
              <path class="cls-11" d="M1006.47,727.69l-1.62,15.99c-.16,1.58.72,3.08,2.18,3.71,3.99,1.74,12.32,4.54,20.56,2.23,1.66-.47,2.76-2.06,2.63-3.78l-1.25-16.56-22.5-1.6Z"/>
              <g>
                <path class="cls-11" d="M1002.45,700.37s-.6,21.72,2.57,30.45c3.16,8.74,12.58,9.41,13.52,9.47s9.55-1.21,14.79-8.41c5.24-7.2,8.86-31.53,8.86-31.53,0,0-7.8-10.01-19.03-11.76-11.23-1.74-20.37,7.07-20.7,11.77Z"/>
                <path class="cls-11" d="M1037.32,710.69s4.78-6.17,6.79-3.86c2.01,2.31-3.31,16.05-7.63,15.74-4.32-.31.84-11.88.84-11.88Z"/>
                <path class="cls-11" d="M1004.85,709.48s-4.86-7.94-7.18-5.94c-2.31,2.01,2.09,16.43,6.41,16.73l.77-10.8Z"/>
                <path class="cls-16" d="M1045.03,698.06c.13-1.46.15-2.98.2-4.71.05-1.8.9-35.65-36.5-15.55-.24.13-17.02-2.33-10.64,13.33.57,1.41,1.17,3.01.53,4.39-.2.42-.5.79-.73,1.19-2.65,4.44,3.13,9.4,3.96,13.61.63,3.19,1.26,6.39,1.89,9.58.52-1.97.78-4.02.75-6.06-.03-2.81-.59-5.63-.3-8.42.22-2.01.82-3.97,1.88-5.7,1.01-1.66,2.7-2.31,4.02-3.74,1.05,1.13,2.2,2.32,3.71,2.65.95.21,1.94.05,2.88-.18,1.43-.34,3.53-1.78,4.89-1.79,1.36-.01,1.73,1.44,2.57,2.26,2.34,2.27,6.54,3.15,9.61,2.11-.71.24,2.79,8.06,2.88,8.75.48,4.07.66,8.17.53,12.26.31.26.7-.2.83-.57.93-2.67,1.36-5.48,2.03-8.22.76-3.1,2.24-5.96,3.47-8.89.96-2.28,1.36-4.24,1.54-6.3Z"/>
              </g>
            </g>
          </g>
        </g>
        <g>
          <g>
            <path class="cls-5" d="M550.08,1256.23c-1.42-.1-2.86-.25-4.28-.43-38.34-5.06-65.42-40.38-60.35-78.72,4.85-36.71,37.55-63.41,74.44-60.79,1.42.1,2.86.25,4.28.43,38.34,5.06,65.42,40.38,60.35,78.72-4.85,36.71-37.55,63.41-74.44,60.79Z"/>
            <path class="cls-16" d="M559.77,1117.92c1.39.1,2.78.24,4.18.42,37.5,4.95,63.89,39.37,58.94,76.88-4.77,36.1-36.85,61.91-72.69,59.36-1.39-.1-2.78-.24-4.18-.42-37.5-4.95-63.89-39.37-58.94-76.88,4.77-36.1,36.85-61.9,72.69-59.36M560,1114.64l-.23,3.28.23-3.28c-37.77-2.68-71.23,24.65-76.19,62.22-2.51,19.01,2.53,37.86,14.2,53.08,11.67,15.22,28.56,24.98,47.57,27.49,1.45.19,2.93.34,4.38.44,37.76,2.68,71.23-24.65,76.19-62.22,2.51-19.01-2.53-37.86-14.2-53.08-11.67-15.22-28.56-24.98-47.57-27.49-1.45-.19-2.93-.34-4.38-.44h0Z"/>
          </g>
          <g>
            <path class="cls-16" d="M542.37,1169.58c-4.3-.57-8.83-.61-9.83-6.01-1.88-10.17,5.37-24.05,14.8-28.21,3.15-1.39,6.66-1.72,10.1-1.95,4.05-.27,7.48-.02,10.78,2.36,3.04,2.2,6.6-.22,9.7,2.49,2.63,2.31,4.23,5.71,5.59,8.89,5.04,11.83-2.43,20.27-2.99,20.92-4.25,4.99-5.85,5.76-12.63,4.87,0,0-25.4-3.36-25.52-3.37Z"/>
            <path class="cls-9" d="M550.94,1202.86s11.72-1.42,13.65,2.51c.41,6.16.24,12.21.24,12.21l-13.38.73-8.37-3.13-1.9-1.46.27-8.62s4.76-1.98,9.49-2.23Z"/>
            <path class="cls-3" d="M541.34,1170.77s-1.1-5.71-4.08-4.25c-2.97,1.46,2.33,14,2.33,14l1.75-9.75Z"/>
            <path class="cls-3" d="M568.68,1174.38s1.08-8.2,5.04-3.04c3.95,5.16-6,10.33-6,10.33l.96-7.29Z"/>
            <path class="cls-9" d="M600.02,1238.73c-4.32,3.72-9.09,6.89-14.19,9.44-2.2,1.1-4.46,2.08-6.77,2.94.06-.27.13-.53.2-.78,1.11-4.08,2.2-6.66,2.2-6.66l13.73-24.23c1.1.72,3.12,7.98,4.72,18.53.04.25.08.51.11.77Z"/>
            <path class="cls-9" d="M522.03,1246.74c.02-.13.04-.25.06-.38.65-4.2.88-6.67.88-6.67l-2.6-5.81-8.83-19.74-.02-.05s-2.18,5.5-5.7,19.87c-.01.07-.03.13-.05.2,2.62,2.75,5.47,5.28,8.53,7.57,2.2,1.64,4.5,3.16,6.9,4.54l.82.47Z"/>
            <path class="cls-3" d="M567.26,1213.19l-4.74,20.62-4.81,20.9-.14.6c-2.05.07-4.12.04-6.21-.08-1.67-.1-3.35-.26-5.04-.48-.49-.06-.97-.13-1.44-.21-1.29-.19-2.55-.42-3.81-.69v-.51s-.27-18.65-.27-18.65l-.32-22.25c.27-.45.54-.94.78-1.45h0c.18-.37.35-.73.51-1.12.69-1.66,1.26-3.56,1.74-5.52.86-3.57,1.38-7.37,1.7-10.49.4-3.9.48-6.75.48-6.75l16.88-1.47s-.14,2.28-.23,5.41c-.1,3.8-.13,8.84.25,12.62.06.53.11,1.02.18,1.49.21,1.41.54,2.59.91,3.56.35.89.75,1.62,1.15,2.2,1.21,1.78,2.44,2.27,2.44,2.27Z"/>
            <path class="cls-16" d="M522.03,1246.74c5.84,3.24,12.23,5.67,19.04,7.11,1.26.27,2.52.49,3.81.69.48.08.96.15,1.44.21,1.69.22,3.37.38,5.04.48,2.08.12,4.16.15,6.21.08,3.03-.1,6.02-.39,8.96-.88l.14-.66,4.94-23.02c-3.05,1.32-6.09,2.33-9.09,3.07-1.97.49-3.92.85-5.87,1.11-4.43.58-8.81.59-13.16.12-.9-.09-1.8-.21-2.69-.35-7.03-1.08-13.96-3.38-20.82-6.5l.39,5.69.81,11.98.03.41.82.47Z"/>
            <path class="cls-9" d="M522.03,1246.74c5.84,3.24,12.23,5.67,19.04,7.11,1.26.27,2.52.49,3.81.69-.01-.18-.03-.35-.04-.53-.47-6.4-.93-12.89-1.35-18.96-.56-8-1.06-15.27-1.43-20.64-.12-1.72-.22-3.24-.3-4.53-.19-2.82-.3-4.54-.32-4.73,0-.02,0-.02,0-.02l-3.46,5.09-26.45,3.94h-.03c.37,4.6,1.45,15.38,2.76,27.21.01.12.03.25.04.37,2.2,1.64,4.5,3.16,6.9,4.54l.82.47Z"/>
            <path class="cls-9" d="M595.18,1219.43l-9.07,27.85-.29.88c-2.2,1.1-4.46,2.08-6.77,2.94-4.02,1.49-8.21,2.61-12.52,3.33-2.94.49-5.93.78-8.96.88-2.05.07-4.12.04-6.21-.08.04-.19.09-.37.14-.55,1.73-6.78,3.5-13.53,5.14-19.75,1.71-6.46,3.28-12.35,4.57-17.15,1.03-3.8,1.87-6.9,2.45-9.06.58-2.13.91-3.32.91-3.32v.02s2.34,4.72,2.34,4.72c0,0,26.75,7.34,28.26,9.3Z"/>
            <path class="cls-3" d="M541.2,1157.77s-3.8,21.75-1.55,25.76c2.25,4.01,4.81,12.69,11.07,14.44,6.26,1.75,18.69-15.15,18.81-16.06s2.34-24.73,2.34-24.73c0,0-17.09-18.02-30.68.58Z"/>
            <path class="cls-16" d="M538.04,1153.64s-5.09,10.45,6.33,8.25l11.42-2.2s11.78-4.93,13.24-1.96c1.46,2.97,2.39,9.95,2.39,9.95,0,0,4.9-8.99,1.97-14.93-2.92-5.95-25.1-13.52-35.35.89Z"/>
          </g>
          <path class="cls-6" d="M623.21,1195.81c-2.29,17.36-10.89,32.33-23.19,42.92-4.32,3.72-9.09,6.89-14.19,9.44-2.2,1.1-4.46,2.08-6.77,2.94-4.02,1.49-8.21,2.61-12.52,3.33-2.94.49-5.93.78-8.96.88-2.05.07-4.12.04-6.21-.08-1.67-.1-3.35-.26-5.04-.48-.49-.06-.97-.13-1.44-.21-1.29-.19-2.55-.42-3.81-.69-6.82-1.44-13.21-3.87-19.04-7.11-.27-.16-.55-.31-.82-.47-2.4-1.38-4.71-2.9-6.9-4.54-3.06-2.29-5.91-4.83-8.53-7.57-4.14-4.33-7.7-9.2-10.57-14.46-.1-.17-.19-.33-.28-.5-6.56-12.21-9.48-26.53-7.53-41.33,4.95-37.51,39.37-63.89,76.87-58.94,22.27,2.94,40.62,16.27,50.82,34.46.04.08.08.15.13.22,6.89,12.4,10,27.04,8,42.19Z"/>
        </g>
        <g>
          <g>
            <path class="cls-5" d="M519.56,1005.95c-14.35,14.05-34.05,21.29-54.07,19.87-18.69-1.33-35.74-9.85-48.02-24-12.28-14.15-18.31-32.24-16.98-50.93,1.21-17.11,8.63-33.14,20.87-45.13,14.35-14.05,34.05-21.29,54.07-19.87,18.69,1.33,35.74,9.85,48.02,24,12.28,14.15,18.31,32.24,16.98,50.93-1.21,17.11-8.63,33.14-20.87,45.13Z"/>
            <path class="cls-16" d="M422.51,906.94c13.52-13.25,32.43-20.85,52.8-19.41,37.74,2.68,66.15,35.44,63.48,73.17-1.23,17.37-8.84,32.77-20.38,44.07-13.52,13.24-32.43,20.85-52.8,19.41-37.74-2.68-66.15-35.44-63.48-73.17,1.23-17.37,8.84-32.77,20.38-44.07M420.21,904.58h0c-12.53,12.28-20.11,28.68-21.36,46.19-1.36,19.13,4.82,37.64,17.38,52.12,12.57,14.49,30.02,23.21,49.15,24.57,20.48,1.45,40.65-5.96,55.33-20.34,12.53-12.27,20.11-28.68,21.36-46.19,1.36-19.13-4.81-37.64-17.38-52.12-12.57-14.49-30.02-23.21-49.15-24.57-20.48-1.45-40.65,5.96-55.33,20.34h0Z"/>
          </g>
          <g class="cls-2">
            <g>
              <circle class="cls-16" cx="474.43" cy="926.53" r="22.34" transform="translate(-268.72 197.65) rotate(-18.44)"/>
              <path class="cls-16" d="M453.47,918.79c-12.21,33.2-21.06,63.54-20.59,72.28l28.79-.99,7.76-62.46-15.96-8.83Z"/>
              <path class="cls-16" d="M485.35,917.53l-9.36,76.36,31.11,19.51c1.18-26.24-7.42-94.49-12.77-96.68l-8.98.81Z"/>
              <polygon class="cls-3" points="482.41 959.04 481.87 979.98 461.41 981.59 461.69 959.59 482.41 959.04"/>
              <path class="cls-3" d="M492.91,947.15s-6.39,21.32-19.7,23c-13.31,1.67-15.75-19.02-16.34-20.54,0,0-3.03,1.18-3.49-1.79-.45-2.97-3.39-10.55,3.13-9.94,0,0-.77-7.38,1.75-10.8,2.51-3.42,7.68-11.7,16.89-8.64,9.21,3.06,23.65,12.02,17.76,28.71Z"/>
              <path class="cls-3" d="M482.05,972.98l12.35,7.72-18.12,17.25-29.69-21.76c4.86-1.43,9.68-3.48,13.99-3.88l21.48.66Z"/>
              <path class="cls-16" d="M458.62,918.55c-4.82,5.82-1.76,11.51-3.25,15.83,4.36-1.24,18.87-2.53,23.16-1.8,1.1-2.87-.3-7.88-.93-11.79,1.14,3.76,3.95,9.58,3.4,12.44,5.78.68,4.59.67,10.92,3.75l-3.82-18.06c-10.93-6.08-20.74-6.1-29.49-.37Z"/>
              <path class="cls-9" d="M500.34,1027.54l9.86-38.81c-9.15-7.22-17.84-10.97-28.15-15.73-3.77,6.59-18.71,4.85-21.47-.67-10.15,1.82-19.98,5.83-29.59,11.24l6.91,39.54,62.44,4.43Z"/>
              <path class="cls-9" d="M520.22,1021.96c-3.99-24.88-10.02-33.24-10.02-33.24l-12.86,31.43s1.09,2.66,2.44,7.34l14.42,1.02c3.65.26,6.6-2.95,6.02-6.56Z"/>
              <path class="cls-9" d="M438.61,1023.16c1.47-4.12,3.34-8.42,5.69-12.8l-13.31-26.79s-8.38,12.44-12.24,31.79c-.67,3.34,1.77,6.51,5.17,6.75l14.69,1.04Z"/>
            </g>
          </g>
        </g>
      </g>
      <g>
        <path class="cls-5" d="M857.45,874.49h-155.92c-14.12,0-25.6,11.49-25.6,25.6v98.17c0,14.12,11.49,25.6,25.6,25.6h155.92c14.12,0,25.6-11.49,25.6-25.6v-98.17c0-14.12-11.49-25.6-25.6-25.6ZM872.9,900.09v98.17c0,2.28-.5,4.44-1.39,6.39l-63.34-55.48,63.34-55.48c.89,1.95,1.39,4.11,1.39,6.39ZM857.45,884.64c2.32,0,4.52.52,6.5,1.44l-79.62,69.73c-2.76,2.42-6.92,2.42-9.68,0l-79.62-69.73c1.98-.92,4.18-1.44,6.5-1.44h155.92ZM687.47,1004.65c-.89-1.95-1.39-4.11-1.39-6.39v-98.17c0-2.28.5-4.44,1.39-6.39l63.35,55.48-63.35,55.48ZM701.53,1013.72c-2.32,0-4.52-.52-6.5-1.44l63.92-55.98,8.64,7.57c3.39,2.97,7.65,4.46,11.9,4.46s8.51-1.49,11.9-4.46l8.64-7.57,63.91,55.98c-1.98.92-4.18,1.44-6.5,1.44h-155.92Z"/>
        <g>
          <path class="cls-11" d="M791.39,963.87c-3.39,2.97-7.65,4.46-11.9,4.46s-8.51-1.49-11.9-4.46l-8.64-7.57-63.92,55.98c1.98.92,4.18,1.44,6.5,1.44h155.92c2.32,0,4.52-.52,6.5-1.44l-63.91-55.98-8.64,7.57Z"/>
          <path class="cls-11" d="M687.47,893.7c-.89,1.95-1.39,4.11-1.39,6.39v98.17c0,2.28.5,4.44,1.39,6.39l63.35-55.48-63.34-55.48Z"/>
          <path class="cls-11" d="M784.33,955.8l79.62-69.73c-1.98-.92-4.18-1.44-6.5-1.44h-155.92c-2.32,0-4.52.52-6.5,1.44l79.62,69.73c2.76,2.42,6.92,2.42,9.68,0Z"/>
          <path class="cls-11" d="M808.17,949.18l63.34,55.48c.89-1.95,1.39-4.11,1.39-6.39v-98.17c0-2.28-.5-4.44-1.39-6.39l-63.34,55.48Z"/>
        </g>
      </g>
    </g>
  </g>
</svg>