<?xml version="1.0" encoding="UTF-8"?>
<svg id="Layer_2" data-name="Layer 2" xmlns="http://www.w3.org/2000/svg" xmlns:xlink="http://www.w3.org/1999/xlink" viewBox="0 0 1863.75 1809.37">
  <defs>
    <style>
      .cls-1 {
        fill: #d48933;
      }

      .cls-2 {
        fill: url(#linear-gradient-2);
      }

      .cls-3, .cls-4, .cls-5 {
        fill: #fff;
      }

      .cls-6 {
        fill: url(#linear-gradient-4);
      }

      .cls-4 {
        opacity: .78;
      }

      .cls-7 {
        fill: url(#linear-gradient-3);
      }

      .cls-8 {
        fill: url(#linear-gradient-5);
      }

      .cls-9 {
        fill: #a67cff;
      }

      .cls-10 {
        fill: url(#linear-gradient-8);
      }

      .cls-11 {
        fill: #f8b365;
      }

      .cls-12 {
        fill: url(#linear-gradient-7);
      }

      .cls-13 {
        fill: url(#linear-gradient-6);
      }

      .cls-14 {
        fill: #91b3fa;
      }

      .cls-15 {
        fill: none;
        stroke: #2b2f5c;
        stroke-dasharray: 13.31;
        stroke-miterlimit: 10;
        stroke-width: 6.66px;
      }

      .cls-5 {
        opacity: .6;
      }

      .cls-16 {
        fill: #2b2f5c;
      }

      .cls-17 {
        fill: #292f5c;
      }

      .cls-18 {
        fill: #bdd0fb;
      }

      .cls-19 {
        fill: #8563cc;
      }

      .cls-20 {
        fill: #6e51a8;
      }

      .cls-21 {
        fill: url(#linear-gradient);
      }
    </style>
    <linearGradient id="linear-gradient" x1="406.23" y1="1141.91" x2="598.08" y2="919.23" gradientTransform="translate(823.12 -157.73) rotate(45)" gradientUnits="userSpaceOnUse">
      <stop offset="0" stop-color="#4f3c6e"/>
      <stop offset="1" stop-color="#635498"/>
    </linearGradient>
    <linearGradient id="linear-gradient-2" x1="1328.22" y1="674.45" x2="1310.82" y2="811.56" gradientTransform="translate(1875.02 -573.57) rotate(76.72)" gradientUnits="userSpaceOnUse">
      <stop offset="0" stop-color="#ff928e"/>
      <stop offset="1" stop-color="#fe7062"/>
    </linearGradient>
    <linearGradient id="linear-gradient-3" x1="929.85" y1="578.76" x2="902.68" y2="878.44" gradientTransform="translate(20.89 -11.91) rotate(.13)" gradientUnits="userSpaceOnUse">
      <stop offset="0" stop-color="#fdfeff"/>
      <stop offset="1" stop-color="#292f5c"/>
    </linearGradient>
    <linearGradient id="linear-gradient-4" x1="930.64" y1="578.83" x2="903.47" y2="878.52" xlink:href="#linear-gradient-3"/>
    <linearGradient id="linear-gradient-5" x1="929.14" y1="578.69" x2="901.97" y2="878.38" xlink:href="#linear-gradient-3"/>
    <linearGradient id="linear-gradient-6" x1="929.95" y1="578.77" x2="902.78" y2="878.45" xlink:href="#linear-gradient-3"/>
    <linearGradient id="linear-gradient-7" x1="1324.6" y1="24.05" x2="1135.95" y2="287.23" gradientTransform="translate(20.89 -11.91) rotate(.13)" gradientUnits="userSpaceOnUse">
      <stop offset="0" stop-color="#4f436b"/>
      <stop offset="1" stop-color="#6b5c8e"/>
    </linearGradient>
    <linearGradient id="linear-gradient-8" x1="1298.41" y1="5.27" x2="1109.76" y2="268.45" xlink:href="#linear-gradient-7"/>
  </defs>
  <g id="Layer_1-2" data-name="Layer 1">
    <g>
      <g>
        <path class="cls-9" d="M1007.64,1331.44l78.85-151.07h-16.16c-2.98,0-4.62-3.46-2.73-5.77l84.04-102.43c3.64-4.44,10.84-1.62,10.5,4.11l-5.91,100.16c-.34,5.73-5.42,10.01-11.13,9.35l-11.26-1.29-78.24,169.44c-2.04,4.41-6.45,7.24-11.31,7.24h-27.12l-9.55-29.75Z"/>
        <path class="cls-16" d="M942.44,1225.49l55.67,123.66c3.3,7.32,10.58,12.03,18.62,12.03h28.7c3.81,0,7.32-2.07,9.16-5.4l1.02-1.84h0c-3.08,0-5.91-1.73-7.31-4.48l-74.17-145.33-31.69,21.34Z"/>
        <path class="cls-9" d="M981.62,1218.83h0c-5.58-4.41-13.74-3.11-17.68,2.81l-81.85,122.97c-6.56,9.85-17.6,15.77-29.43,15.77h-11.52l-9.37-27s76.09-116.67,95.7-134.32c0,0,19.53-17.6,38.79-4.29,5.09,3.52,8.95,8.53,11.31,14.25l4.05,9.82Z"/>
        <path class="cls-16" d="M742.75,1260.76s13.7-17.13,40.25-19.79c0,0,12.61,4.3,37.73,49.31,25.12,45.01,41.8,65.54,61.36,54.33l-1.62,2.69c-5.34,8.86-14.93,14.28-25.28,14.28h-10.82c-11.92,0-23.1-5.73-30.06-15.4-19.55-27.18-59.56-81.21-71.57-85.42Z"/>
        <path class="cls-3" d="M1152.67,1108.02s-.06,0-.1,0c-.46-.05-.8-.47-.74-.94l.55-4.89c.05-.46.47-.8.94-.74.46.05.8.47.74.94l-.55,4.89c-.05.43-.41.75-.84.75Z"/>
        <path class="cls-3" d="M1082.51,1169.76c-.18,0-.36-.06-.52-.18-.37-.28-.44-.82-.15-1.19l69.4-90.17c.82-1.07,2.22-1.45,3.47-.94,1.25.51,1.99,1.75,1.84,3.09l-1.22,10.81c-.05.46-.47.8-.94.74-.46-.05-.8-.47-.74-.94l1.22-10.81c.08-.71-.36-1.16-.79-1.33-.44-.18-1.06-.16-1.5.41l-69.4,90.17c-.17.22-.42.33-.67.33Z"/>
        <path class="cls-3" d="M925.07,1264.29c-.16,0-.33-.05-.47-.14-.39-.26-.49-.79-.23-1.17l35.89-53.2c1.3-1.93,3.46-2.98,5.78-2.8,2.32.18,4.3,1.54,5.29,3.64.2.42.02.93-.4,1.13-.42.2-.93.02-1.13-.4-.73-1.55-2.19-2.55-3.89-2.68-1.71-.13-3.29.64-4.25,2.06l-35.89,53.2c-.16.24-.43.37-.7.37Z"/>
        <path class="cls-3" d="M915.75,1278.12c-.16,0-.33-.05-.47-.14-.39-.26-.49-.79-.23-1.17l2.3-3.41c.26-.39.79-.49,1.17-.23.39.26.49.79.23,1.17l-2.3,3.41c-.16.24-.43.37-.7.37Z"/>
      </g>
      <g>
        <circle class="cls-21" cx="601.96" cy="914.73" r="143.03" transform="translate(-470.5 693.57) rotate(-45)"/>
        <circle class="cls-9" cx="601.96" cy="914.73" r="138.28" transform="translate(-470.5 693.57) rotate(-45)"/>
        <path class="cls-5" d="M487.94,859.87c-.39,0-.79-.09-1.16-.28-1.27-.64-1.78-2.2-1.14-3.47,22.3-44.18,66.87-71.62,116.33-71.62,7.89,0,15.79.71,23.49,2.12,1.4.25,2.33,1.6,2.08,3-.26,1.4-1.59,2.34-3,2.07-7.39-1.35-14.98-2.03-22.57-2.03-47.49,0-90.3,26.36-111.72,68.79-.45.9-1.36,1.42-2.31,1.42Z"/>
        <circle class="cls-4" cx="604.97" cy="917.74" r="117.03" transform="translate(-428.21 1292.94) rotate(-76.57)"/>
        <path class="cls-9" d="M593.49,1004.75v-12.73c-13.27-.53-26.4-3.66-35.73-7.75-3.33-1.46-5.03-5.19-4.07-8.7l3.23-11.86c1.19-4.35,5.92-6.6,10.08-4.86,9.25,3.88,20.67,6.95,32.99,6.95s22.32-4.33,22.32-13.22c0-8.02-7.37-12.78-25.14-17.55-25.35-6.93-43.56-17.99-43.56-40.31,0-20.15,14.74-35.54,40.3-39.65v-12.73c0-4.1,3.32-7.42,7.42-7.42h7.48c4.1,0,7.42,3.32,7.42,7.42v11.43c12.28.49,21.22,2.59,28.32,5.09,3.64,1.28,5.62,5.19,4.61,8.91l-2.97,10.97c-1.15,4.23-5.67,6.55-9.77,5-6.53-2.47-15.77-5.04-27.77-5.04-15.17,0-19.5,6.28-19.5,11.92,0,6.93,9.1,11.7,28.82,17.77,28.17,8.45,39.87,20.15,39.87,41.17,0,19.29-14.3,36.62-42.04,40.96v14.25c0,4.1-3.32,7.42-7.42,7.42h-7.48c-4.1,0-7.42-3.32-7.42-7.42Z"/>
      </g>
      <g>
        <g>
          <circle class="cls-18" cx="1299.88" cy="897.81" r="162.61" transform="translate(-254.12 1182.12) rotate(-45)"/>
          <g>
            <circle class="cls-9" cx="1299.88" cy="897.81" r="138.78"/>
            <path class="cls-3" d="M1299.88,1043.54c-80.36,0-145.73-65.37-145.73-145.73s65.38-145.73,145.73-145.73,145.73,65.37,145.73,145.73-65.38,145.73-145.73,145.73ZM1299.88,759.03c-76.52,0-138.78,62.26-138.78,138.78s62.26,138.78,138.78,138.78,138.78-62.26,138.78-138.78-62.26-138.78-138.78-138.78Z"/>
          </g>
          <g>
            <circle class="cls-9" cx="1299.88" cy="897.81" r="84.61" transform="translate(-254.12 1182.12) rotate(-45)"/>
            <path class="cls-3" d="M1299.88,989.37c-50.49,0-91.56-41.07-91.56-91.56s41.07-91.56,91.56-91.56,91.56,41.07,91.56,91.56-41.07,91.56-91.56,91.56ZM1299.88,820.15c-42.82,0-77.66,34.84-77.66,77.66s34.84,77.66,77.66,77.66,77.66-34.84,77.66-77.66-34.84-77.66-77.66-77.66Z"/>
          </g>
          <g>
            <circle class="cls-2" cx="1299.88" cy="897.81" r="32.78" transform="translate(127.43 1956.64) rotate(-76.72)"/>
            <path class="cls-3" d="M1299.88,937.54c-21.91,0-39.73-17.82-39.73-39.73s17.82-39.73,39.73-39.73,39.73,17.82,39.73,39.73-17.82,39.73-39.73,39.73ZM1299.88,871.98c-14.24,0-25.83,11.59-25.83,25.83s11.59,25.83,25.83,25.83,25.83-11.59,25.83-25.83-11.59-25.83-25.83-25.83Z"/>
          </g>
        </g>
        <g>
          <rect class="cls-16" x="1388.95" y="717.72" width="4.88" height="184.9" transform="translate(1802.4 2366.9) rotate(-135)"/>
          <path class="cls-16" d="M1326.74,865.48c1.98-1.98,11.32,7.36,9.34,9.34l-34.63,27.23c-1.28,1.01-2.94-.65-1.93-1.93l27.23-34.63Z"/>
          <path class="cls-14" d="M1458.41,746.6l17.59,1.75-24.15,24.15c-7.91,7.91-18.95,11.86-30.09,10.75h0l36.64-36.64Z"/>
          <path class="cls-14" d="M1454.96,743.15l-1.75-17.59-24.15,24.15c-7.91,7.91-11.86,18.95-10.75,30.09h0l36.64-36.64Z"/>
        </g>
      </g>
      <g>
        <path class="cls-17" d="M982.15,620.04c-.13-1.7-1.86-3.17-4.79-4.35,3.19-1.75,4.96-3.63,4.81-5.48-.44-5.59-18.14-8.77-39.53-7.09-21.39,1.68-38.38,7.57-37.94,13.16.13,1.7,1.86,3.17,4.79,4.35-3.19,1.75-4.96,3.63-4.81,5.48.13,1.7,1.86,3.17,4.79,4.35-3.19,1.75-4.96,3.63-4.81,5.48.13,1.7,1.86,3.17,4.79,4.35-3.19,1.75-4.96,3.63-4.81,5.48.19,2.47,3.77,4.47,9.54,5.79-.08,1.83-.04,3.83.13,6.04.81,10.3,12.38,18.41,27.71,18.44,15.33.03,28.62-10.95,28.79-21.28.04-2.53-.06-4.76-.28-6.74,7.34-2.43,11.81-5.41,11.58-8.32-.13-1.7-1.86-3.17-4.79-4.35,3.19-1.75,4.96-3.63,4.81-5.48-.13-1.7-1.86-3.17-4.79-4.35,3.19-1.75,4.96-3.63,4.81-5.48Z"/>
        <g>
          <path class="cls-7" d="M932.63,653.82c-6.35-.01-12.16-.49-16.96-1.43-.28-.05-.46-.32-.41-.6.05-.28.32-.46.6-.41,7.51,1.46,17.55,1.8,28.26.96,8.77-.69,16.97-2.08,23.71-4.03.27-.08.56.08.64.35.08.27-.08.56-.35.64-6.81,1.97-15.08,3.38-23.92,4.07-3.98.31-7.87.46-11.57.45Z"/>
          <path class="cls-6" d="M932.76,643.99c-8.25-.02-15.63-.81-20.83-2.3-.27-.08-.43-.36-.35-.64.08-.27.36-.43.64-.35,7.41,2.13,19.34,2.81,31.93,1.82,12.45-.98,24.06-3.47,31.06-6.69.26-.12.56,0,.68.25.12.26,0,.56-.25.68-7.11,3.26-18.85,5.79-31.41,6.78-3.92.31-7.78.45-11.47.44Z"/>
          <path class="cls-8" d="M932.68,634.16c-8.91-.02-16.71-.95-21.95-2.69-.27-.09-.42-.38-.33-.65.09-.27.38-.42.65-.33,7.3,2.42,19.68,3.24,33.12,2.19,12.45-.98,24.06-3.47,31.06-6.69.26-.12.56,0,.68.25.12.26,0,.56-.25.68-7.11,3.26-18.85,5.79-31.41,6.78-3.98.31-7.87.46-11.57.45Z"/>
          <path class="cls-13" d="M932.77,624.33c-7.07-.02-13.5-.6-18.49-1.72-.28-.06-.45-.34-.39-.61.06-.28.34-.45.61-.39,7.51,1.69,18.33,2.14,29.69,1.25,12.34-.97,23.89-3.44,30.91-6.61.26-.12.56,0,.68.26.12.26,0,.56-.26.68-7.12,3.22-18.8,5.73-31.25,6.7-3.93.31-7.81.46-11.5.45Z"/>
        </g>
        <path class="cls-11" d="M890.45,570.21c-2.58-9.21-6.97-17.82-12.9-25.32-12.7-16.08-33.4-48.76-35.85-93.31-3.57-64.8,53.96-97.11,106.39-92.59,52.43,4.52,104.08,43.68,98.28,103.95-3.57,37.08-24.39,65.17-39.88,81.29-9.84,10.24-16.87,22.79-20.69,36.46-4.68,16.74-15.76,37.58-42,38.79-33.95,1.57-47.98-30.11-53.35-49.27Z"/>
        <path class="cls-12" d="M952.5,606.58l18.62-119.29c.38-2.46,1.6-4.12,2.72-3.69,1.12.43,1.71,2.77,1.33,5.23-.01.07-.02.15-.04.21l-21.17,118.18c-.16.89-.61,1.45-1.01,1.25-.39-.19-.58-1.03-.45-1.89Z"/>
        <path class="cls-10" d="M933.45,607.49l-18.08-119.37c-.37-2.47-1.58-4.12-2.7-3.7-1.12.42-1.72,2.76-1.35,5.23,0,.07.02.15.03.21l20.63,118.27c.15.89.61,1.45,1.01,1.26.39-.19.59-1.03.46-1.89Z"/>
        <path class="cls-3" d="M971,477.04c-.46-.75-1.54-1.03-2.41-.63l-10.23,4.75-3.52-10.11c-.19-.53-.62-1-1.24-1.25-1.17-.49-2.58-.06-3.14.96l-.02.03-8.44,15.3-7.75-21.82v-.04c-.2-.53-.6-1.01-1.19-1.33-1.31-.72-3.03-.38-3.86.75l-11.78,16.14c-.48.66-.32,1.55.41,2.04.77.52,1.89.41,2.5-.27l10.37-11.51,9.26,20.77v.02c.16.33.44.62.83.81.87.41,1.96.13,2.44-.62l9.02-14.4,3.37,7.3.03.06c.02.05.05.1.08.16.46.75,1.54,1.03,2.4.63l12.14-5.64c.87-.4,1.19-1.34.73-2.09Z"/>
        <path class="cls-3" d="M1006.92,528.84c-.48,0-.97-.15-1.39-.46-1.03-.77-1.24-2.23-.47-3.26,3.13-4.2,6.01-8.54,8.54-12.91.65-1.11,2.07-1.49,3.18-.84,1.11.65,1.49,2.07.84,3.18-2.62,4.52-5.59,9.01-8.83,13.36-.46.61-1.16.94-1.87.94Z"/>
        <path class="cls-3" d="M1022.07,502.97c-.31,0-.62-.06-.93-.19-1.18-.52-1.72-1.89-1.2-3.07,19.49-44.6,2.85-82.12,2.68-82.49-.53-1.17-.02-2.55,1.15-3.08,1.17-.53,2.55-.02,3.08,1.15.73,1.6,17.66,39.8-2.65,86.29-.38.88-1.24,1.4-2.14,1.4Z"/>
      </g>
      <g>
        <path class="cls-3" d="M1602.49,576c-67.67,0-131.3-26.35-179.15-74.21-47.85-47.85-74.21-111.47-74.21-179.15,0-67.67,26.35-131.3,74.21-179.15,47.85-47.85,111.47-74.21,179.15-74.21s131.3,26.35,179.15,74.21,74.21,111.47,74.21,179.15c0,67.67-26.35,131.3-74.21,179.15-47.85,47.85-111.47,74.21-179.15,74.21Z"/>
        <path class="cls-16" d="M1602.49,74.46c137.07,0,248.19,111.12,248.19,248.19s-111.12,248.19-248.19,248.19c-137.07,0-248.19-111.12-248.19-248.19,0-137.07,111.12-248.19,248.19-248.19M1602.49,64.13c-34.9,0-68.75,6.84-100.63,20.32-30.79,13.02-58.43,31.66-82.17,55.4-23.74,23.74-42.38,51.38-55.4,82.17-13.48,31.88-20.32,65.73-20.32,100.63s6.84,68.75,20.32,100.63c13.02,30.79,31.66,58.43,55.4,82.17,23.74,23.74,51.38,42.38,82.17,55.4,31.88,13.48,65.73,20.32,100.63,20.32s68.75-6.84,100.63-20.32c30.78-13.02,58.43-31.66,82.17-55.4,23.74-23.74,42.38-51.38,55.4-82.17,13.48-31.88,20.32-65.73,20.32-100.63s-6.84-68.75-20.32-100.63c-13.02-30.79-31.66-58.43-55.4-82.17-23.74-23.74-51.38-42.38-82.17-55.4-31.88-13.48-65.73-20.32-100.63-20.32h0Z"/>
      </g>
      <g>
        <path class="cls-11" d="M1289.42,172.18c1.33-3.58,6.37-3.67,7.84-.15,5.45,13.04,17.5,35.48,37.62,41.45,1.01.3,1.98.61,2.91.93.54-2.7.17-5.71-2.3-8.62-7.07-8.31,2.08-22.03,2.08-22.03,0,0,2.08,10.81,11.22,16.63,7.88,5.01,12.96,17.73,9.44,29.14-5.28,41.38-14.07,96.33,50.99,127.5,65.06,31.16,135.77-91.31,135.77-91.31l-25.3,138.66s-58.91,56.08-142.92-1.8c-84.01-57.89-46.27-162.23-46.27-162.23,0,0-60.53-16-41.09-68.16Z"/>
        <path class="cls-16" d="M1530.9,68.42s-27.27-76.03,64.93-66.59c0,0,42.6-12.58,49.97,28.2,0,0,30.36,14.95,14.3,53.06,0,0,79.27-42.66,124.76,25.81,45.48,68.47,17.17,112.85-16.5,127.71,0,0,30.13,10.67,20.76,44.49-9.38,33.82-74.47,65.01-119.51,30.98,0,0-112.3,29.45-120.15-51.5,0,0-57.43-27.62-10.02-101.3,47.41-73.67-8.53-90.86-8.53-90.86Z"/>
        <path class="cls-9" d="M1548.78,250.35c17.33-7.66,68.5-24.22,124.15,15.53,9.44,6.74,14.39,18.17,12.77,29.65-7.19,50.99-27.14,198.18,11.77,257.31,0,0-43.58,21.41-114.24,17.29,0,0-36.91-101.44-78.35-148.18-28.61-32.27,21.87-137.42,34.78-162.92,1.95-3.86,5.16-6.94,9.12-8.69Z"/>
        <path class="cls-11" d="M1586.18,146.14s36.1,71.97,42.28,104.95c0,0-27.75,17.08-58.32-2.02,0,0-12.37-74.87-18.27-87.81l34.31-15.12Z"/>
        <path class="cls-11" d="M1536.28,48.09s-57.39,106.22-12.2,129.3c45.19,23.08,86.06-52.42,86.06-52.42,0,0,9.45-55.38-9.72-71.35-19.17-15.97-64.14-5.53-64.14-5.53Z"/>
        <path class="cls-16" d="M1565.59,20.74s-31.04,11.6-33.71,26.64c-2.66,15.04,48.88,22.2,62.93,21.1l18.6,57s26.37-59.14,9.19-89.22c-17.17-30.08-57.02-15.53-57.02-15.53Z"/>
        <path class="cls-11" d="M1595.74,119.49s23.16-34.8,36.52-15.69c13.36,19.11-19.9,38.9-33.34,30.38l-3.18-14.69Z"/>
        <path class="cls-11" d="M1681.3,274.82s93.96,60,127.21,153.95c33.26,93.95-110.87,122.5-110.87,122.5,0,0-22.51-19.56-44.96-8.75-22.45,10.81-6.65-38.24,20.78-41.57,27.44-3.33,17.46,19.95,54.04-2.49,35.64-21.87,52.34-77.74-54.16-145.86-6.17-3.95-11.38-9.32-14.91-15.74-24.66-44.79-13.69-77.57,22.87-62.03Z"/>
      </g>
      <g>
        <path class="cls-3" d="M1603.85,1775.21c-67.86,0-131.66-26.43-179.64-74.41-47.98-47.98-74.41-111.78-74.41-179.64s26.43-131.65,74.41-179.64c47.98-47.98,111.78-74.41,179.64-74.41s131.65,26.43,179.64,74.41c47.98,47.98,74.41,111.78,74.41,179.64s-26.43,131.65-74.41,179.64c-47.98,47.98-111.78,74.41-179.64,74.41Z"/>
        <path class="cls-16" d="M1603.85,1272.98c137.07,0,248.19,111.12,248.19,248.19s-111.12,248.19-248.19,248.19-248.19-111.12-248.19-248.19,111.12-248.19,248.19-248.19M1603.85,1261.27c-35.08,0-69.12,6.87-101.17,20.43-30.95,13.09-58.74,31.83-82.61,55.69s-42.6,51.66-55.69,82.61c-13.56,32.05-20.43,66.09-20.43,101.17s6.87,69.12,20.43,101.17c13.09,30.95,31.83,58.74,55.69,82.61,23.87,23.87,51.66,42.6,82.61,55.69,32.05,13.56,66.09,20.43,101.17,20.43s69.12-6.87,101.17-20.43c30.95-13.09,58.74-31.83,82.61-55.69,23.87-23.87,42.6-51.66,55.69-82.61,13.56-32.05,20.43-66.09,20.43-101.17s-6.87-69.12-20.43-101.17c-13.09-30.95-31.83-58.74-55.69-82.61s-51.66-42.6-82.61-55.69c-32.05-13.56-66.09-20.43-101.17-20.43h0Z"/>
      </g>
      <g>
        <path class="cls-3" d="M273.84,1775.21c-67.86,0-131.65-26.43-179.64-74.41-47.98-47.98-74.41-111.78-74.41-179.64s26.43-131.65,74.41-179.64c47.98-47.98,111.78-74.41,179.64-74.41s131.65,26.43,179.64,74.41c47.98,47.98,74.41,111.78,74.41,179.64s-26.43,131.65-74.41,179.64c-47.98,47.98-111.78,74.41-179.64,74.41Z"/>
        <path class="cls-16" d="M273.84,1272.98c137.07,0,248.19,111.12,248.19,248.19s-111.12,248.19-248.19,248.19-248.19-111.12-248.19-248.19,111.12-248.19,248.19-248.19M273.84,1261.27c-35.08,0-69.12,6.87-101.17,20.43-30.95,13.09-58.74,31.83-82.61,55.69s-42.6,51.66-55.69,82.61c-13.56,32.05-20.43,66.09-20.43,101.17s6.87,69.12,20.43,101.17c13.09,30.95,31.83,58.74,55.69,82.61,23.87,23.87,51.66,42.6,82.61,55.69,32.05,13.56,66.09,20.43,101.17,20.43s69.12-6.87,101.17-20.43c30.95-13.09,58.74-31.83,82.61-55.69,23.87-23.87,42.6-51.66,55.69-82.61,13.56-32.05,20.43-66.09,20.43-101.17s-6.87-69.12-20.43-101.17c-13.09-30.95-31.83-58.74-55.69-82.61s-51.66-42.6-82.61-55.69c-32.05-13.56-66.09-20.43-101.17-20.43h0Z"/>
      </g>
      <g>
        <path class="cls-11" d="M1387.49,1623.46c-18.19,14.65-40.04,20.25-65.6,7.02l-11.6,26.3s11.65,58.17,70.02,63.44c5.81.52,11.54.23,17.17-.64,27.06-42.19,6.98-77.13-9.98-96.13Z"/>
        <path class="cls-9" d="M1483.59,1661.43l-27.87-166.01c-1.1,1.73-23.66,92.13-68.23,128.04,16.96,19,37.05,53.93,9.98,96.13,47.2-7.32,86.12-58.16,86.12-58.16Z"/>
        <path class="cls-9" d="M1419.89,1524.67c1.43,14.07,3.87,29.65,6.98,45.93,7.54,39.75,18.97,83.56,29.14,119.04,4.17,14.52,8.12,27.64,11.53,38.52,2.81,1.56,4.4,3.57,10.28,6.63,5.3,3.09,10.65,5.95,16,8.59-7.74,3.82-13.49,7.46-17.74,10.8,1.36,3.89,2.24,6.06,2.44,6.11,16.93,4.52,45.83,6.46,77.71,7.01,4.57.08,9.22.13,13.89.15,1.68.02,3.37.02,5.08.02,23.54.02,47.74-.55,69.27-1.33,40.33-1.43,71.35-3.54,71.35-3.54l-.75-15.98-3.64-77.91-12.08-257.23s-41.98-13.99-106.88-19.12c-29.87-2.36-64.62-2.84-102.36.75-8.49.83-17.14,1.86-25.93,3.12-13.84,1.98-49.62,76.6-44.29,128.44Z"/>
        <path class="cls-11" d="M1598.16,1303.68l-5.72,88.95c-.53,8.27-5.89,15.29-13.4,17.51-17.29,5.12-49.96,11.29-81.97-1.61-5.86-2.36-8.87-9.3-6.9-15.63l42.35-136.01,65.64,46.79Z"/>
        <g>
          <path class="cls-11" d="M1539.08,1166.99s-47.71,48.13-61.21,77.88c-13.5,29.74-27.71,46.93,5.06,66.7,32.78,19.77,69.19,13.76,96.99-10.29,0,0,43.26-36.9,45.04-58.2,1.78-21.3-85.89-76.08-85.89-76.08Z"/>
          <path class="cls-16" d="M1576.37,1274.84l-4.44-1.73s32.9-30.45,19.37-43.29c-13.53-12.85-72.21-50.59-77.18-78.54-4.79-26.95,17.97-50.52,38.71-51.53,1.31-.06,2.43.97,2.58,2.28l.39,3.34c.27,2.29,3.18,3.09,4.58,1.26,1.33-1.74,4.13-1.14,4.53,1.01,1.58,8.4,8.71,23.82,37.09,41.33,40.27,24.85,62.12,53.54,51.19,83.79-.69,1.92.93,3.75,2.94,3.39,3.96-.71,9.44.37,14.05,8.78,8.02,14.64-6.94,38.72-41.35,49.95-1.63.53-2.38,2.47-1.37,3.87,3.54,4.92,7.74,14.99-14.33,17.66-22.58,2.73-33.23-2.65-36.99-5.34-1.01-.72-1.37-2.04-.85-3.17l11.96-25.93c.62-1.34-.02-2.93-1.4-3.46l-9.47-3.68Z"/>
          <path class="cls-11" d="M1573.12,1279.97s23.99-33.26,36.55-16.45c12.56,16.82-24.71,38.11-38.58,34.32l2.03-17.87Z"/>
        </g>
        <g>
          <path class="cls-9" d="M1698.57,1667.25c5.55-39.22-35.07-96.89-51.87-118.76-4.81-6.26-7.49-13.91-7.56-21.8-.49-55.55,22.83-91.23,60.21-115.19,0,0,135.65,158.03,101.11,279.58-3.73,13.12-9.5,24.39-16.83,34.07-5.44-45.8-58.38-55.79-85.06-57.9Z"/>
          <path class="cls-20" d="M1696.04,1652.07l5.17-.59c-4.38-38.47-38.14-85.95-52.44-104.59l-4.13,3.17c14.04,18.29,47.17,64.83,51.4,102.01Z"/>
          <path class="cls-11" d="M1697.5,1672.68c.47-1.76.8-3.58,1.06-5.43,26.68,2.11,79.62,12.1,85.06,57.9-60.53,80.06-227.38,51.18-227.38,51.18v-31.15s128.14-23.81,141.26-72.5Z"/>
        </g>
        <path class="cls-11" d="M1464.24,1772.78l92.01,2.89,16.03.5s-.53-3.59-2.14-8.72c-.08-.2-.15-.43-.2-.65-2.11-6.41-5.85-14.97-12.31-21.91-10.05-10.7-26.56-17.49-53.39-6.23-3.82,1.61-7.26,3.17-10.4,4.72-7.74,3.82-13.49,7.46-17.74,10.8-13.97,10.95-11.86,18.59-11.86,18.59Z"/>
        <path class="cls-11" d="M1300.06,1597.22s25.12-15.45,41.72-3.75c15.81,11.15-9.98,78.37-19.26,84.93-9.28,6.56-41.03-45.59-22.46-81.18Z"/>
      </g>
      <g>
        <path class="cls-3" d="M272.06,581.34c-67.85,0-131.64-26.42-179.62-74.4-47.98-47.98-74.4-111.77-74.4-179.62s26.42-131.64,74.4-179.62c47.98-47.98,111.77-74.4,179.62-74.4s131.64,26.42,179.62,74.4c47.98,47.98,74.4,111.77,74.4,179.62s-26.42,131.64-74.4,179.62c-47.98,47.98-111.77,74.4-179.62,74.4Z"/>
        <path class="cls-16" d="M272.06,79.12c137.07,0,248.19,111.12,248.19,248.19s-111.12,248.19-248.19,248.19S23.87,464.38,23.87,327.31s111.12-248.19,248.19-248.19M272.06,67.45c-35.08,0-69.11,6.87-101.15,20.43-30.95,13.09-58.73,31.82-82.6,55.69-23.86,23.86-42.6,51.65-55.69,82.6-13.55,32.04-20.43,66.08-20.43,101.15s6.87,69.11,20.43,101.15c13.09,30.95,31.82,58.73,55.69,82.6s51.65,42.6,82.6,55.69c32.04,13.55,66.08,20.43,101.15,20.43s69.11-6.87,101.15-20.43c30.95-13.09,58.73-31.82,82.6-55.69,23.86-23.86,42.6-51.65,55.69-82.6,13.55-32.04,20.43-66.08,20.43-101.15s-6.87-69.11-20.43-101.15c-13.09-30.95-31.82-58.73-55.69-82.6s-51.65-42.6-82.6-55.69c-32.04-13.55-66.08-20.43-101.15-20.43h0Z"/>
      </g>
      <g>
        <path class="cls-19" d="M336.2,273.95s106.85,193.22,259.94,207.2l8.16,23.02s-210.95,41.2-319.02-132.59l50.92-97.63Z"/>
        <path class="cls-1" d="M593.08,494.55c-4.75-9.64,1.96-21.28,12.7-21.44.53,0,1.07,0,1.64.02,18.01.67,36.27-2.1,43.02-6.72,2.24-1.53,5.42-1.11,6.84,1.2,1.86,3.01.39,8.13-16.68,15.57,0,0,37.77,14.72,68.19.26,29.65-14.09-13.18,60.52-103.39,24.72-4.54-1.8-8.22-5.28-10.37-9.65l-1.95-3.95Z"/>
        <path class="cls-19" d="M342.11,438.13c-10.8,57.17-27.75,111.06-36.13,136.06-11.98,1.78-24.25,2.69-36.73,2.69-33.68,0-65.8-6.69-95.1-18.81-4.35-.99-8.43-1.23-12.28-.99-.16-.14-.3-.26-.44-.4-20.68-19.5-31.6-38.7-31.6-38.7l-1.74-44.7-7.95-204.16c23.26-8.82,48.9-13.81,73.89-16.4,32.78-3.43,64.42-2.73,88.04-1.14,3.78.26,7.37.55,10.72.83,10.22.88,18.27,1.83,23.3,2.5,3.84.51,5.93.85,5.93.85,8.68,6.86,15.17,16.33,19.83,27.75,15.66,38.15,10.98,98,.26,154.63Z"/>
        <path class="cls-1" d="M298.86,198.38s-15.18,36.88-19.05,65.87c-1.14,8.51-7.72,15.21-16.19,16.62-18.15,3.01-48.23,4.7-66.53-12-4.06-3.7-5.44-9.53-3.59-14.7,7.54-21.1,46.73-108.96,68.08-122.43l37.28,66.65Z"/>
        <g>
          <path class="cls-1" d="M144.29,469.56c0,.16-.01.32-.01.48-.32,45.89,61.74,50.28,61.74,50.28,0,0,17.75-29.51,40.52-30.47,22.78-.96,54.38,36.14,54.38,36.14l-50.54,8.09s-96.38,57.81-162.43-10.87c11.68-42.77,39.51-52.11,56.33-53.65Z"/>
          <path class="cls-19" d="M120.14,269.12c62.62,22.2,53.56,71.38,53.56,71.38,0,0-28.9,83.06-29.41,129.05-16.83,1.54-44.66,10.88-56.33,53.65-1.57-1.63-3.12-3.31-4.66-5.08-78.95-91.48,36.84-249.01,36.84-249.01Z"/>
          <path class="cls-20" d="M144.29,471.99c1.33,0,2.42-1.07,2.44-2.41.4-35.79,18.23-94.5,25.88-118.09.42-1.28-.29-2.65-1.56-3.07-1.29-.41-2.65.29-3.07,1.56-7.72,23.8-25.71,83.08-26.12,119.53-.01,1.34,1.06,2.45,2.41,2.46h.03Z"/>
        </g>
        <g>
          <path class="cls-1" d="M367.32,105.41c0,1.84-41.01,116.08-41.01,116.08l-64.74-24.8,22.78-114.06s82.96-7.96,82.96,22.77Z"/>
          <path class="cls-16" d="M295.71,110.42l-16.69,59.1c-.21.76-.32,1.52-.32,2.31,0,4.82,1.19,21.41,18.08,19.15,15.33-2.05,29.35-3.69,38.27.51,4,1.89,5.92,6.49,4.42,10.66-3.73,10.38-12.56,33.61-23.32,52.63-2.18,3.86-6.97,5.36-11,3.52-12.16-5.53-37.47-17.92-55.51-32.65-2.44-2-3.62-5.14-3.04-8.24,2.84-15.12,11.29-61.1,11.66-74.28.35-12.37-13.53-21.81-19.64-25.36-2-1.16-3.43-3.08-3.97-5.33-1.92-7.96-3.55-25.98,19.44-29.95,4.81-.83,7.95-5.44,6.97-10.22-1.94-9.52-1.32-23.53,16.76-28.69,18.38-5.25,29.94,5.82,35.82,14.3,2.38,3.43,6.83,4.54,10.64,2.84,2.17-.97,4.79-1.01,7.61,1.36,3.8,3.2,9.57,2.23,12.36-1.88,5.36-7.89,15.09-15.76,31.58-10.43,29.25,9.46,27.85,43.18,17.13,61.52-10.72,18.33-41.85,6.27-56.58-5.88-11.2-9.24-28.26-3.71-35.8-.53-2.39,1.01-4.16,3.05-4.87,5.54Z"/>
          <path class="cls-1" d="M255.67,165.14s14.04-33.16,2.6-43.44c-11.45-10.28-27.42-6.75-26.89,18.85.65,31.85,24.3,24.59,24.3,24.59Z"/>
        </g>
      </g>
      <line class="cls-15" x1="583.53" y1="1452.73" x2="772.87" y2="1336.55"/>
      <line class="cls-15" x1="1410.11" y1="517.98" x2="1346.8" y2="725.56"/>
      <line class="cls-15" x1="399.66" y1="557.83" x2="507.91" y2="776.86"/>
      <line class="cls-15" x1="525.63" y1="364.83" x2="811.53" y2="444.12"/>
      <line class="cls-15" x1="1084.12" y1="444.12" x2="1288.25" y2="420.18"/>
      <line class="cls-15" x1="485.36" y1="1297.42" x2="525.63" y2="1070.57"/>
      <g>
        <path class="cls-16" d="M206.87,1236.72s-31.45,15.3-37.24,32.87c-4.64,14.1-39.42,15.92-42.85,43.65-1.77,14.32-12.37,25.79-26.63,27.97-35.52,5.44-90.26,23.89-99.02,85.56-6.69,47.07,17.31,64.92,42.5,71.1,18.5,4.54,30.79,22.53,27.05,41.2-3.59,17.91,1.76,38.62,32.79,54.99,69.54,36.69,138.98-86.93,138.98-86.93l14.23-215.85-49.81-54.58Z"/>
        <path class="cls-11" d="M585.25,1185.55s-138.84,219.61-303.94,262.03c0,0,32.17,91.63,57,102.11,0,0,203.12-169.48,255.32-332.93l-8.38-31.21Z"/>
        <path class="cls-9" d="M187.9,1753.83c35.05-148.53-53.74-232.53-53.74-232.53,56.03-53.78,158.11-78.25,158.11-78.25,0,0,97.41,71.21,85.85,126.96-6.77,32.67-68.57,196.81-68.57,196.81,0,0-57.23,11.37-121.65-12.98Z"/>
        <path class="cls-11" d="M228.58,1344.9l-28.5,128c-2.73,11.27,7.55,9.43,18.95,7.28,18.67-3.52,42.73-10.77,50.77-25.29.82-1.48,1.23-3.15,1.46-4.82l12.24-88.76c.97-7.04-2.84-13.88-9.33-16.76l-23.63-10.48c-9.1-4.03-19.62,1.16-21.97,10.83Z"/>
        <g>
          <path class="cls-11" d="M283.17,1228.21s30.34,20.54,43.37,72.84c13.04,52.3-8.15,71.06-29.87,69.91-21.72-1.15-53.2-7.87-80.49-45.39-27.28-37.52,27.22-122.45,66.98-97.36Z"/>
          <path class="cls-16" d="M243.7,1304.47s-11.12-74.94,51.1-63.48l12.58,13.1s30.45-34.3-3.25-60.22c-33.7-25.93-80.47-19.29-106.35,27.91-25.87,47.2-35.27,80.36-13.58,109.69,21.69,29.33,38,4.17,38,4.17,0,0-9.95-25.38-1.69-36.28,8.25-10.89,18.9,6.33,18.9,6.33l4.28-1.24Z"/>
          <path class="cls-11" d="M235.2,1310.89s-5.49-38.56-25.18-27.53c-19.69,11.02,7.1,36.02,17.84,44.52l7.34-16.99Z"/>
        </g>
        <g>
          <path class="cls-11" d="M584.29,1230.76c.42,4.53-16.43,7.66-21.79-11.65,1.47-8.38,4.09-45.1,10.52-50.8,34.24-30.38,95.29-64.56,95.29-64.56,6.83,10.43-2.13,17.29-2.13,17.29l-30.48,20.57c3.18,10.53,7.82,19.84,8.34,31.86.4,9.1-2.97,18.02-9.01,24.92-6.07,6.93-14.23,15.88-21.59,22.67-13.93,12.86-29.17,9.7-29.17,9.7Z"/>
          <path class="cls-11" d="M600.85,1215.79l-4.66-1.92c.62-1.51,15.24-37.05,22.32-44.44,2.69-2.8,3.99-5.21,3.87-7.14-.06-1.05-.58-2.08-1.56-3.14l-24.66,13.19-10.89,17.05-4.25-2.71,11.6-18.17,28.89-15.44,1.3,1.06c2.92,2.39,4.43,4.95,4.6,7.85.21,3.45-1.5,7.02-5.25,10.94-5.33,5.57-17.19,32.83-21.31,42.87Z"/>
        </g>
        <path class="cls-11" d="M133.79,1521.6c-34.74,35.05-78.81,190.42-56.94,216.38,19.25,30.21,84.81,71.34,147.23,71.39h92.1c-38.7-41.12-65.35-51.55-97.09-22.8-25.18-10.76-57.84-52.44-79.63-71.05-8.56-7.31-10.58-19.77-4.85-29.46,17.31-29.31,39.03-59.45,45.93-88.64,1.48-34.21-23.83-73.35-46.75-75.82Z"/>
      </g>
      <line class="cls-15" x1="1366.2" y1="1060.42" x2="1454.02" y2="1297.32"/>
      <line class="cls-15" x1="1112.87" y1="1317.17" x2="1346.8" y2="1418.8"/>
      <g>
        <line class="cls-15" x1="752.52" y1="817.86" x2="879.22" y2="667.35"/>
        <line class="cls-15" x1="1131.86" y1="817.86" x2="1005.16" y2="667.35"/>
      </g>
      <g>
        <line class="cls-15" x1="1131.86" y1="982.28" x2="1005.16" y2="1132.79"/>
        <line class="cls-15" x1="752.52" y1="982.28" x2="879.22" y2="1132.79"/>
      </g>
    </g>
  </g>
</svg>