<?xml version="1.0" encoding="UTF-8"?>
<svg id="Layer_2" data-name="Layer 2" xmlns="http://www.w3.org/2000/svg" xmlns:xlink="http://www.w3.org/1999/xlink" viewBox="0 0 1597.33 1699.51">
  <defs>
    <style>
      .cls-1 {
        fill: url(#linear-gradient-15);
      }

      .cls-2 {
        fill: url(#linear-gradient-13);
      }

      .cls-3 {
        clip-path: url(#clippath-6);
      }

      .cls-4 {
        fill: #d48933;
      }

      .cls-5 {
        clip-path: url(#clippath-4);
      }

      .cls-6 {
        fill: url(#linear-gradient-2);
      }

      .cls-7 {
        fill: url(#linear-gradient-10);
      }

      .cls-8 {
        fill: url(#linear-gradient-12);
      }

      .cls-9, .cls-10 {
        fill: #fff;
      }

      .cls-11 {
        opacity: .73;
      }

      .cls-12 {
        fill: #eba95f;
      }

      .cls-13 {
        fill: #640917;
      }

      .cls-14 {
        fill: #806ed9;
      }

      .cls-15, .cls-16 {
        fill: none;
      }

      .cls-17 {
        fill: url(#linear-gradient-4);
      }

      .cls-18 {
        fill: #5f4791;
      }

      .cls-19 {
        fill: #7e5ec2;
      }

      .cls-20 {
        fill: url(#linear-gradient-3);
      }

      .cls-21 {
        clip-path: url(#clippath-1);
      }

      .cls-22 {
        fill: url(#linear-gradient-5);
      }

      .cls-23 {
        fill: #a67cff;
      }

      .cls-24 {
        clip-path: url(#clippath-5);
      }

      .cls-25 {
        fill: url(#linear-gradient-8);
      }

      .cls-26 {
        fill: #f8b365;
      }

      .cls-27 {
        clip-path: url(#clippath-3);
      }

      .cls-28 {
        fill: #223663;
      }

      .cls-29 {
        fill: url(#linear-gradient-14);
      }

      .cls-30 {
        fill: #ffd396;
      }

      .cls-31 {
        opacity: .34;
      }

      .cls-32 {
        fill: url(#linear-gradient-17);
      }

      .cls-33 {
        fill: url(#linear-gradient-7);
      }

      .cls-34 {
        fill: #9d80ff;
      }

      .cls-35 {
        fill: url(#linear-gradient-9);
      }

      .cls-16 {
        stroke: #2b2f5c;
        stroke-dasharray: 13.31;
        stroke-miterlimit: 10;
        stroke-width: 6.66px;
      }

      .cls-36 {
        fill: url(#linear-gradient-11);
      }

      .cls-37 {
        fill: url(#linear-gradient-6);
      }

      .cls-38 {
        fill: #ffb244;
      }

      .cls-10 {
        opacity: .6;
      }

      .cls-39 {
        clip-path: url(#clippath-2);
      }

      .cls-40 {
        fill: #2b2f5c;
      }

      .cls-41 {
        fill: #c6d2d6;
      }

      .cls-42 {
        fill: url(#linear-gradient-16);
      }

      .cls-43 {
        fill: url(#linear-gradient);
      }

      .cls-44 {
        clip-path: url(#clippath);
      }
    </style>
    <linearGradient id="linear-gradient" x1="485.14" y1="1451.31" x2="591.85" y2="1451.31" gradientUnits="userSpaceOnUse">
      <stop offset="0" stop-color="#dae3fe"/>
      <stop offset="1" stop-color="#e9effd"/>
    </linearGradient>
    <linearGradient id="linear-gradient-2" y1="1343.31" x2="487.94" y2="1343.31" xlink:href="#linear-gradient"/>
    <linearGradient id="linear-gradient-3" x1="752.51" y1="621.54" x2="830.79" y2="621.54" gradientUnits="userSpaceOnUse">
      <stop offset="0" stop-color="#292f5c"/>
      <stop offset="1" stop-color="#292f5c"/>
    </linearGradient>
    <linearGradient id="linear-gradient-4" x1="759.68" y1="611.68" x2="797.34" y2="611.68" xlink:href="#linear-gradient"/>
    <linearGradient id="linear-gradient-5" x1="482.12" y1="1113.21" x2="1143.93" y2="1113.21" xlink:href="#linear-gradient-3"/>
    <linearGradient id="linear-gradient-6" x1="414.33" y1="1679.87" x2="1010.36" y2="800.51" gradientUnits="userSpaceOnUse">
      <stop offset="0" stop-color="#6075b0"/>
      <stop offset="1" stop-color="#7f65cd"/>
    </linearGradient>
    <linearGradient id="linear-gradient-7" x1="610.91" y1="1173.67" x2="656.1" y2="1173.67" xlink:href="#linear-gradient"/>
    <linearGradient id="linear-gradient-8" x1="614.27" y1="1164.21" x2="656.91" y2="1164.21" xlink:href="#linear-gradient-3"/>
    <linearGradient id="linear-gradient-9" x1="610.91" y1="1251.77" x2="656.1" y2="1251.77" xlink:href="#linear-gradient"/>
    <linearGradient id="linear-gradient-10" x1="614.27" y1="1242.32" x2="656.91" y2="1242.32" xlink:href="#linear-gradient-3"/>
    <linearGradient id="linear-gradient-11" x1="610.91" y1="1329.88" x2="656.1" y2="1329.88" xlink:href="#linear-gradient"/>
    <linearGradient id="linear-gradient-12" x1="614.27" y1="1320.43" x2="656.91" y2="1320.43" xlink:href="#linear-gradient-3"/>
    <linearGradient id="linear-gradient-13" x1="610.91" y1="1407.99" x2="656.1" y2="1407.99" xlink:href="#linear-gradient"/>
    <linearGradient id="linear-gradient-14" x1="614.27" y1="1398.54" x2="656.91" y2="1398.54" xlink:href="#linear-gradient-3"/>
    <linearGradient id="linear-gradient-15" x1="693.35" y1="673.16" x2="911.44" y2="673.16" xlink:href="#linear-gradient-3"/>
    <linearGradient id="linear-gradient-16" x1="752.77" y1="658.38" x2="763.5" y2="658.38" xlink:href="#linear-gradient"/>
    <linearGradient id="linear-gradient-17" x1="701.93" y1="670.67" x2="747.64" y2="670.67" xlink:href="#linear-gradient"/>
    <clipPath id="clippath">
      <circle class="cls-15" cx="751.87" cy="317.92" r="138.48" transform="translate(-4.58 624.77) rotate(-45)"/>
    </clipPath>
    <clipPath id="clippath-1">
      <circle class="cls-15" cx="1452.95" cy="981.5" r="138.47"/>
    </clipPath>
    <clipPath id="clippath-2">
      <path class="cls-15" d="M1447.27,1014.57s23.31-5.13,27.96,2.4c2.02,12.32,2.85,24.53,2.85,24.53l-26.79,4.06-17.46-4.68-4.1-2.58-1.12-17.4s9.19-4.9,18.67-6.33Z"/>
    </clipPath>
    <clipPath id="clippath-3">
      <circle class="cls-15" cx="321.63" cy="524.39" r="138.47"/>
    </clipPath>
    <clipPath id="clippath-4">
      <circle class="cls-15" cx="1132.3" cy="146.27" r="138.47"/>
    </clipPath>
    <clipPath id="clippath-5">
      <circle class="cls-15" cx="1246.66" cy="522.88" r="138.47" transform="translate(-4.59 1034.67) rotate(-45)"/>
    </clipPath>
    <clipPath id="clippath-6">
      <circle class="cls-15" cx="145.86" cy="983.65" r="138.47"/>
    </clipPath>
  </defs>
  <g id="Layer_1-2" data-name="Layer 1">
    <g id="_20-2" data-name="20-2">
      <path class="cls-43" d="M590.45,1522.04h-.02l-65.54-.85c-21.92-.28-39.74-18.35-39.74-40.26v-98.95c0-.77.63-1.4,1.4-1.4s1.4.63,1.4,1.4v98.95c0,20.39,16.59,37.2,36.98,37.46l65.54.85c.77,0,1.39.64,1.38,1.42-.01.77-.63,1.38-1.4,1.38Z"/>
      <path class="cls-6" d="M486.54,1352.73c-.77,0-1.4-.63-1.4-1.4v-16.03c0-.77.63-1.4,1.4-1.4s1.4.63,1.4,1.4v16.03c0,.77-.63,1.4-1.4,1.4Z"/>
      <path class="cls-20" d="M814.43,590.75c-18.46-12.84-34.51-12.59-45.81-9.25-10.31,3.04-16.99,12.99-16.01,23.7l4.87,53.19,57.99,5.15s35.16-47.59-1.04-72.78ZM788.93,633.66c-7.99,0-14.46-6.47-14.46-14.46s6.47-14.46,14.46-14.46,14.46,6.47,14.46,14.46-6.47,14.46-14.46,14.46Z"/>
      <path class="cls-17" d="M763.28,636.01c-.72,0-1.33-.55-1.39-1.27l-.78-8.47c-.07-.77.5-1.45,1.27-1.52.78-.07,1.45.5,1.52,1.27l.78,8.47c.07.77-.5,1.45-1.27,1.52-.04,0-.09,0-.13,0ZM761.75,619.41c-.72,0-1.33-.55-1.39-1.27l-.59-6.43c-.93-10.2,5.48-19.69,15.25-22.57,6.92-2.04,14.05-2.34,21.19-.87.76.15,1.24.89,1.09,1.65-.16.76-.89,1.24-1.65,1.09-6.69-1.37-13.36-1.1-19.84.81-8.49,2.51-14.07,10.76-13.26,19.63l.59,6.43c.07.77-.5,1.45-1.27,1.52-.04,0-.09,0-.13,0Z"/>
      <g>
        <path class="cls-22" d="M542.22,691.78h511.06c28.19,0,51.44,22.1,52.88,50.25l37.72,740.94c1.12,22.03-16.22,40.62-38.28,41.02l-585.74,10.65c-20.73.38-37.73-16.32-37.73-37.05v-745.71c0-33.19,26.91-60.1,60.1-60.1Z"/>
        <g>
          <path class="cls-37" d="M543.79,685.77c69.79,9.46,309.78,38.73,508.2,23.5,9.05-.69,16.9,6.16,17.38,15.22l39.55,744.24c.54,10.2-7.25,18.93-17.45,19.54-83.45,4.94-427.13,24.03-549.72,11.19-7.46-.78-13.12-7.06-13.17-14.56l-4.6-781.72c-.06-10.62,9.28-18.84,19.8-17.41Z"/>
          <path class="cls-10" d="M551.26,705.08c67.16,9.11,298.11,37.28,489.06,22.62,8.71-.67,16.26,5.93,16.73,14.65l38.07,716.22c.52,9.82-6.98,18.22-16.79,18.8-80.31,4.75-411.05,23.12-529.02,10.77-7.18-.75-12.63-6.8-12.67-14.02l-4.43-752.28c-.06-10.22,8.93-18.13,19.05-16.75Z"/>
          <path class="cls-9" d="M594.38,777.05l7.13,153.55c.24,5.11,4.36,9.17,9.47,9.31,28.44.8,117.05,2.96,167.08.35,5.66-.3,10.14-4.87,10.32-10.54.95-28.8,3.04-112.61-3.52-147.65-1.06-5.66-5.92-9.81-11.68-10.01l-168.09-5.88c-6.06-.21-11.01,4.8-10.73,10.85Z"/>
          <circle class="cls-26" cx="691.1" cy="831.95" r="33.01" transform="translate(-219.06 1416.22) rotate(-82.98)"/>
          <path class="cls-26" d="M640.96,928.86h105.16c6.45,0,10.31-7.12,6.84-12.55-8.93-13.98-27.62-34.51-59.99-33.58-31.19.89-49.68,19.44-58.98,32.74-3.95,5.65.08,13.39,6.97,13.39Z"/>
          <path class="cls-9" d="M1017.96,790.42c1.62,0,2.9-1.32,2.85-2.94l-.13-4.43c-.05-1.62-1.41-2.96-3.03-2.99l-190.41-3.39c-1.62-.03-2.5,1.2-1.96,2.72l2.91,8.25c.54,1.53,2.3,2.77,3.92,2.77h185.85Z"/>
          <path class="cls-9" d="M827.24,805.29c-1.62-.03-2.5,1.2-1.96,2.72l2.91,8.25c.54,1.53,2.3,2.77,3.92,2.77h185.85c1.62,0,2.9-1.32,2.85-2.94l-.13-4.43c-.05-1.62-1.41-2.96-3.03-2.99l-190.41-3.39Z"/>
          <path class="cls-9" d="M827.24,834.34c-1.62-.03-2.5,1.2-1.96,2.72l2.91,8.25c.54,1.53,2.3,2.77,3.92,2.77h185.85c1.62,0,2.9-1.32,2.85-2.94l-.13-4.43c-.05-1.62-1.41-2.96-3.03-2.99l-190.41-3.39Z"/>
          <path class="cls-9" d="M1035.86,988.14c1.62,0,2.85-1.32,2.75-2.93l-.29-4.44c-.11-1.61-1.52-2.94-3.13-2.96l-437.91-3.45c-1.62-.01-2.12,1.01-1.11,2.28l7.33,9.2c1.01,1.26,3.15,2.3,4.77,2.3h427.6Z"/>
          <path class="cls-9" d="M597.27,1002.98c-1.62-.01-2.12,1.01-1.11,2.28l7.33,9.2c1.01,1.26,3.15,2.3,4.77,2.3h427.6c1.62,0,2.85-1.32,2.75-2.93l-.29-4.44c-.11-1.61-1.52-2.94-3.13-2.96l-437.91-3.45Z"/>
          <path class="cls-9" d="M598.37,1050.8c10.38-.8,29.83-1.16,40.53-1.31,4.54-.06,8.51,3.01,9.58,7.42,2.07,8.56,4.91,23.43,4.56,39.19-.11,4.72-3.97,8.48-8.69,8.43l-39.49-.43c-4.86-.05-8.89-3.77-9.34-8.6l-3.47-37.15c-.36-3.84,2.49-7.25,6.34-7.54Z"/>
          <path class="cls-9" d="M668.36,1065.93c-1.62-.07-2.74,1.19-2.5,2.78l1.86,12.4c.24,1.6,1.76,2.91,3.38,2.91h102.02c1.62,0,2.92-1.32,2.9-2.94l-.1-7.72c-.02-1.62-1.36-2.99-2.97-3.06l-104.59-4.37Z"/>
          <path class="cls-9" d="M813.53,1050.8c10.38-.8,29.83-1.16,40.53-1.31,4.54-.06,8.51,3.01,9.58,7.42,2.07,8.56,4.91,23.43,4.56,39.19-.11,4.72-3.97,8.48-8.69,8.43l-39.49-.43c-4.86-.05-8.89-3.77-9.34-8.6l-3.47-37.15c-.36-3.84,2.49-7.25,6.34-7.54Z"/>
          <path class="cls-9" d="M883.52,1065.93c-1.62-.07-2.74,1.19-2.5,2.78l1.86,12.4c.24,1.6,1.76,2.91,3.38,2.91h102.02c1.62,0,2.92-1.32,2.9-2.94l-.1-7.72c-.02-1.62-1.36-2.99-2.97-3.06l-104.59-4.37Z"/>
          <g>
            <path class="cls-9" d="M654.1,1198.22h-.1l-36.44-.35c-5.21-.05-9.5-3.63-10-8.33l-3.2-30.58c-.19-1.8.37-3.57,1.57-5,1.34-1.6,3.38-2.6,5.58-2.75h0c3.07-.21,7.39-.58,11.97-.97,9.64-.82,21.64-1.84,28.38-1.93,4.9-.02,9.05,2.87,10.21,7.14,1.9,7.02,1.73,20.31,1.37,34.46-.12,4.6-4.29,8.3-9.33,8.3ZM611.69,1154c-1.45.1-2.77.74-3.62,1.76-.71.84-1.04,1.87-.93,2.9l3.2,30.58c.34,3.28,3.46,5.79,7.24,5.83l36.44.35h.07c3.53,0,6.46-2.49,6.53-5.58.36-13.94.53-27-1.27-33.66-.81-2.98-3.91-5.06-7.47-5.07-6.65.08-18.59,1.1-28.18,1.92-4.59.39-8.93.76-12.02.97h0Z"/>
            <path class="cls-33" d="M615.61,1157.16c7.66-.52,24.3-2.21,32.19-2.31,3.34-.04,6.28,1.98,7.06,4.88,1.52,5.63,1.32,16.86,1.06,27.22-.08,3.1-2.93,5.58-6.41,5.55l-29.12-.28c-3.58-.03-6.55-2.48-6.89-5.66l-2.56-24.44c-.26-2.53,1.84-4.77,4.67-4.96Z"/>
            <path class="cls-9" d="M686.11,1177.91c1.06,4,4.69,6.78,8.83,6.74l337.2-2.88c3.81-.03,6.87-3.18,6.78-6.99-.08-3.71-3.1-6.68-6.81-6.69l-337.21-1.54c-5.95-.03-10.31,5.6-8.79,11.36Z"/>
            <path class="cls-25" d="M617.16,1161.95h0c2.71-1.59,6.19-.64,7.72,2.1l7.19,12.89c.72,1.29,2.6,1.21,3.21-.14l17.83-39.69c.89-1.98,3.84-1.31,3.81.86-.18,12.14-3.4,35.22-22.8,54.54,0,0-10.69-4.16-19.3-23.06-1.24-2.73-.23-5.97,2.36-7.49Z"/>
            <path class="cls-9" d="M654.1,1276.32h-.1l-36.44-.35c-5.21-.05-9.5-3.63-10-8.33l-3.2-30.58c-.19-1.8.37-3.57,1.57-5,1.34-1.6,3.38-2.6,5.58-2.75h0c3.07-.21,7.39-.58,11.97-.97,9.64-.82,21.64-1.84,28.38-1.93.05,0,.1,0,.15,0,4.79,0,8.92,2.92,10.06,7.14,1.9,7.02,1.73,20.31,1.37,34.46-.12,4.6-4.29,8.3-9.33,8.3ZM611.69,1232.11c-1.45.1-2.77.74-3.62,1.76-.71.84-1.04,1.87-.93,2.9l3.2,30.58c.34,3.28,3.46,5.79,7.24,5.83l36.44.35h.07c3.53,0,6.46-2.49,6.53-5.58.36-13.94.53-27-1.27-33.66-.81-2.98-3.96-5.13-7.47-5.07-6.65.08-18.59,1.1-28.18,1.92-4.59.39-8.93.76-12.02.97h0Z"/>
            <path class="cls-35" d="M615.61,1235.26c7.66-.52,24.3-2.21,32.19-2.31,3.34-.04,6.28,1.98,7.06,4.88,1.52,5.63,1.32,16.86,1.06,27.22-.08,3.1-2.93,5.58-6.41,5.55l-29.12-.28c-3.58-.03-6.55-2.48-6.89-5.66l-2.56-24.44c-.26-2.53,1.84-4.77,4.67-4.96Z"/>
            <path class="cls-9" d="M686.11,1256.02c1.06,4,4.69,6.78,8.83,6.74l337.2-2.88c3.81-.03,6.87-3.18,6.78-6.99-.08-3.71-3.1-6.68-6.81-6.69l-337.21-1.54c-5.95-.03-10.31,5.6-8.79,11.36Z"/>
            <path class="cls-7" d="M617.16,1240.06h0c2.71-1.59,6.19-.64,7.72,2.1l7.19,12.89c.72,1.29,2.6,1.21,3.21-.14l17.83-39.69c.89-1.98,3.84-1.31,3.81.86-.18,12.14-3.4,35.22-22.8,54.54,0,0-10.69-4.16-19.3-23.06-1.24-2.73-.23-5.97,2.36-7.49Z"/>
            <path class="cls-9" d="M654.1,1354.43h-.1l-36.44-.35c-5.21-.05-9.5-3.63-10-8.33l-3.2-30.58c-.19-1.8.37-3.57,1.57-5,1.34-1.6,3.38-2.6,5.58-2.75h0c3.07-.21,7.39-.58,11.97-.97,9.64-.82,21.64-1.84,28.38-1.93.05,0,.1,0,.15,0,4.79,0,8.92,2.92,10.06,7.14,1.9,7.02,1.73,20.31,1.37,34.46-.12,4.6-4.29,8.3-9.33,8.3ZM611.69,1310.22c-1.45.1-2.77.74-3.62,1.76-.71.84-1.04,1.87-.93,2.91l3.2,30.58c.34,3.28,3.46,5.79,7.24,5.83l36.44.35h.07c3.53,0,6.46-2.49,6.53-5.58.36-13.94.53-27-1.27-33.66-.81-2.98-3.96-5.14-7.47-5.07-6.65.08-18.59,1.1-28.18,1.92-4.59.39-8.93.76-12.02.97h0Z"/>
            <path class="cls-36" d="M615.61,1313.37c7.66-.52,24.3-2.21,32.19-2.31,3.34-.04,6.28,1.98,7.06,4.88,1.52,5.63,1.32,16.86,1.06,27.22-.08,3.1-2.93,5.58-6.41,5.55l-29.12-.28c-3.58-.03-6.55-2.48-6.89-5.66l-2.56-24.44c-.26-2.53,1.84-4.77,4.67-4.96Z"/>
            <path class="cls-9" d="M686.11,1334.13c1.06,4,4.69,6.78,8.83,6.74l337.2-2.88c3.81-.03,6.87-3.18,6.78-6.99-.08-3.71-3.1-6.68-6.81-6.69l-337.21-1.54c-5.95-.03-10.31,5.6-8.79,11.36Z"/>
            <path class="cls-8" d="M617.16,1318.17h0c2.71-1.59,6.19-.64,7.72,2.1l7.19,12.89c.72,1.29,2.6,1.21,3.21-.14l17.83-39.69c.89-1.98,3.84-1.31,3.81.86-.18,12.14-3.4,35.22-22.8,54.54,0,0-10.69-4.16-19.3-23.06-1.24-2.73-.23-5.97,2.36-7.49Z"/>
            <path class="cls-9" d="M654.1,1432.54h-.1l-36.44-.35c-5.21-.05-9.5-3.63-10-8.33l-3.2-30.58c-.19-1.8.37-3.57,1.57-5,1.34-1.6,3.38-2.6,5.58-2.75h0c3.07-.21,7.39-.58,11.97-.97,9.64-.82,21.64-1.84,28.38-1.93.05,0,.1,0,.15,0,4.79,0,8.92,2.92,10.06,7.14,1.9,7.02,1.73,20.31,1.37,34.46-.12,4.6-4.29,8.3-9.33,8.3ZM611.69,1388.33c-1.45.1-2.77.74-3.62,1.76-.71.84-1.04,1.87-.93,2.9l3.2,30.58c.34,3.28,3.46,5.79,7.24,5.83l36.44.35h.07c3.53,0,6.46-2.49,6.53-5.58.36-13.94.53-27-1.27-33.66-.81-2.98-3.96-5.15-7.47-5.07-6.65.08-18.59,1.1-28.18,1.92-4.59.39-8.93.76-12.02.97h0Z"/>
            <path class="cls-2" d="M615.61,1391.48c7.66-.52,24.3-2.21,32.19-2.31,3.34-.04,6.28,1.98,7.06,4.88,1.52,5.63,1.32,16.86,1.06,27.22-.08,3.1-2.93,5.58-6.41,5.55l-29.12-.28c-3.58-.03-6.55-2.48-6.89-5.66l-2.56-24.44c-.26-2.53,1.84-4.77,4.67-4.96Z"/>
            <path class="cls-9" d="M686.11,1412.24h0c1.06,4,4.69,6.78,8.83,6.74l337.2-2.87c3.81-.03,6.87-3.18,6.78-6.99-.08-3.71-3.1-6.68-6.81-6.69l-337.21-1.54c-5.95-.03-10.31,5.6-8.79,11.36Z"/>
            <path class="cls-29" d="M617.16,1396.28h0c2.71-1.59,6.19-.64,7.72,2.1l7.19,12.89c.72,1.29,2.6,1.21,3.21-.14l17.83-39.69c.89-1.98,3.84-1.31,3.81.86-.18,12.14-3.4,35.22-22.8,54.54,0,0-10.69-4.16-19.3-23.06-1.24-2.73-.23-5.97,2.36-7.49Z"/>
          </g>
        </g>
        <path class="cls-1" d="M693.35,692.76v-26.74c0-9.23,7.65-16.62,16.88-16.31l184.37,6.32c8.18.28,14.81,6.74,15.3,14.91l1.54,25.69-218.08-3.87Z"/>
        <path class="cls-42" d="M762.1,659.78h-7.93c-.77,0-1.4-.63-1.4-1.4s.63-1.4,1.4-1.4h7.93c.77,0,1.4.63,1.4,1.4s-.63,1.4-1.4,1.4Z"/>
        <path class="cls-32" d="M703.33,684.36c-.77,0-1.4-.63-1.4-1.4v-10.82c0-8.36,6.8-15.16,15.16-15.16h29.15c.77,0,1.4.63,1.4,1.4s-.63,1.4-1.4,1.4h-29.15c-6.82,0-12.36,5.54-12.36,12.36v10.82c0,.77-.63,1.4-1.4,1.4Z"/>
      </g>
      <g>
        <path class="cls-40" d="M324.4,565.2c-3.06,3.23-6.12,6.53-9.1,9.81l4.93,4.48c2.95-3.24,5.98-6.51,9-9.71l-4.83-4.57Z"/>
        <path class="cls-40" d="M347.81,550.91l-4.65-4.76c-1.94,1.89-3.86,3.79-5.78,5.71-1.24,1.24-2.47,2.48-3.7,3.73l4.74,4.67c1.22-1.23,2.44-2.46,3.66-3.69,1.9-1.9,3.81-3.78,5.72-5.65Z"/>
        <path class="cls-40" d="M362.68,527.85c-3.3,2.97-6.62,6.02-9.85,9.05l4.55,4.86c3.2-3,6.48-6.01,9.75-8.96l-4.45-4.95Z"/>
        <path class="cls-40" d="M518.09,423.75c-4.02,1.93-8.07,3.92-12.02,5.91l3,5.94c3.92-1.98,7.92-3.94,11.9-5.85l-2.88-6Z"/>
        <path class="cls-40" d="M494.16,435.81c-3.92,2.08-7.88,4.23-11.77,6.4l3.24,5.81c3.85-2.15,7.78-4.28,11.65-6.34l-3.12-5.88Z"/>
        <path class="cls-40" d="M542.48,412.67c-4.11,1.77-8.23,3.59-12.25,5.41l2.75,6.06c3.98-1.81,8.06-3.61,12.13-5.36l-2.63-6.12Z"/>
        <path class="cls-40" d="M567.31,402.61c-4.15,1.58-8.35,3.23-12.46,4.9l2.5,6.17c4.07-1.65,8.22-3.28,12.34-4.85l-2.37-6.22Z"/>
        <path class="cls-40" d="M382.98,510.31c-3.44,2.85-6.88,5.77-10.24,8.67l4.35,5.04c3.32-2.87,6.73-5.76,10.14-8.58l-4.25-5.12Z"/>
        <path class="cls-40" d="M403.97,493.6c-3.53,2.69-7.08,5.46-10.58,8.24l4.14,5.21c3.46-2.75,6.98-5.5,10.47-8.16l-4.04-5.29Z"/>
        <path class="cls-40" d="M151.62,1000.09l-6.65-.17c-.11,4.44-.18,8.94-.2,13.37l6.66.03c.02-4.39.09-8.84.2-13.24Z"/>
        <path class="cls-40" d="M470.75,448.85c-3.85,2.25-7.72,4.56-11.5,6.88l3.48,5.68c3.74-2.29,7.57-4.58,11.38-6.81l-3.36-5.75Z"/>
        <path class="cls-40" d="M447.89,462.85c-3.77,2.42-7.54,4.89-11.21,7.35l3.71,5.53c3.64-2.44,7.37-4.88,11.1-7.27l-3.59-5.6Z"/>
        <path class="cls-40" d="M592.52,393.58c-4.23,1.42-8.48,2.9-12.65,4.39l2.25,6.27c4.13-1.48,8.34-2.94,12.52-4.34l-2.12-6.31Z"/>
        <path class="cls-40" d="M425.61,477.78c-3.65,2.55-7.31,5.18-10.9,7.8l3.93,5.37c3.55-2.6,7.19-5.2,10.79-7.72l-3.82-5.45Z"/>
        <path class="cls-40" d="M1413.75,794.3l6.26-2.27c-1.52-4.18-3.1-8.4-4.7-12.54l-6.21,2.4c1.58,4.1,3.15,8.28,4.65,12.41Z"/>
        <path class="cls-40" d="M1393.64,745.24l6.05-2.78c-1.86-4.05-3.78-8.13-5.71-12.12l-5.99,2.9c1.91,3.95,3.81,7.99,5.65,11.99Z"/>
        <path class="cls-40" d="M1404.2,769.56l6.16-2.52c-1.68-4.11-3.44-8.26-5.21-12.34l-6.1,2.65c1.75,4.04,3.49,8.15,5.15,12.21Z"/>
        <path class="cls-40" d="M1375.36,694.73c-2.18-3.88-4.43-7.79-6.69-11.61l-5.73,3.38c2.23,3.79,4.46,7.66,6.62,11.49l5.8-3.26Z"/>
        <path class="cls-40" d="M1388.02,718.35c-2.02-3.96-4.1-7.96-6.2-11.88l-5.87,3.14c2.08,3.88,4.14,7.83,6.14,11.75l5.93-3.02Z"/>
        <path class="cls-40" d="M152.83,973.64l-6.64-.44c-.29,4.43-.54,8.92-.74,13.35l6.65.3c.2-4.39.45-8.83.74-13.22Z"/>
        <path class="cls-40" d="M311.42,589.37l-5.01-4.38c-2.92,3.34-5.84,6.76-8.69,10.17l5.1,4.28c2.83-3.37,5.72-6.76,8.61-10.06Z"/>
        <path class="cls-40" d="M1347.19,649.13c-2.49-3.68-5.05-7.39-7.62-11.03l-5.44,3.84c2.54,3.6,5.08,7.28,7.54,10.92l5.51-3.73Z"/>
        <path class="cls-40" d="M1361.75,671.64c-2.34-3.79-4.75-7.6-7.16-11.33l-5.59,3.61c2.39,3.69,4.77,7.46,7.09,11.21l5.66-3.5Z"/>
        <path class="cls-40" d="M1261.42,546.5c-3.16-3.09-6.41-6.2-9.65-9.24l-4.56,4.85c3.2,3.01,6.42,6.09,9.55,9.15l4.65-4.76Z"/>
        <path class="cls-40" d="M1451.49,975.27l6.64-.42c-.28-4.44-.61-8.93-.98-13.34l-6.63.56c.37,4.37.69,8.81.98,13.21Z"/>
        <path class="cls-40" d="M1449.27,948.88l6.62-.69c-.46-4.41-.97-8.88-1.52-13.29l-6.6.82c.54,4.36,1.05,8.79,1.51,13.16Z"/>
        <path class="cls-40" d="M1452.63,1001.74l6.65-.15c-.1-4.43-.25-8.93-.44-13.37l-6.65.29c.19,4.4.34,8.85.44,13.24Z"/>
        <path class="cls-40" d="M1445.99,922.59l6.59-.96c-.64-4.4-1.33-8.84-2.06-13.22l-6.57,1.09c.72,4.33,1.41,8.74,2.04,13.09Z"/>
        <path class="cls-40" d="M1436.24,870.51l6.49-1.49c-.99-4.32-2.04-8.7-3.13-13.02l-6.46,1.62c1.07,4.27,2.11,8.6,3.1,12.88Z"/>
        <path class="cls-40" d="M1429.78,844.81l6.42-1.75c-1.17-4.29-2.4-8.62-3.66-12.88l-6.38,1.88c1.24,4.21,2.46,8.5,3.62,12.75Z"/>
        <path class="cls-40" d="M1422.28,819.39l6.34-2.01c-1.34-4.23-2.75-8.51-4.18-12.72l-6.3,2.14c1.42,4.17,2.81,8.4,4.14,12.59Z"/>
        <path class="cls-40" d="M1441.64,896.45l6.54-1.22c-.82-4.36-1.69-8.78-2.6-13.13l-6.52,1.36c.9,4.31,1.76,8.68,2.57,13Z"/>
        <path class="cls-40" d="M1331.72,627.22c-2.64-3.58-5.35-7.18-8.07-10.71l-5.27,4.06c2.69,3.49,5.37,7.06,7.99,10.6l5.36-3.95Z"/>
        <path class="cls-40" d="M182.36,817.99l-6.34-2.03c-1.35,4.22-2.68,8.52-3.94,12.77l6.38,1.9c1.25-4.21,2.57-8.46,3.9-12.64Z"/>
        <path class="cls-40" d="M145.78,1053.42c.25,4.43.54,8.92.88,13.35l6.64-.5c-.33-4.38-.63-8.83-.87-13.21l-6.65.37Z"/>
        <path class="cls-40" d="M147.81,1080.1c.43,4.42.9,8.9,1.42,13.3l6.61-.77c-.51-4.37-.98-8.8-1.4-13.17l-6.62.64Z"/>
        <path class="cls-40" d="M159.44,1118.88c-.69-4.34-1.34-8.75-1.94-13.1l-6.59.91c.6,4.4,1.26,8.85,1.96,13.24l6.57-1.04Z"/>
        <path class="cls-40" d="M144.83,1026.68c.07,4.44.18,8.94.34,13.37l6.65-.24c-.16-4.39-.27-8.85-.33-13.24l-6.65.1Z"/>
        <path class="cls-40" d="M155.1,947.26l-6.62-.71c-.47,4.41-.9,8.89-1.28,13.31l6.63.57c.38-4.38.81-8.81,1.27-13.18Z"/>
        <path class="cls-40" d="M174.81,843.35l-6.42-1.77c-1.18,4.27-2.33,8.62-3.42,12.92l6.45,1.64c1.08-4.26,2.22-8.56,3.38-12.79Z"/>
        <path class="cls-40" d="M162.85,894.9l-6.54-1.24c-.82,4.35-1.62,8.78-2.36,13.16l6.56,1.11c.73-4.34,1.52-8.72,2.33-13.03Z"/>
        <path class="cls-40" d="M168.31,869l-6.48-1.51c-1,4.32-1.97,8.71-2.89,13.05l6.51,1.37c.91-4.3,1.87-8.65,2.86-12.92Z"/>
        <path class="cls-40" d="M190.93,792.96l-6.25-2.29c-1.52,4.16-3.02,8.4-4.46,12.6l6.3,2.16c1.42-4.15,2.91-8.35,4.41-12.47Z"/>
        <path class="cls-40" d="M263.04,652.11l-5.51-3.74c-2.49,3.67-4.97,7.41-7.38,11.12l5.58,3.62c2.38-3.67,4.84-7.38,7.3-11.01Z"/>
        <path class="cls-40" d="M248.66,674.27l-5.66-3.51c-2.34,3.78-4.67,7.62-6.92,11.42l5.73,3.39c2.23-3.76,4.53-7.56,6.85-11.3Z"/>
        <path class="cls-40" d="M278.31,630.55l-5.35-3.96c-2.63,3.56-5.27,7.2-7.82,10.81l5.43,3.85c2.53-3.58,5.14-7.17,7.74-10.7Z"/>
        <path class="cls-40" d="M235.19,697.02l-5.79-3.27c-2.18,3.85-4.35,7.79-6.45,11.69l5.86,3.15c2.08-3.87,4.23-7.76,6.38-11.57Z"/>
        <path class="cls-40" d="M200.52,768.31l-6.15-2.54c-1.69,4.1-3.36,8.27-4.97,12.4l6.2,2.41c1.59-4.09,3.25-8.22,4.92-12.28Z"/>
        <path class="cls-40" d="M294.43,609.64l-5.19-4.17c-2.77,3.45-5.55,6.97-8.25,10.48l5.27,4.06c2.67-3.47,5.42-6.96,8.17-10.37Z"/>
        <path class="cls-40" d="M211.1,744.07l-6.04-2.79c-1.86,4.03-3.7,8.13-5.47,12.19l6.1,2.66c1.75-4.02,3.58-8.08,5.42-12.06Z"/>
        <path class="cls-40" d="M222.67,720.3l-5.92-3.03c-2.01,3.93-4.02,7.95-5.96,11.95l5.98,2.91c1.93-3.96,3.91-7.94,5.9-11.83Z"/>
        <path class="cls-40" d="M158.44,921l-6.58-.97c-.65,4.4-1.26,8.85-1.82,13.25l6.6.84c.55-4.35,1.16-8.76,1.8-13.11Z"/>
        <path class="cls-40" d="M1241.93,528.2c-3.29-2.96-6.66-5.94-10.02-8.86l-4.36,5.03c3.33,2.88,6.67,5.83,9.92,8.77l4.46-4.94Z"/>
        <path class="cls-40" d="M1221.71,510.69c-3.4-2.83-6.88-5.66-10.34-8.42l-4.15,5.2c3.42,2.73,6.87,5.54,10.24,8.34l4.25-5.12Z"/>
        <path class="cls-40" d="M1270.9,555.94l-4.75,4.67c3.08,3.13,6.17,6.34,9.19,9.53l4.84-4.57c-3.05-3.22-6.17-6.46-9.28-9.63Z"/>
        <path class="cls-40" d="M1134.44,449.41c-3.8-2.23-7.7-4.46-11.59-6.64l-3.25,5.81c3.85,2.15,7.71,4.36,11.47,6.57l3.37-5.74Z"/>
        <path class="cls-40" d="M1200.85,494.06c-3.52-2.69-7.11-5.38-10.68-8l-3.94,5.37c3.53,2.59,7.09,5.25,10.57,7.92l4.04-5.29Z"/>
        <path class="cls-40" d="M1111.13,436.37c-3.91-2.08-7.9-4.16-11.85-6.16l-3.01,5.94c3.91,1.98,7.86,4.03,11.73,6.1l3.13-5.87Z"/>
        <path class="cls-40" d="M1179.33,478.28c-3.64-2.55-7.34-5.1-11-7.56l-3.71,5.52c3.62,2.44,7.29,4.95,10.89,7.48l3.82-5.45Z"/>
        <path class="cls-40" d="M1157.18,463.39c-3.72-2.39-7.53-4.79-11.3-7.11l-3.48,5.67c3.74,2.3,7.5,4.66,11.19,7.03l3.6-5.6Z"/>
        <path class="cls-40" d="M1451.71,1054.68l6.64.38c.26-4.42.47-8.92.64-13.36l-6.65-.25c-.17,4.4-.38,8.84-.63,13.23Z"/>
        <path class="cls-40" d="M1306.87,595.59l-5.11,4.27c2.83,3.38,5.66,6.84,8.41,10.27l5.19-4.16c-2.78-3.47-5.64-6.96-8.5-10.38Z"/>
        <path class="cls-40" d="M1459.46,1014.96l-6.66.02v1.9c0,3.76-.03,7.58-.1,11.34l6.65.12c.07-3.8.1-7.65.1-11.46v-1.92Z"/>
        <path class="cls-40" d="M1446.52,1107.37l6.59.92c.61-4.4,1.19-8.86,1.72-13.26l-6.61-.79c-.52,4.36-1.09,8.78-1.7,13.13Z"/>
        <path class="cls-40" d="M1449.65,1081.08l6.62.65c.44-4.41.83-8.89,1.18-13.32l-6.64-.52c-.34,4.39-.74,8.82-1.17,13.19Z"/>
        <path class="cls-40" d="M1450.62,1124.53c.17-1,.34-2.01.5-3.01l-6.57-1.05c-.22,1.35-.45,2.71-.67,4.07h6.75Z"/>
        <path class="cls-40" d="M1289.27,575.39l-4.93,4.47c2.95,3.25,5.91,6.58,8.8,9.9l5.02-4.37c-2.91-3.34-5.91-6.71-8.89-10Z"/>
        <path class="cls-40" d="M749.5,361.51c-4.41.35-8.89.76-13.33,1.2l.67,6.62c4.39-.44,8.83-.84,13.19-1.19l-.53-6.63Z"/>
        <path class="cls-40" d="M776.21,359.92c-4.45.18-8.95.4-13.36.66l.4,6.64c4.37-.26,8.82-.48,13.23-.65l-.26-6.65Z"/>
        <path class="cls-40" d="M802.95,366.06v-6.66h-.72c-4.2,0-8.46.04-12.65.12l.13,6.65c4.16-.08,8.37-.12,12.53-.12h.72Z"/>
        <path class="cls-40" d="M829.7,359.98c-4.43-.18-8.93-.33-13.37-.42l-.14,6.65c4.39.09,8.85.23,13.23.42l.28-6.65Z"/>
        <path class="cls-40" d="M722.87,364.18c-4.41.53-8.87,1.12-13.27,1.74l.93,6.59c4.35-.62,8.77-1.2,13.13-1.72l-.8-6.61Z"/>
        <path class="cls-40" d="M643.93,378.64c-4.3,1.06-8.66,2.18-12.96,3.34l1.73,6.43c4.26-1.14,8.58-2.26,12.83-3.31l-1.6-6.46Z"/>
        <path class="cls-40" d="M618.07,385.58c-4.27,1.24-8.58,2.54-12.82,3.87l1.99,6.35c4.2-1.31,8.47-2.6,12.69-3.83l-1.86-6.39Z"/>
        <path class="cls-40" d="M696.37,367.93c-4.38.71-8.82,1.48-13.19,2.28l1.2,6.55c4.32-.79,8.72-1.55,13.06-2.25l-1.06-6.57Z"/>
        <path class="cls-40" d="M670.04,372.75c-4.37.89-8.77,1.84-13.09,2.81l1.46,6.49c4.27-.96,8.63-1.9,12.95-2.78l-1.33-6.52Z"/>
        <path class="cls-40" d="M1013.13,394.03c-4.22-1.42-8.49-2.82-12.7-4.15l-2,6.35c4.17,1.32,8.4,2.7,12.58,4.11l2.13-6.3Z"/>
        <path class="cls-40" d="M987.63,385.99c-4.27-1.25-8.6-2.47-12.86-3.63l-1.74,6.42c4.22,1.14,8.51,2.35,12.73,3.59l1.87-6.39Z"/>
        <path class="cls-40" d="M856.4,361.63c-4.44-.37-8.93-.69-13.34-.96l-.41,6.64c4.37.27,8.81.59,13.21.95l.54-6.63Z"/>
        <path class="cls-40" d="M1063,413.2c-4.1-1.77-8.24-3.51-12.32-5.17l-2.51,6.16c4.04,1.65,8.14,3.37,12.19,5.12l2.64-6.11Z"/>
        <path class="cls-40" d="M1087.31,424.29c-3.99-1.92-8.06-3.83-12.09-5.67l-2.76,6.05c3.99,1.82,8.02,3.71,11.97,5.61l2.89-6Z"/>
        <path class="cls-40" d="M1038.26,403.1c-4.12-1.58-8.34-3.15-12.52-4.67l-2.26,6.26c4.14,1.5,8.31,3.05,12.4,4.62l2.39-6.21Z"/>
        <path class="cls-40" d="M909.47,368.17c-4.38-.72-8.82-1.41-13.22-2.04l-.95,6.59c4.35.62,8.75,1.3,13.08,2.02l1.08-6.57Z"/>
        <path class="cls-40" d="M883,364.36c-4.4-.54-8.87-1.05-13.29-1.5l-.68,6.62c4.37.45,8.8.95,13.15,1.49l.81-6.61Z"/>
        <path class="cls-40" d="M961.83,378.99c-4.3-1.07-8.68-2.12-13-3.1l-1.48,6.49c4.28.98,8.61,2.01,12.87,3.07l1.61-6.46Z"/>
        <path class="cls-40" d="M935.77,373.05c-4.36-.9-8.77-1.77-13.12-2.57l-1.21,6.54c4.3.8,8.67,1.66,12.99,2.55l1.35-6.52Z"/>
      </g>
      <g>
        <g>
          <path class="cls-9" d="M839.23,205.85c31.77,25.26,51.23,62.99,53.39,103.49,2.01,37.82-10.83,74.17-36.15,102.33-25.32,28.17-60.1,44.79-97.92,46.8-34.63,1.84-68.63-9.02-95.75-30.58-31.77-25.26-51.23-62.99-53.39-103.49-2.01-37.82,10.83-74.17,36.15-102.33,25.32-28.17,60.1-44.79,97.92-46.8,34.63-1.84,68.63,9.02,95.75,30.58Z"/>
          <path class="cls-40" d="M664.87,425.3c-29.95-23.81-49.94-59.85-52.13-101.06-4.06-76.37,54.55-141.57,130.92-145.64,35.16-1.87,67.95,9.55,93.5,29.86,29.95,23.81,49.94,59.85,52.13,101.06,4.06,76.37-54.55,141.57-130.92,145.64-35.16,1.87-67.95-9.55-93.5-29.86M660.72,430.5h0c27.76,22.07,62.56,33.19,98,31.3,38.71-2.06,74.3-19.07,100.22-47.9,25.92-28.83,39.06-66.03,37-104.74-2.21-41.46-22.12-80.06-54.64-105.92-27.75-22.07-62.55-33.18-98-31.3-38.71,2.06-74.3,19.07-100.22,47.9-25.92,28.83-39.06,66.03-37,104.74,2.21,41.46,22.12,80.06,54.63,105.91h0Z"/>
        </g>
        <g class="cls-44">
          <g>
            <path class="cls-23" d="M852.04,465.47c7.71-.41,13.61-7.02,13.15-14.73-1.32-22.07-2.8-41.45-4.4-52.1-4.08-27.19-19.05-35.09-19.05-35.09l-1.95,102.57,12.25-.65Z"/>
            <path class="cls-23" d="M816.36,467.37c-4.12-57.18-7.7-104.46-7.7-104.46-26.77-14.57-122.36-7.48-122.36-7.48,0,0-3.71,55.57-7.92,119.28l137.98-7.34Z"/>
            <path class="cls-23" d="M658.32,475.77l89.06-4.74c-4.33-27.52-32.78-128.67-32.78-128.67l-70.27,25.66s9.04,63.53,10.1,83.47c.24,4.57,2,13.36,3.89,24.28Z"/>
            <path class="cls-23" d="M661,475.63c-1.48-33.75-5.39-95.95-16.66-107.53,0,0-13.39,7.81-24.9,54.41-3.32,13.45-6.31,26.21-9.08,38.35-2.02,8.86,5,17.19,14.08,16.71l36.57-1.95Z"/>
            <path class="cls-23" d="M844.5,465.87c-.01-48.66-.52-100.48-2.76-102.5-4.2-3.78-52.94-16.87-52.94-16.87,0,0-26.14,97.11-31.97,124.03l87.67-4.66Z"/>
            <path class="cls-26" d="M718.49,359.14l9.73-42.5,43.86-2.33,8.53,47.53s-37.35,11.98-62.12-2.69Z"/>
            <g>
              <path class="cls-26" d="M713.37,262.89s6.25,39.83,14.04,55.1c7.78,15.27,25.16,14.35,26.9,14.25s17.19-4.4,25.14-18.76c7.95-14.36,9.02-59.73,9.02-59.73,0,0-16.56-16.55-37.51-17.17-20.95-.63-38.05,17.63-37.59,26.31Z"/>
              <path class="cls-26" d="M781.93,273.79s7.34-12.39,11.54-8.61c4.2,3.78-2.4,30.12-10.37,30.54-7.97.42-1.17-21.93-1.17-21.93Z"/>
              <path class="cls-26" d="M722.22,278.96s-10.71-13.43-14.49-9.23c-3.78,4.2,7.57,29.59,15.55,29.16l-1.06-19.94Z"/>
              <path class="cls-40" d="M801.13,248.97c1.81-5.6,1.36-11.66,1.04-17.57-2.12-39.84-79.84-25.97-93.27-11.28-5.61,6.14-9.15,15.34-7.18,23.66,1.43,6.07,10.91,12.05,5.59,17.99-3.76,4.2,8.66,10.82,11.21,22.03.18.81.37,1.64.65,2.4-.48-5.78-3.04-11.88-3.19-17.51-.33-11.56,17.06-13.16,25.51-14.52,25.69-4.13,40.61,9.4,40.83,10.45,1.32,6.13,2.84,12.71,2.13,19.02l2.75-.15c.4-7.38-.7-14.36,4.41-19.99,2.47-2.72,4.95-5.46,6.84-8.61,1.12-1.88,2.01-3.87,2.68-5.94Z"/>
            </g>
            <path class="cls-23" d="M726.49,324.19c-1.03,9.25-1.26,13.7-3.71,22.68-2.21,8.1.32,19.1.92,27.46.84,11.68,10.61,23.98,9.23,35.58-5.85-14.02-21.96-24.32-30.62-37.24-8.46-12.62-14.56-22.85-6.34-35.63,5.1-7.92,30.61-13.57,30.53-12.85Z"/>
            <path class="cls-23" d="M775.49,360.02c2.39,24.28-2.12,29.48-4.68,54.28,4.31-16.9,15.56-26.25,23.99-41.55,8.31-15.09,10.28-33.45-5.11-42.39-1.05-.61-15.79-6.51-15.66-5.22.37,3.54.42,24.37,1.46,34.89Z"/>
          </g>
        </g>
      </g>
      <g>
        <g>
          <path class="cls-9" d="M1349.41,882.7c27.98-29.41,67.27-45.46,107.81-44.02,78.14,2.77,139.46,68.59,136.69,146.74-1.23,34.66-15.05,67.57-38.93,92.67-27.98,29.41-67.27,45.46-107.81,44.02-37.85-1.34-72.92-17.34-98.73-45.06-25.82-27.71-39.3-63.82-37.96-101.68,1.23-34.66,15.05-67.57,38.93-92.67Z"/>
          <path class="cls-40" d="M1552.57,1075.78c-26.37,27.73-64.03,44.45-105.28,42.99-76.43-2.71-136.19-66.86-133.48-143.29,1.25-35.18,15.52-66.84,38.01-90.49,26.37-27.73,64.03-44.45,105.28-42.99,76.43,2.71,136.19,66.86,133.48,143.29-1.25,35.18-15.52,66.84-38.01,90.49M1557.38,1080.38h0c24.44-25.7,38.58-59.39,39.84-94.85,1.37-38.74-12.42-75.7-38.85-104.06-26.42-28.36-62.31-44.74-101.05-46.11-41.49-1.47-81.7,14.95-110.34,45.06-24.44,25.69-38.59,59.37-39.84,94.84-1.37,38.74,12.42,75.7,38.85,104.06,26.42,28.36,62.31,44.74,101.05,46.11,41.49,1.47,81.7-14.95,110.33-45.05h0Z"/>
        </g>
        <g class="cls-21">
          <g>
            <path class="cls-40" d="M1423.59,949.27c-8.76-.31-17.89.48-20.94-10.19-5.75-20.1,6.15-49.44,24.32-59.63,6.08-3.41,13.07-4.75,19.95-5.88,8.09-1.33,15.04-1.48,22.14,2.67,6.55,3.83,13.24-1.72,20,3.14,5.75,4.13,10.04,10.46,12.96,16.81,3.82,8.29,5.63,17.35,7.11,26.36.33,2.04.65,4.15.12,6.15-.44,1.68-1.44,3.14-2.43,4.56-7.58,10.87-17.41,18.32-31.24,17.84,0,0-51.77-1.83-52-1.84Z"/>
            <path class="cls-40" d="M1423.07,914.22s1.47,3.37-9.03,8.19c-5.86,2.69-10.33-14.59-12.25-2.17-.99,6.42-31.32,159.08-18.24,166.92,29.31,17.57,58.01-56.74,58.01-56.74l9.56-96.92-28.04-19.29Z"/>
            <path class="cls-40" d="M1491.77,908.15s13.64-.05,16.84,11.38c1.77,6.32,30.04,132.23,31.36,141.19,1.27,8.6-2.3,5.17-16.16,12.49-31.05,16.42-59.35-43.6-59.35-43.6l-2.58-103.14,29.89-18.32Z"/>
            <g class="cls-39">
              <rect class="cls-19" x="1428.95" y="1011.01" width="48.12" height="34.33" transform="translate(-82.51 127.87) rotate(-4.9)"/>
            </g>
            <path class="cls-26" d="M1421.75,951.85s-3.32-11.27-9.02-7.76c-5.7,3.52,7.39,27.72,7.39,27.72l1.63-19.96Z"/>
            <path class="cls-26" d="M1477.47,953.83s.59-16.71,9.55-7.1c8.96,9.61-10.08,21.96-10.08,21.96l.53-14.86Z"/>
            <path class="cls-23" d="M1559.55,1108.71c-6.44-37.8-16.57-67.53-20.03-69.35l-22.93,51.41s-4.81,15.39-5.15,34.7l32.43,1.15c9.72.34,17.32-8.32,15.69-17.91Z"/>
            <path class="cls-23" d="M1396.6,1121.41c1.57-16.73,1.52-27.3,1.52-27.3l-28-49.29s-4.24,14.66-9.33,53.53c-.24,1.81-.47,3.64-.69,5.51-1.04,8.72,5.6,16.47,14.38,16.78l22.13.78Z"/>
            <path class="cls-26" d="M1437.73,1122.97l32.35,1.15,12.04-91.91s-7.36-2.18-10.61-15.31c-3.25-13.13-4.19-39.22-4.19-39.22l-33.69,6.23s2.46,35.52-5.56,51.97l9.66,87.1Z"/>
            <path class="cls-40" d="M1487.55,1124.73l6.72-58.05c-34.61,19.07-69.42,16.86-104.39,4.85l8.27,50.03,89.4,3.17Z"/>
            <path class="cls-23" d="M1445.67,1123.14c-8.33-48.8-17.07-102.19-17.07-102.19l-5.97,10.92-52.53,13.06c2.13,11.97,8.74,44.95,15.46,76.09l60.1,2.13Z"/>
            <path class="cls-23" d="M1519.98,1125.78c3.3-14.74,6.15-26.24,6.15-26.24l13.39-60.19c-3.41-3.66-58.66-13.24-58.66-13.24l-5.63-9.08s-9.32,53.63-17.54,106.54l62.3,2.21Z"/>
            <path class="cls-26" d="M1418.96,925.72s-3.44,44.51,1.87,52.13c5.31,7.63,12.14,24.6,25.08,26.92,12.93,2.32,34.68-34.1,34.74-35.96.07-1.86-.08-50.21-.08-50.21,0,0-37.88-32.95-61.61,7.11Z"/>
            <path class="cls-40" d="M1411.79,918.03s-4.82,29.02,14.33,15.38c29.94-21.32,45.3-18.85,48.81-13.15,3.52,5.7,6.74,19.56,6.74,19.56,0,0,8.11-19.03,1.08-30.43-7.03-11.41-53.13-22.34-70.97,8.64Z"/>
          </g>
        </g>
      </g>
      <g>
        <g>
          <path class="cls-9" d="M462.71,523.13c0,2.88-.09,5.81-.26,8.7-4.73,78.05-72.07,137.7-150.11,132.97-74.71-4.52-133.24-66.64-133.24-141.41,0-2.88.09-5.81.26-8.7,4.73-78.05,72.07-137.7,150.11-132.97,74.71,4.52,133.24,66.64,133.24,141.41Z"/>
          <path class="cls-40" d="M182.43,523.39c0-2.82.08-5.65.26-8.5,4.62-76.34,70.25-134.47,146.59-129.85,73.49,4.45,130.11,65.44,130.11,138.09,0,2.82-.08,5.65-.26,8.5-4.62,76.34-70.25,134.47-146.59,129.85-73.49-4.45-130.11-65.44-130.11-138.09M175.77,523.38h6.66s-6.66,0-6.66,0c0,76.54,59.9,140.11,136.36,144.74,38.69,2.34,75.99-10.52,105-36.23,29.02-25.7,46.29-61.17,48.63-99.87.18-2.96.27-5.95.27-8.9,0-76.53-59.9-140.11-136.36-144.73-38.69-2.34-75.99,10.52-105,36.23-29.02,25.7-46.29,61.17-48.63,99.87-.18,2.96-.27,5.95-.27,8.89h0Z"/>
        </g>
        <g class="cls-27">
          <g>
            <path class="cls-40" d="M293.09,491.44c-8.75-.53-17.9.04-20.68-10.71-5.25-20.24,7.38-49.27,25.8-59,6.16-3.26,13.19-4.42,20.09-5.37,8.12-1.12,15.07-1.11,22.07,3.22,6.45,3.99,13.28-1.38,19.92,3.64,5.64,4.27,9.77,10.71,12.54,17.13,3.61,8.38,5.2,17.49,6.45,26.53.28,2.05.54,4.17-.03,6.15-.48,1.66-1.51,3.11-2.54,4.5-7.85,10.68-17.87,17.88-31.67,17.05,0,0-51.71-3.13-51.94-3.14Z"/>
            <path class="cls-40" d="M293.44,456.39s1.38,3.41-9.24,7.96c-5.92,2.54-17.36,6.13-19.59,18.51-1.15,6.39-4.63,22.13-10.81,22.74-15.4,1.52-36.56,9.8-39.6,28.18-3.49,21.11,1.94,32.62,12.59,36.06,7.82,2.52,9.7,4.78,7.59,13.07-2.03,7.96,2.33,37.22,15.21,45.38,28.86,18.3,59.41-55.27,59.41-55.27l11.98-96.65-27.55-19.98Z"/>
            <path class="cls-40" d="M362.28,452.04s-1.82,3.41,8.33,9.53c5.66,3.41,16.77,8.62,17.47,21.92.36,6.87,1.6,16.56,7.77,17.97,15.37,3.53,32.45,19.75,34.5,49.35,1.56,22.59-6.27,46.25-17.46,48.53-8.22,1.67-7.35-2.58-6.25,6.42,1.05,8.62-2.43,5.11-16.46,12.09-31.45,15.63-58.24-45.07-58.24-45.07v-103.17s30.34-17.57,30.34-17.57Z"/>
            <path class="cls-18" d="M315.13,557.31s23.43-4.55,27.89,3.1c1.71,12.37,2.23,24.59,2.23,24.59l-26.89,3.38-17.34-5.11-4.04-2.68-.69-17.42s9.31-4.67,18.82-5.86Z"/>
            <path class="cls-26" d="M291.19,493.97s-3.04-11.35-8.83-7.98c-5.79,3.37,6.69,27.89,6.69,27.89l2.13-19.91Z"/>
            <path class="cls-26" d="M346.83,497.34s1.01-16.69,9.72-6.86c8.71,9.84-10.62,21.7-10.62,21.7l.9-14.84Z"/>
            <path class="cls-23" d="M425.01,654.24c-5.5-37.95-14.87-67.93-18.29-69.83l-24.21,50.82s-5.19,15.27-6.02,34.56l32.39,1.96c9.71.59,17.53-7.89,16.13-17.51Z"/>
            <path class="cls-23" d="M261.8,662.84c1.98-16.69,2.2-27.26,2.2-27.26l-26.76-49.98s-4.6,14.55-10.67,53.27c-.28,1.8-.56,3.63-.83,5.49-1.26,8.69,5.19,16.6,13.96,17.13l22.11,1.34Z"/>
            <path class="cls-26" d="M302.87,665.44l32.32,1.96,14.34-91.58s-7.3-2.36-10.23-15.57c-2.92-13.21-3.21-39.32-3.21-39.32l-33.84,5.38s1.57,35.57-6.86,51.82l7.47,87.31Z"/>
            <path class="cls-40" d="M352.63,668.45l8.17-57.86c-35.08,18.2-69.83,15.11-104.48,2.24l7.02,50.22,89.29,5.41Z"/>
            <path class="cls-23" d="M310.81,665.81c-7.1-48.99-14.51-102.59-14.51-102.59l-6.24,10.76-52.84,11.74c1.82,12.02,7.61,45.15,13.55,76.45l60.03,3.63Z"/>
            <path class="cls-23" d="M385.03,670.31c3.66-14.65,6.8-26.07,6.8-26.07l14.89-59.83c-3.32-3.75-58.31-14.71-58.31-14.71l-5.4-9.22s-10.66,53.38-20.21,106.07l62.22,3.77Z"/>
            <path class="cls-26" d="M289.05,467.78s-4.55,44.41.57,52.16c5.12,7.76,11.52,24.9,24.4,27.54,12.87,2.64,35.52-33.22,35.63-35.08.11-1.85,1.18-50.2,1.18-50.2,0,0-37.04-33.89-61.77,5.57Z"/>
            <path class="cls-40" d="M282.08,459.91s-8.77,21.81,13.94,15.74l22.71-6.07s23.05-11.64,26.42-5.85c3.37,5.79,6.25,19.72,6.25,19.72,0,0,8.59-18.82,1.84-30.4-6.75-11.58-52.56-23.66-71.16,6.86Z"/>
          </g>
        </g>
      </g>
      <g>
        <g>
          <path class="cls-9" d="M1031.34,245.44c-28.7-28.7-43.76-68.39-41.31-108.88,4.73-78.05,72.07-137.7,150.11-132.97,34.61,2.1,67.17,16.74,91.66,41.24,28.7,28.7,43.76,68.39,41.31,108.88-2.29,37.81-19.16,72.46-47.52,97.58-28.35,25.11-64.79,37.69-102.6,35.4-34.61-2.1-67.17-16.74-91.66-41.24Z"/>
          <path class="cls-40" d="M1229.46,47.18c27.06,27.05,42.83,65.13,40.34,106.32-4.62,76.34-70.25,134.47-146.59,129.85-35.14-2.13-66.43-17.19-89.51-40.27-27.06-27.06-42.83-65.12-40.34-106.32,4.62-76.34,70.25-134.47,146.59-129.85,35.14,2.13,66.43,17.19,89.51,40.27M1234.17,42.48h0c-25.08-25.08-58.39-40.07-93.82-42.21-38.69-2.34-75.99,10.52-105,36.23-29.02,25.7-46.29,61.17-48.63,99.87-2.51,41.44,12.9,82.05,42.28,111.43,25.07,25.07,58.39,40.06,93.82,42.2,38.69,2.34,75.99-10.52,105-36.23,29.02-25.7,46.29-61.17,48.63-99.87,2.51-41.44-12.9-82.05-42.27-111.42h0Z"/>
        </g>
        <g class="cls-5">
          <g>
            <circle class="cls-40" cx="1139" cy="85.78" r="45.16" transform="translate(34.31 376.17) rotate(-19.04)"/>
            <path class="cls-40" d="M1096.46,70.57c-23.98,67.37-41.24,128.89-40.11,146.55l58.18-2.6,14.38-126.42-32.45-17.52Z"/>
            <path class="cls-40" d="M1160.88,67.36l-17.32,154.55,63.3,38.79c1.84-53.07-16.99-190.85-27.85-195.17l-18.13,1.82Z"/>
            <polygon class="cls-26" points="1155.81 151.32 1155.16 193.66 1113.83 197.35 1113.94 152.87 1155.81 151.32"/>
            <path class="cls-26" d="M1176.77,127.07s-12.47,43.24-39.34,46.9c-26.88,3.66-32.24-38.12-33.46-41.17,0,0-6.11,2.44-7.08-3.54-.98-5.99-7.08-21.26,6.11-20.15,0,0-1.71-14.9,3.3-21.87,5.01-6.96,15.27-23.82,33.96-17.83,18.69,5.99,48.06,23.8,36.51,57.66Z"/>
            <path class="cls-26" d="M1155.38,179.51l25.14,15.34-36.27,35.26-60.48-43.36c9.79-3,19.5-7.23,28.19-8.14l43.43.89Z"/>
            <path class="cls-40" d="M1106.86,69.98c-9.63,11.88-3.31,23.31-6.24,32.08,8.79-2.6,38.1-5.52,46.78-4.13,2.17-5.83-.78-15.92-2.13-23.82,2.39,7.57,8.18,19.28,7.14,25.08,11.7,1.25,9.29,1.27,22.16,7.35l-8.1-36.42c-22.22-12.07-42.05-11.9-59.61-.13Z"/>
            <path class="cls-40" d="M1153.11,30.54c-.52,8.61-9.21,17.78-15.05,17.43-4.81-.29-13.35-10.51-12.83-19.11.52-8.61,7.18-15.21,14.88-14.74,7.7.47,13.52,7.82,13,16.43Z"/>
            <path class="cls-23" d="M1193.49,289.42l19.11-78.67c-18.65-14.41-36.3-21.8-57.23-31.22-7.48,13.41-37.73,10.2-43.42-.91-20.48,3.9-40.26,12.21-59.57,23.35l14.81,79.79,126.31,7.65Z"/>
            <path class="cls-23" d="M1233.56,277.73c-8.58-50.22-20.96-66.98-20.96-66.98l-25.33,63.81s2.26,5.35,5.09,14.8l29.18,1.77c7.38.45,13.27-6.1,12.02-13.39Z"/>
            <path class="cls-23" d="M1068.6,281.86c2.88-8.36,6.58-17.09,11.23-25.99l-27.46-53.87s-16.69,25.31-24.08,64.51c-1.28,6.78,3.71,13.13,10.59,13.55l29.71,1.8Z"/>
            <path class="cls-40" d="M1165.08,70.82c12.85,39.27,13.87,147.9,1.14,204.55,17.53-49.06,39.43-111.31,16.98-198.16l-18.12-6.39Z"/>
          </g>
        </g>
      </g>
      <g>
        <g>
          <path class="cls-9" d="M1245.81,379.4c2.89,0,5.83.09,8.73.26,37.95,2.3,72.74,19.24,97.95,47.7,25.21,28.46,37.83,65.04,35.53,102.99-4.54,75-66.89,133.75-141.95,133.75-2.89,0-5.83-.09-8.73-.26-37.95-2.3-72.74-19.24-97.95-47.7-25.21-28.46-37.83-65.04-35.53-102.99,4.54-75,66.89-133.75,141.95-133.75Z"/>
          <path class="cls-40" d="M1246.07,660.22c-2.82,0-5.65-.08-8.5-.26-76.34-4.62-134.47-70.25-129.85-146.59,4.45-73.49,65.44-130.11,138.09-130.11,2.82,0,5.65.08,8.5.26,76.34,4.62,134.47,70.25,129.85,146.59-4.45,73.49-65.44,130.11-138.09,130.11M1246.06,667.96h0c77.1,0,141.15-60.35,145.82-137.38,2.36-38.98-10.6-76.55-36.5-105.79-25.9-29.23-61.63-46.63-100.61-48.99-2.98-.18-5.99-.27-8.97-.27-77.1,0-141.15,60.35-145.82,137.38-2.36,38.98,10.6,76.55,36.5,105.79,25.9,29.23,61.63,46.63,100.61,48.99,2.98.18,5.99.27,8.96.27h0Z"/>
        </g>
        <g class="cls-24">
          <g>
            <path class="cls-23" d="M1162.38,652.89c2.79-9.98,4.91-16.49,4.91-16.49l-34.48-67.39s-13.2,11.84-23.97,66.23c-1.49,7.53,4,14.66,11.67,15.12l41.88,2.54Z"/>
            <path class="cls-23" d="M1371.07,650.89c-7.79-48.2-25.44-71.48-25.44-71.48l-28.87,78.2s.63,1.62,1.56,4.72l40.2,2.43c7.66.46,13.77-6.3,12.55-13.87Z"/>
            <path class="cls-23" d="M1162.08,652.87c38.62,16.92,92.41,18.14,155.79,9.43,1.84-5.98,4.23-12.38,7.34-19.73l20.41-63.18c-21.9-22.17-54.05-31-66.45-33.7-28.67-8.98-63.08-4.64-63.08-4.64-46.32.43-83.28,27.9-83.28,27.9l24.64,66.77c1.93,5.61,3.47,11.34,4.63,17.16Z"/>
            <path class="cls-26" d="M1223.9,510.04l-2.95,32.36c-.29,3.2,1.52,6.21,4.48,7.46,8.11,3.43,25,8.91,41.62,4.07,3.35-.98,5.53-4.21,5.23-7.69l-2.87-33.44-45.52-2.76Z"/>
            <g>
              <path class="cls-26" d="M1215.19,454.89s-.75,43.91,5.83,61.51c6.58,17.6,25.62,18.75,27.52,18.87,1.9.12,19.27-2.66,29.71-17.31,10.44-14.66,17.25-63.93,17.25-63.93,0,0-15.98-20.08-38.72-23.37-22.73-3.29-41.02,14.72-41.6,24.24Z"/>
              <path class="cls-26" d="M1285.9,475.04s9.53-12.58,13.64-7.94c4.1,4.63-6.35,32.5-15.09,31.98-8.74-.53,1.45-24.03,1.45-24.03Z"/>
              <path class="cls-26" d="M1220.23,473.25s-10-15.95-14.63-11.85c-4.63,4.1,4.57,33.17,13.31,33.69l1.32-21.85Z"/>
              <path class="cls-40" d="M1301.21,449.33c.23-2.96.25-6.03.31-9.53.06-3.65,1.06-72.08-74.12-30.67-.48.26-34.46-4.36-21.22,27.17,1.19,2.83,2.43,6.06,1.17,8.86-.39.86-.99,1.61-1.46,2.42-5.26,9.03,6.52,18.94,8.28,27.43,1.34,6.44,2.68,12.89,4.03,19.33,1.02-4,1.49-8.14,1.39-12.27-.13-5.68-1.32-11.36-.77-17.02.39-4.07,1.58-8.04,3.68-11.56,2.02-3.38,5.4-4.73,8.05-7.64,2.15,2.26,4.49,4.64,7.55,5.27,1.92.4,3.92.06,5.82-.42,2.88-.71,7.09-3.67,9.85-3.72,2.75-.05,3.53,2.88,5.25,4.51,4.78,4.53,13.28,6.22,19.47,4.06-1.43.5,5.82,16.24,6,17.64,1.06,8.21,1.5,16.5,1.32,24.77.62.52,1.42-.41,1.67-1.18,1.82-5.41,2.62-11.1,3.92-16.65,1.47-6.28,4.4-12.1,6.83-18.04,1.9-4.64,2.65-8.59,2.98-12.77Z"/>
            </g>
          </g>
        </g>
      </g>
      <g>
        <g>
          <path class="cls-9" d="M338.48,288.11c-2.88-.17-5.79-.44-8.67-.79-77.62-9.43-133.09-80.26-123.66-157.87C215.18,55.14,280.72.48,355.36,5c2.88.17,5.79.44,8.67.79,77.62,9.43,133.09,80.26,123.66,157.87-9.03,74.3-74.57,128.97-149.21,124.45Z"/>
          <path class="cls-40" d="M355.16,8.32c2.81.17,5.63.43,8.47.77,75.92,9.23,129.98,78.25,120.76,154.17-8.88,73.08-73.19,125.92-145.7,121.53-2.81-.17-5.63-.43-8.47-.77-75.92-9.23-129.98-78.25-120.76-154.17C218.34,56.77,282.64,3.94,355.16,8.32M355.57,1.68l-.4,6.64.4-6.64c-76.4-4.62-143.48,51.33-152.72,127.37-4.68,38.48,5.91,76.48,29.82,107,23.9,30.52,58.26,49.9,96.74,54.58,2.94.36,5.92.63,8.87.81,76.39,4.63,143.47-51.32,152.71-127.37,4.68-38.48-5.91-76.48-29.82-107-23.9-30.52-58.26-49.9-96.74-54.58-2.94-.36-5.92-.63-8.86-.81h0Z"/>
        </g>
        <g>
          <path class="cls-40" d="M321.07,113.11c-8.7-1.06-17.86-1.05-20-11.94-4.01-20.52,10.35-48.73,29.32-57.33,6.35-2.88,13.43-3.61,20.38-4.15,8.17-.63,15.11-.19,21.83,4.55,6.2,4.38,13.34-.58,19.66,4.84,5.37,4.6,8.67,11.46,11.48,17.86,10.44,23.8-4.49,41.02-5.6,42.35-8.48,10.18-11.7,11.77-25.43,10.1,0,0-51.42-6.25-51.65-6.28Z"/>
          <path class="cls-41" d="M339.09,180.19s23.66-3.12,27.65,4.78c.96,12.45.74,24.68.74,24.68l-27.04,1.75-17-6.15-3.87-2.92.37-17.43s9.57-4.1,19.14-4.71Z"/>
          <path class="cls-4" d="M319.02,115.52s-2.34-11.52-8.33-8.5c-5.98,3.02,5,28.24,5,28.24l3.33-19.74Z"/>
          <path class="cls-4" d="M374.37,122.25s2.02-16.6,10.12-6.26c8.1,10.34-11.91,21.02-11.91,21.02l1.79-14.76Z"/>
          <path class="cls-23" d="M439.07,251.68c-8.65,7.6-18.23,14.12-28.5,19.37-4.43,2.27-8.97,4.3-13.63,6.08.13-.54.26-1.07.39-1.57,2.16-8.28,4.31-13.52,4.31-13.52l27.24-49.26c2.24,1.44,6.47,16.07,9.94,37.35.09.51.17,1.03.24,1.55Z"/>
          <path class="cls-23" d="M281.58,269.5c.04-.26.07-.51.11-.76,1.22-8.5,1.63-13.5,1.63-13.5l-5.38-11.69-18.26-39.71-.05-.11s-4.29,11.16-11.1,40.28c-.03.14-.06.26-.09.4,5.36,5.5,11.18,10.57,17.41,15.13,4.48,3.27,9.17,6.29,14.05,9.03l1.67.93Z"/>
          <path class="cls-4" d="M372.32,200.74l-9.16,41.79-9.29,42.35-.27,1.21c-4.14.18-8.33.17-12.55-.03-3.37-.17-6.78-.45-10.19-.87-.98-.12-1.95-.25-2.92-.4-2.6-.37-5.17-.8-7.72-1.31l-.02-1.04-.93-37.69-1.12-44.97c.55-.92,1.07-1.91,1.55-2.94h0c.35-.74.68-1.49,1-2.28,1.37-3.38,2.48-7.21,3.4-11.19,1.65-7.23,2.64-14.93,3.21-21.25.73-7.9.82-13.65.82-13.65l34.1-3.33s-.23,4.61-.34,10.95c-.13,7.68-.08,17.88.77,25.5.12,1.06.25,2.07.4,3,.45,2.86,1.14,5.23,1.92,7.18.73,1.79,1.55,3.25,2.37,4.43,2.48,3.56,4.98,4.54,4.98,4.54Z"/>
          <path class="cls-40" d="M281.58,269.5c11.87,6.43,24.84,11.21,38.65,13.97,2.55.51,5.11.94,7.72,1.31.97.15,1.94.28,2.92.4,3.41.42,6.82.7,10.19.87,4.22.2,8.41.22,12.55.03,6.13-.26,12.17-.92,18.1-1.97l.26-1.34,9.5-46.64c-6.14,2.73-12.25,4.85-18.31,6.4-3.96,1.03-7.92,1.81-11.84,2.36-8.95,1.27-17.81,1.38-26.6.51-1.82-.17-3.64-.39-5.45-.65-14.24-2.04-28.29-6.54-42.23-12.71l.9,11.5,1.89,24.2.07.83,1.67.93Z"/>
          <path class="cls-23" d="M281.58,269.5c11.87,6.43,24.84,11.21,38.65,13.97,2.55.51,5.11.94,7.72,1.31-.03-.36-.06-.71-.09-1.08-1.08-12.92-2.14-26.04-3.13-38.31-1.3-16.15-2.47-30.84-3.31-41.69-.27-3.47-.51-6.55-.71-9.15-.44-5.71-.71-9.16-.74-9.56,0-.03,0-.04,0-.04l-6.88,10.37-53.39,8.51h-.06c.84,9.29,3.25,31.06,6.15,54.96.03.25.06.5.09.76,4.48,3.27,9.17,6.29,14.05,9.03l1.67.93Z"/>
          <path class="cls-23" d="M428.89,212.77l-17.74,56.48-.57,1.79c-4.43,2.27-8.97,4.3-13.63,6.08-8.1,3.11-16.55,5.45-25.24,6.99-5.93,1.05-11.97,1.71-18.1,1.97-4.14.18-8.33.17-12.55-.03.09-.38.18-.75.28-1.12,3.36-13.74,6.79-27.42,9.98-40.04,3.31-13.09,6.38-25.03,8.88-34.76,1.99-7.7,3.63-13.99,4.77-18.36,1.13-4.32,1.77-6.74,1.77-6.74l.02.03,4.82,9.5s54.23,14.27,57.32,18.21Z"/>
          <path class="cls-4" d="M318.47,89.25s-7.23,44.05-2.59,52.1c4.64,8.05,10,25.55,22.69,28.97,12.69,3.41,37.47-31.01,37.69-32.86.22-1.84,4.21-50.03,4.21-50.03,0,0-34.93-36.07-62,1.83Z"/>
          <path class="cls-40" d="M311.99,80.97s-10.07,21.24,12.96,16.55l23.03-4.69s23.71-10.22,26.72-4.24c3.02,5.98,5.05,20.06,5.05,20.06,0,0,9.71-18.27,3.67-30.23-6.03-11.97-51.03-26.79-71.45,2.55Z"/>
        </g>
        <path class="cls-15" d="M485.04,164.43c-4.27,35.13-21.34,65.57-45.97,87.24-8.65,7.6-18.23,14.12-28.5,19.37-4.43,2.27-8.97,4.3-13.63,6.08-8.1,3.11-16.55,5.45-25.24,6.99-5.93,1.05-11.97,1.71-18.1,1.97-4.14.18-8.33.17-12.55-.03-3.37-.17-6.78-.45-10.19-.87-.98-.12-1.95-.25-2.92-.4-2.6-.37-5.17-.8-7.72-1.31-13.81-2.77-26.78-7.55-38.65-13.97-.56-.31-1.11-.62-1.67-.93-4.89-2.74-9.58-5.76-14.05-9.03-6.23-4.57-12.06-9.63-17.41-15.13-8.46-8.67-15.75-18.44-21.67-29.01-.2-.34-.39-.67-.57-1.01-13.52-24.55-19.73-53.43-16.09-83.38C219.34,55.1,288.37,1.04,364.28,10.27c45.08,5.48,82.46,32.03,103.45,68.6.08.15.17.29.26.44,14.19,24.92,20.78,54.46,17.06,85.12Z"/>
      </g>
      <g>
        <g>
          <path class="cls-9" d="M245.44,1082.75c-28.7,28.7-68.39,43.76-108.88,41.31-37.81-2.29-72.46-19.16-97.58-47.52-25.11-28.35-37.69-64.79-35.4-102.6,2.1-34.61,16.74-67.17,41.24-91.66,28.7-28.7,68.39-43.76,108.88-41.31,37.81,2.29,72.46,19.16,97.58,47.52,25.11,28.35,37.69,64.79,35.4,102.6-2.1,34.61-16.74,67.17-41.24,91.66Z"/>
          <path class="cls-40" d="M47.18,884.64c27.05-27.06,65.12-42.83,106.32-40.34,76.34,4.62,134.47,70.25,129.85,146.59-2.13,35.14-17.19,66.43-40.27,89.51-27.06,27.06-65.12,42.83-106.32,40.34-76.34-4.62-134.47-70.25-129.85-146.59,2.13-35.14,17.19-66.43,40.27-89.51M42.48,879.92h0c-25.07,25.08-40.06,58.4-42.2,93.82-2.34,38.69,10.52,75.99,36.23,105,25.7,29.02,61.17,46.29,99.87,48.63,41.44,2.51,82.05-12.9,111.43-42.28,25.07-25.07,40.06-58.39,42.2-93.82,2.34-38.69-10.52-75.99-36.23-105-25.7-29.02-61.17-46.29-99.87-48.63-41.44-2.51-82.05,12.9-111.42,42.27h0Z"/>
        </g>
        <g class="cls-3">
          <g>
            <circle class="cls-40" cx="152.56" cy="923.16" r="45.16" transform="translate(-292.75 100.24) rotate(-19.04)"/>
            <path class="cls-40" d="M110.02,907.95c-23.98,67.37-41.24,128.89-40.11,146.55l58.18-2.6,14.38-126.42-32.45-17.52Z"/>
            <path class="cls-40" d="M174.44,904.75l-17.32,154.55,63.3,38.79c1.84-53.07-16.99-190.85-27.85-195.17l-18.13,1.82Z"/>
            <polygon class="cls-4" points="169.37 988.71 168.72 1031.05 127.4 1034.73 127.5 990.25 169.37 988.71"/>
            <path class="cls-4" d="M190.34,964.46s-12.47,43.24-39.34,46.9c-26.88,3.66-32.24-38.12-33.46-41.17,0,0-6.11,2.44-7.08-3.54-.98-5.99-7.08-21.26,6.11-20.15,0,0-1.71-14.9,3.3-21.87,5.01-6.96,15.27-23.82,33.96-17.83,18.69,5.99,48.06,23.8,36.51,57.66Z"/>
            <path class="cls-4" d="M168.94,1016.89l25.14,15.34-36.27,35.26-60.48-43.36c9.79-3,19.5-7.23,28.19-8.14l43.43.89Z"/>
            <path class="cls-40" d="M120.42,907.36c-9.63,11.88-3.31,23.31-6.24,32.08,8.79-2.6,38.1-5.52,46.78-4.13,2.17-5.83-.78-15.92-2.13-23.82,2.39,7.57,8.18,19.28,7.14,25.08,11.7,1.25,9.29,1.27,22.16,7.35l-8.1-36.42c-22.22-12.07-42.05-11.9-59.61-.13Z"/>
            <path class="cls-23" d="M207.05,1126.8l19.11-78.67c-18.65-14.41-36.3-21.8-57.23-31.22-7.48,13.41-37.73,10.2-43.42-.91-20.48,3.9-40.26,12.21-59.57,23.35l14.81,79.79,126.31,7.65Z"/>
            <path class="cls-23" d="M247.13,1115.11c-8.58-50.22-20.96-66.98-20.96-66.98l-25.33,63.81s2.26,5.35,5.09,14.8l29.18,1.77c7.38.45,13.27-6.1,12.02-13.39Z"/>
            <path class="cls-23" d="M82.17,1119.24c2.88-8.36,6.58-17.09,11.23-25.99l-27.46-53.87s-16.69,25.31-24.08,64.51c-1.28,6.78,3.71,13.13,10.59,13.55l29.71,1.8Z"/>
          </g>
        </g>
      </g>
      <g>
        <g>
          <line class="cls-15" x1="992.03" y1="1123.56" x2="925.86" y2="1179.28"/>
          <path class="cls-12" d="M900.06,1194.32c-7.2-12.31-4.72-28.38,6.57-37.88l66.17-55.72c12.61-10.62,31.45-9.01,42.08,3.6,10.62,12.61,9.01,31.45-3.6,42.08l-66.17,55.72c-12.61,10.62-31.45,9.01-42.08-3.6-1.12-1.33-2.11-2.74-2.96-4.19Z"/>
        </g>
        <g>
          <line class="cls-15" x1="1006.28" y1="1121.14" x2="960.28" y2="1204.79"/>
          <path class="cls-12" d="M934.51,1219.89c-5.13-8.77-5.65-19.94-.4-29.49l46-83.65c7.95-14.45,26.1-19.72,40.56-11.78,14.45,7.95,19.73,26.1,11.78,40.56l-46,83.65c-7.95,14.45-26.1,19.72-40.56,11.78-4.9-2.7-8.75-6.57-11.38-11.07Z"/>
        </g>
        <g>
          <line class="cls-15" x1="973.54" y1="1143.87" x2="995.9" y2="1229.9"/>
          <path class="cls-13" d="M996.9,1232.54c1.33-.5,2.1-1.94,1.73-3.35l-22.35-86.03c-.39-1.51-1.93-2.41-3.44-2.02-1.51.4-2.41,1.93-2.02,3.44l22.35,86.03c.39,1.51,1.93,2.41,3.44,2.02.1-.03.2-.06.29-.09Z"/>
        </g>
        <path class="cls-12" d="M975.62,1241.77c-1.35-2.32-2.42-4.85-3.12-7.58l-22.35-86.03c-4.15-15.96,5.43-32.26,21.39-36.41,15.96-4.15,32.27,5.42,36.41,21.39l22.35,86.03c4.15,15.96-5.43,32.26-21.39,36.41-13.24,3.44-26.71-2.56-33.29-13.81Z"/>
        <path class="cls-12" d="M1000.57,1079.01c-2.05.26-33.43,67.62-33.43,67.62l77.69,88s58.09-23.38,58.32-25.39c.23-2.01,9.03-79.34,8.44-81.96-.59-2.62-111.02-48.28-111.02-48.28Z"/>
        <path class="cls-26" d="M1105.36,1160.38l-89.6-47.59-108.47,25.36c-13.07,3.06-26.14-2.98-32.58-13.99-1.47-2.52-2.6-5.29-3.3-8.28-3.76-16.06,6.22-32.12,22.28-35.88l108.68-25.41c13.93-3.26,28.58-1.36,41.22,5.36l90.02,47.82c15.63,8.3,26.64,23,30.2,40.34l-58.45,12.28Z"/>
        <path class="cls-26" d="M1130.52,1387.8l78.02-24.01-32.84-161.17c-2.53-12.44-7.15-43.83-14.54-54.14l-25.11-14.71-69.58,50.35,64.04,203.67Z"/>
        <g>
          <line class="cls-15" x1="925.64" y1="1136.24" x2="1039.15" y2="1224.91"/>
          <path class="cls-13" d="M1040.15,1227.55c.47-.18.89-.48,1.23-.9.96-1.23.74-3-.49-3.96l-113.51-88.66c-1.23-.96-3-.74-3.96.49-.96,1.23-.74,3,.49,3.96l113.51,88.66c.81.63,1.85.75,2.74.42Z"/>
        </g>
        <g>
          <path class="cls-30" d="M840.86,1123.67c17.16-6.87,39.99-17.93,39.99-17.93l6.96,27.26-7.31,26.28s-22.46-10.94-39.73-18.18l.09-17.44Z"/>
          <path class="cls-28" d="M830.91,1136.91c-8.61-3.79-2.83-8.13.12-9.3,2.39-.95,5.83-2.33,9.83-3.93l-.09,17.44c-3.95-1.66-7.39-3.12-9.86-4.2Z"/>
          <path class="cls-34" d="M1155.95,1124.7c4.13.02,7.49-4.01,7.52-9.01h0c.03-5-3.3-9.07-7.42-9.09l-273.08-1.21c-4.13-.02-7.49,4.01-7.52,9.01h0c-.03,5,3.3,9.07,7.42,9.09l273.08,1.21Z"/>
          <path class="cls-28" d="M1155.85,1142.8c4.13.02,7.49-4.01,7.52-9.01h0c.03-5-3.3-9.07-7.42-9.09l-273.08-1.21c-4.13-.02-7.49,4.01-7.52,9.01h0c-.03,5,3.3,9.07,7.42,9.09l273.08,1.21Z"/>
          <path class="cls-34" d="M1155.75,1160.9c4.13.02,7.49-4.01,7.52-9.01h0c.03-5-3.3-9.07-7.42-9.09l-273.08-1.21c-4.13-.02-7.49,4.01-7.52,9.01h0c-.03,5,3.3,9.07,7.42,9.09l273.08,1.21Z"/>
          <rect class="cls-9" x="1130.57" y="1127.12" width="54.3" height="13.28" transform="translate(17.76 2285.37) rotate(-89.69)"/>
          <path class="cls-38" d="M1164.22,1160.94l.29-54.3,13.87.07v.02c.21,0,.42-.02.63-.02,10.41.06,18.79,12.26,18.7,27.25-.08,14.99-8.59,27.1-19,27.05-.21,0-.42-.02-.63-.03v.02s-13.87-.07-13.87-.07Z"/>
        </g>
        <path class="cls-26" d="M1066.45,1184.31c-9.58,5.65-21.36,5.53-30.76,0l-74.88-49.88c-13-10.15-28.1-11.81-38.26,1.19-7.75,9.93-7.55,21.57-.54,31.15,19.19,26.26,75.04,81.07,78.42,91l22.32,54.8c8.57,25.19,21.68,48.59,38.7,69.05l25.72,30.93,119.86-48.86-140.58-179.38Z"/>
        <path class="cls-12" d="M1011.67,1285.35l11.09,27.22c8.57,25.19,21.68,48.59,38.7,69.05l25.72,30.93,114.19-46.55,7.17-2.21-9.41-46.17s-62.46,20.67-100.69,14.65c-38.22-6.02-86.77-46.92-86.77-46.92Z"/>
        <polygon class="cls-34" points="1347.74 1630.63 1136.61 1699.51 1077.99 1509.95 1051.61 1424.64 1050.25 1420.22 1043.53 1398.5 1067.39 1388.76 1123.62 1365.83 1188.09 1339.52 1202.4 1333.67 1219.63 1326.65 1228.12 1346.8 1229.96 1351.16 1307.01 1533.97 1347.74 1630.63"/>
        <g class="cls-11">
          <path class="cls-14" d="M1347.74,1630.63l-211.13,68.88-58.62-189.56c16.17,7.6,57.66,25.75,95.27,30.83,46.09,6.23,127.39-5.84,133.75-6.8.29.61,40.73,96.66,40.73,96.66Z"/>
        </g>
        <path class="cls-28" d="M1052.83,1424.5s.05-.02.07-.03l176.27-72.79c1.3-.53,1.91-2.02,1.38-3.31-.54-1.3-1.98-1.96-3.32-1.38l-176.27,72.79c-1.3.53-1.91,2.02-1.38,3.31.53,1.27,1.96,1.89,3.24,1.41Z"/>
        <g class="cls-31">
          <path class="cls-9" d="M957.12,1144.24s-19.87-19.87-30.76-5.5c-11.35,14.98,12.1,28.59,12.1,28.59l18.66-23.09Z"/>
        </g>
        <g class="cls-31">
          <path class="cls-9" d="M908.97,1075.89s1.15,4.49-.17,6.08c-1.31,1.59-23.59,3.43-26.2,3.05s6.94-4.81,8.61-5.44,17.75-3.69,17.75-3.69Z"/>
        </g>
      </g>
      <line class="cls-16" x1="492.07" y1="195.49" x2="618.49" y2="236.62"/>
      <line class="cls-16" x1="883" y1="236.62" x2="987.63" y2="195.49"/>
      <line class="cls-16" x1="1174.79" y1="289.27" x2="1211.8" y2="378.56"/>
      <line class="cls-16" x1="306.94" y1="291.27" x2="269.92" y2="380.56"/>
      <line class="cls-16" x1="308.57" y1="988.21" x2="455.48" y2="896.45"/>
      <line class="cls-16" x1="1282.32" y1="988.21" x2="1135.4" y2="896.45"/>
      <line class="cls-16" x1="439.07" y1="621.54" x2="492.07" y2="693.74"/>
      <line class="cls-16" x1="1133.96" y1="621.54" x2="1080.96" y2="693.74"/>
      <line class="cls-16" x1="762.89" y1="468.98" x2="778.51" y2="572.34"/>
    </g>
  </g>
</svg>